SplineFontDB: 2.0
FontName: THMaliGrade6
FullName: THMaliGrade6
FamilyName: TH Mali Grade 6
Weight: Book
Copyright: Copyright (c) 2006 by Department of Intellectual Property (DIP), Ministry of Commerce and Software Industry Promotion Agency (Public Organization) (SIPA). All rights reserved.
Version: 1.1
ItalicAngle: 0
UnderlinePosition: -55
UnderlineWidth: 50
Ascent: 1638
Descent: 410
Order2: 1
NeedsXUIDChange: 1
XUID: [1021 375 425136265 10787122]
FSType: 0
OS2Version: 3
OS2_WeightWidthSlopeOnly: 0
OS2_UseTypoMetrics: 1
CreationTime: 1152588240
ModificationTime: 1196237276
PfmFamily: 17
TTFWeight: 400
TTFWidth: 5
LineGap: 123
VLineGap: 0
Panose: 2 0 5 6 0 0 0 2 0 4
OS2TypoAscent: 0
OS2TypoAOffset: 1
OS2TypoDescent: 0
OS2TypoDOffset: 1
OS2TypoLinegap: 0
OS2WinAscent: -35
OS2WinAOffset: 1
OS2WinDescent: 190
OS2WinDOffset: 1
HheadAscent: -35
HheadAOffset: 1
HheadDescent: 239
HheadDOffset: 1
OS2SubXSize: 1434
OS2SubYSize: 1331
OS2SubXOff: 0
OS2SubYOff: 287
OS2SupXSize: 1434
OS2SupYSize: 1331
OS2SupXOff: 0
OS2SupYOff: 977
OS2StrikeYSize: 49
OS2StrikeYPos: 399
OS2FamilyClass: 773
OS2Vendor: 'IPTH'
Lookup: 4 0 0 "'frac' Diagonal Fractions in Latin lookup 0"  {"'frac' Diagonal Fractions in Latin lookup 0 subtable"  } ['frac' ('latn' <'dflt' > ) ]
Lookup: 6 0 0 "'liga' Standard Ligatures in Latin lookup 1"  {"'liga' Standard Ligatures in Latin lookup 1 subtable"  } ['liga' ('latn' <'dflt' > ) ]
Lookup: 6 0 0 "'liga' Standard Ligatures in Latin lookup 2"  {"'liga' Standard Ligatures in Latin lookup 2 subtable"  } ['liga' ('latn' <'dflt' > ) ]
Lookup: 6 0 0 "'liga' Standard Ligatures in Latin lookup 3"  {"'liga' Standard Ligatures in Latin lookup 3 subtable"  } ['liga' ('latn' <'dflt' > ) ]
Lookup: 6 0 0 "'liga' Standard Ligatures in Latin lookup 4"  {"'liga' Standard Ligatures in Latin lookup 4 subtable"  } ['liga' ('latn' <'dflt' > ) ]

StartChar: .notdef
Encoding: 65536 -1 0
Width: 1811
VWidth: 3622
Flags: W
HStem: 25 99<1078.22 1452> 44.5 93.5<287.705 456.054 456.054 462.166 462.166 754.589 754.589 810.927 810.927 1194.21> 2402 93.5<558.119 960.769 960.769 1025.87 1025.87 1305.26 1305.26 1473.5> 2413 97<308.268 640.152>
VStem: 218 69<138 202.589 202.589 372.231 372.231 396.504 396.504 859.618> 230 74<529.759 865.5 907.5 1056.67 1056.67 1121.45 1121.45 1440.06 1440.06 1544.7 1544.7 1806.25 1806.25 1934.19 1934.19 2114.95 2114.95 2240.95 2240.95 2326.59 2326.59 2366.5 2366.5 2413> 1452 74.5<124.085 228.424 228.424 291.743 291.743 543.227 543.227 598.323 598.323 988.3 988.3 1007.02 1007.02 1411.06 1411.06 1520.46 1520.46 1624.5 1776.5 2006.49> 1468 74<1784.03 2012 2012 2162.32 2162.32 2297.76 2297.76 2402>
Fore
1542 2475 m 0,0,1
 1542 2434 1542 2434 1542 2311 c 128,-1,2
 1542 2188 1542 2188 1540.5 2012 c 128,-1,3
 1539 1836 1539 1836 1539 1624.5 c 128,-1,4
 1539 1413 1539 1413 1537 1197.5 c 128,-1,5
 1535 982 1535 982 1533.5 779.5 c 128,-1,6
 1532 577 1532 577 1530 418.5 c 128,-1,7
 1528 260 1528 260 1526.5 167 c 128,-1,8
 1525 74 1525 74 1525 73 c 0,9,10
 1532 25 1532 25 1486 25 c 0,11,12
 1159 41 1159 41 938.5 44.5 c 128,-1,13
 718 48 718 48 573 48 c 128,-1,14
 428 48 428 48 353.5 44.5 c 128,-1,15
 279 41 279 41 246 35 c 0,16,17
 239 35 239 35 228.5 38 c 128,-1,18
 218 41 218 41 218 65 c 0,19,20
 218 101 218 101 218 224.5 c 128,-1,21
 218 348 218 348 219.5 521.5 c 128,-1,22
 221 695 221 695 223 907.5 c 128,-1,23
 225 1120 225 1120 225 1335.5 c 128,-1,24
 225 1551 225 1551 226.5 1753.5 c 128,-1,25
 228 1956 228 1956 230 2113.5 c 128,-1,26
 232 2271 232 2271 232 2366.5 c 128,-1,27
 232 2462 232 2462 232 2464 c 0,28,29
 232 2499 232 2499 263 2506 c 128,-1,30
 294 2513 294 2513 333 2510 c 0,31,32
 640 2499 640 2499 850.5 2495.5 c 128,-1,33
 1061 2492 1061 2492 1199 2492 c 128,-1,34
 1337 2492 1337 2492 1409.5 2495.5 c 128,-1,35
 1482 2499 1482 2499 1514 2503 c 0,36,37
 1521 2503 1521 2503 1531.5 2501 c 128,-1,38
 1542 2499 1542 2499 1542 2475 c 0,0,1
1141 2402 m 2,39,40
 985 2402 985 2402 779 2404 c 128,-1,41
 573 2406 573 2406 333 2413 c 0,42,43
 318 2413 318 2413 313 2413 c 128,-1,44
 308 2413 308 2413 308 2402 c 0,45,46
 308 2361 308 2361 306 2249 c 128,-1,47
 304 2137 304 2137 304 1979.5 c 128,-1,48
 304 1822 304 1822 302.5 1632 c 128,-1,49
 301 1442 301 1442 299 1248 c 128,-1,50
 297 1054 297 1054 295.5 865.5 c 128,-1,51
 294 677 294 677 292 525 c 128,-1,52
 290 373 290 373 288.5 269.5 c 128,-1,53
 287 166 287 166 287 138 c 1,54,55
 442 134 442 134 626 134 c 0,56,57
 785 131 785 131 997.5 131 c 128,-1,58
 1210 131 1210 131 1452 124 c 1,59,60
 1452 163 1452 163 1454 337 c 128,-1,61
 1456 511 1456 511 1457.5 751.5 c 128,-1,62
 1459 992 1459 992 1461 1263.5 c 128,-1,63
 1463 1535 1463 1535 1464.5 1776.5 c 128,-1,64
 1466 2018 1466 2018 1468 2189.5 c 128,-1,65
 1470 2361 1470 2361 1475 2402 c 1,66,-1
 1141 2402 l 2,39,40
EndSplineSet
EndChar
StartChar: exclam
Encoding: 33 33 4
Width: 560
VWidth: 3622
Flags: W
HStem: 18 196<205.364 343.184>
VStem: 177 196<49.9709 152.01 1267.32 1475.37> 235 80<352 501.685>
Fore
315 352 m 1,0,1
 306 320 306 320 269 320 c 0,2,3
 242 320 242 320 235 352 c 1,4,-1
 184 1417 l 2,5,6
 186 1457 186 1457 212.5 1476.5 c 128,-1,7
 239 1496 239 1496 271 1496 c 0,8,9
 304 1496 304 1496 333.5 1476 c 128,-1,10
 363 1456 363 1456 366 1417 c 2,11,-1
 315 352 l 1,0,1
373 111 m 0,12,13
 370 73 370 73 344 45.5 c 128,-1,14
 318 18 318 18 279 18 c 0,15,16
 232 18 232 18 204.5 49 c 128,-1,17
 177 80 177 80 177 120 c 0,18,19
 177 159 177 159 204.5 186.5 c 128,-1,20
 232 214 232 214 279 214 c 0,21,22
 329 214 329 214 351 181.5 c 128,-1,23
 373 149 373 149 373 111 c 0,12,13
EndSplineSet
EndChar
StartChar: quotedbl
Encoding: 34 34 5
Width: 785
VWidth: 3622
Flags: W
HStem: 1254 488<492.402 545.326 235.5 519 521.5 521.5>
VStem: 180 107<1565.11 1721.69> 200 65<1286 1420.89> 467 106<1570.98 1721.69> 485 65<1286 1415.02>
Fore
265 1286 m 1,0,1
 256 1258 256 1258 231.5 1256 c 128,-1,2
 207 1254 207 1254 200 1286 c 1,3,-1
 180 1700 l 2,4,5
 180 1721 180 1721 199 1731.5 c 128,-1,6
 218 1742 218 1742 235.5 1742 c 128,-1,7
 253 1742 253 1742 270 1731.5 c 128,-1,8
 287 1721 287 1721 287 1700 c 2,9,-1
 265 1286 l 1,0,1
550 1286 m 2,10,11
 545 1254 545 1254 519 1254 c 128,-1,12
 493 1254 493 1254 485 1286 c 1,13,-1
 467 1700 l 2,14,15
 467 1721 467 1721 485.5 1731.5 c 128,-1,16
 504 1742 504 1742 521.5 1742 c 128,-1,17
 539 1742 539 1742 556 1731.5 c 128,-1,18
 573 1721 573 1721 573 1700 c 2,19,-1
 550 1286 l 2,10,11
EndSplineSet
EndChar
StartChar: numbersign
Encoding: 35 35 6
Width: 1303
VWidth: 3622
Flags: W
HStem: 573 83<255.281 412 501 775 865 1045.16> 941 81<317.382 463 550 840 927 1089.76>
VStem: 239 851<613 976 613 887> 741 71<294 341.616>
Fore
785 656 m 1,0,-1
 840 941 l 1,1,-1
 539 941 l 1,2,-1
 501 653 l 1,3,-1
 785 656 l 1,0,-1
421 653 m 1,4,-1
 463 946 l 1,5,-1
 356 946 l 1,6,7
 318 953 318 953 317 991 c 0,8,9
 315 1029 315 1029 352 1029 c 2,10,-1
 474 1029 l 1,11,-1
 515 1293 l 2,12,13
 522 1339 522 1339 559 1337 c 0,14,15
 598 1334 598 1334 591 1289 c 2,16,-1
 550 1026 l 1,17,-1
 847 1026 l 1,18,-1
 899 1314 l 2,19,20
 902 1334 902 1334 917 1340 c 128,-1,21
 932 1346 932 1346 948 1343.5 c 128,-1,22
 964 1341 964 1341 974.5 1329.5 c 128,-1,23
 985 1318 985 1318 982 1304 c 2,24,-1
 927 1022 l 1,25,-1
 1051 1022 l 1,26,27
 1090 1015 1090 1015 1090 976 c 0,28,29
 1090 941 1090 941 1051 941 c 2,30,-1
 916 941 l 1,31,-1
 865 656 l 1,32,-1
 1026 656 l 2,33,34
 1044 654 1044 654 1052.5 641 c 128,-1,35
 1061 628 1061 628 1061 613 c 128,-1,36
 1061 598 1061 598 1052.5 585.5 c 128,-1,37
 1044 573 1044 573 1026 573 c 2,38,-1
 854 573 l 1,39,-1
 812 294 l 1,40,41
 805 276 805 276 791.5 270.5 c 128,-1,42
 778 265 778 265 764 267 c 0,43,44
 748 271 748 271 741 279 c 0,45,46
 732 290 732 290 775 573 c 1,47,-1
 488 573 l 1,48,-1
 449 294 l 2,49,50
 446 274 446 274 432.5 266 c 128,-1,51
 419 258 419 258 404 260 c 128,-1,52
 389 262 389 262 378.5 273.5 c 128,-1,53
 368 285 368 285 370 304 c 2,54,-1
 412 573 l 1,55,-1
 279 573 l 2,56,57
 260 573 260 573 249.5 585.5 c 128,-1,58
 239 598 239 598 239 613 c 128,-1,59
 239 628 239 628 249.5 640.5 c 128,-1,60
 260 653 260 653 279 653 c 2,61,-1
 421 653 l 1,4,-1
EndSplineSet
EndChar
StartChar: dollar
Encoding: 36 36 7
Width: 1383
VWidth: 3622
Flags: W
HStem: 73 65<461.18 667 754 895.335> 757 65<508.106 657.937 658.064 667 754 858.939> 1466 66<492.02 667 754 863.892>
VStem: 203 66<253.365 445.438> 667 87<-120.662 73 138 743 822 1459 1532 1713.66> 1014 65<1109.62 1190> 1029 64<339.734 387 387 510.908>
Fore
667 1687 m 2,0,1
 667 1710 667 1710 679.5 1722.5 c 128,-1,2
 692 1735 692 1735 708.5 1735 c 128,-1,3
 725 1735 725 1735 739.5 1722.5 c 128,-1,4
 754 1710 754 1710 754 1687 c 2,5,-1
 754 1525 l 1,6,7
 895 1507 895 1507 985 1410.5 c 128,-1,8
 1075 1314 1075 1314 1079 1151 c 1,9,10
 1072 1113 1072 1113 1044.5 1109.5 c 128,-1,11
 1017 1106 1017 1106 1014 1141 c 0,12,13
 1010 1189 1010 1189 994 1241 c 128,-1,14
 978 1293 978 1293 945.5 1336.5 c 128,-1,15
 913 1380 913 1380 866 1414.5 c 128,-1,16
 819 1449 819 1449 754 1459 c 1,17,-1
 754 812 l 1,18,19
 870 789 870 789 938 742 c 128,-1,20
 1006 695 1006 695 1040.5 637.5 c 128,-1,21
 1075 580 1075 580 1086.5 513 c 128,-1,22
 1098 446 1098 446 1093 387 c 0,23,24
 1086 276 1086 276 1006.5 181.5 c 128,-1,25
 927 87 927 87 754 73 c 1,26,-1
 754 -94 l 2,27,28
 754 -117 754 -117 739.5 -129.5 c 128,-1,29
 725 -142 725 -142 708.5 -142 c 128,-1,30
 692 -142 692 -142 679.5 -129.5 c 128,-1,31
 667 -117 667 -117 667 -94 c 2,32,-1
 667 73 l 1,33,34
 485 80 485 80 358.5 166.5 c 128,-1,35
 232 253 232 253 203 417 c 0,36,37
 196 453 196 453 230.5 451 c 128,-1,38
 265 449 265 449 269 421 c 0,39,40
 294 304 294 304 391 224.5 c 128,-1,41
 488 145 488 145 667 138 c 1,42,-1
 667 754 l 1,43,44
 660 754 660 754 658 755.5 c 128,-1,45
 656 757 656 757 653 757 c 0,46,47
 474 775 474 775 371.5 869.5 c 128,-1,48
 269 964 269 964 253 1120 c 0,49,50
 246 1203 246 1203 273.5 1277 c 128,-1,51
 301 1351 301 1351 355 1407 c 128,-1,52
 409 1463 409 1463 489.5 1495.5 c 128,-1,53
 570 1528 570 1528 667 1532 c 1,54,-1
 667 1687 l 2,0,1
325 1120 m 0,55,56
 329 1075 329 1075 344 1030 c 128,-1,57
 359 985 359 985 397 945.5 c 128,-1,58
 435 906 435 906 498 871.5 c 128,-1,59
 561 837 561 837 667 822 c 1,60,-1
 667 1466 l 1,61,62
 497 1459 497 1459 407.5 1358.5 c 128,-1,63
 318 1258 318 1258 325 1120 c 0,55,56
1029 387 m 0,64,65
 1033 547 1033 547 966 630 c 128,-1,66
 899 713 899 713 754 743 c 1,67,-1
 754 138 l 1,68,69
 844 145 844 145 897 176 c 128,-1,70
 950 207 950 207 978 245 c 128,-1,71
 1006 283 1006 283 1017.5 323 c 128,-1,72
 1029 363 1029 363 1029 387 c 0,64,65
EndSplineSet
EndChar
StartChar: percent
Encoding: 37 37 8
Width: 1742
VWidth: 3622
Flags: W
HStem: 104 76<1103.46 1339.84> 543 80<1099.32 1339.12> 946 76<414.281 652.604> 1383 80<411.315 650.739>
VStem: 272 80<1085.2 1324.23> 713 65<1084.18 1290.89> 960 80<244.2 484.235> 1403 63<245.738 450.893>
Fore
598 28 m 1,0,1
 564 -11 564 -11 530.5 -3.5 c 128,-1,2
 497 4 497 4 515 51 c 2,3,-1
 1130 1555 l 2,4,5
 1141 1576 1141 1576 1159.5 1581.5 c 128,-1,6
 1178 1587 1178 1587 1192 1579.5 c 128,-1,7
 1206 1572 1206 1572 1211.5 1553.5 c 128,-1,8
 1217 1535 1217 1535 1203 1514 c 1,9,-1
 598 28 l 1,0,1
778 1199 m 0,10,11
 778 1109 778 1109 719 1027.5 c 128,-1,12
 660 946 660 946 536 946 c 0,13,14
 409 946 409 946 340.5 1029.5 c 128,-1,15
 272 1113 272 1113 272 1206 c 256,16,17
 272 1300 272 1300 338.5 1381.5 c 128,-1,18
 405 1463 405 1463 536 1463 c 0,19,20
 601 1463 601 1463 646.5 1438 c 128,-1,21
 692 1413 692 1413 721 1375 c 128,-1,22
 750 1337 750 1337 764 1289.5 c 128,-1,23
 778 1242 778 1242 778 1199 c 0,10,11
713 1196 m 0,24,25
 713 1261 713 1261 669.5 1322 c 128,-1,26
 626 1383 626 1383 539 1383 c 0,27,28
 456 1383 456 1383 404 1332.5 c 128,-1,29
 352 1282 352 1282 352 1210 c 0,30,31
 352 1134 352 1134 402.5 1078 c 128,-1,32
 453 1022 453 1022 539 1022 c 0,33,34
 612 1022 612 1022 659 1072.5 c 128,-1,35
 706 1123 706 1123 713 1196 c 0,24,25
1466 359 m 0,36,37
 1466 269 1466 269 1407 186.5 c 128,-1,38
 1348 104 1348 104 1224 104 c 0,39,40
 1098 104 1098 104 1029 188 c 128,-1,41
 960 272 960 272 960 366 c 256,42,43
 960 460 960 460 1026.5 541.5 c 128,-1,44
 1093 623 1093 623 1224 623 c 0,45,46
 1289 623 1289 623 1334.5 598 c 128,-1,47
 1380 573 1380 573 1409 535 c 128,-1,48
 1438 497 1438 497 1452 449.5 c 128,-1,49
 1466 402 1466 402 1466 359 c 0,36,37
1403 356 m 0,50,51
 1403 421 1403 421 1358.5 482 c 128,-1,52
 1314 543 1314 543 1228 543 c 0,53,54
 1144 543 1144 543 1092 492.5 c 128,-1,55
 1040 442 1040 442 1040 370 c 0,56,57
 1040 294 1040 294 1090.5 237 c 128,-1,58
 1141 180 1141 180 1228 180 c 0,59,60
 1300 180 1300 180 1347 231.5 c 128,-1,61
 1394 283 1394 283 1403 356 c 0,50,51
EndSplineSet
EndChar
StartChar: ampersand
Encoding: 38 38 9
Width: 1466
VWidth: 3622
Flags: W
HStem: 25 83<436.753 721.88>
VStem: 191.5 97<278.16 389 389 520.459> 224.5 87<1001.7 1276.02> 1107.5 93.5<443.531 485.5 485.5 599.119>
Fore
934 232 m 1,0,1
 782 322 782 322 676 460 c 128,-1,2
 570 598 570 598 497 764 c 1,3,4
 432 757 432 757 384 706.5 c 128,-1,5
 336 656 336 656 311.5 583.5 c 128,-1,6
 287 511 287 511 288.5 428 c 128,-1,7
 290 345 290 345 324.5 276 c 128,-1,8
 359 207 359 207 430 157.5 c 128,-1,9
 501 108 501 108 616 108 c 0,10,11
 718 104 718 104 801 138.5 c 128,-1,12
 884 173 884 173 934 232 c 1,0,1
547 895 m 1,13,14
 663 906 663 906 719 978.5 c 128,-1,15
 775 1051 775 1051 775 1132 c 128,-1,16
 775 1213 775 1213 722.5 1282 c 128,-1,17
 670 1351 670 1351 570 1358 c 0,18,19
 442 1369 442 1369 378.5 1303.5 c 128,-1,20
 315 1238 315 1238 311.5 1151.5 c 128,-1,21
 308 1065 308 1065 366.5 987 c 128,-1,22
 425 909 425 909 547 895 c 1,13,14
1155 722 m 0,23,24
 1178 677 1178 677 1190.5 623.5 c 128,-1,25
 1203 570 1203 570 1201 508 c 128,-1,26
 1199 446 1199 446 1179 382 c 128,-1,27
 1159 318 1159 318 1113 256 c 1,28,29
 1144 228 1144 228 1170 212 c 128,-1,30
 1196 196 1196 196 1219 183 c 128,-1,31
 1242 170 1242 170 1269.5 157.5 c 128,-1,32
 1297 145 1297 145 1337 127 c 0,33,34
 1355 117 1355 117 1358.5 102 c 128,-1,35
 1362 87 1362 87 1353 74.5 c 128,-1,36
 1344 62 1344 62 1329 55 c 128,-1,37
 1314 48 1314 48 1300 55 c 0,38,39
 1217 83 1217 83 1166.5 114 c 128,-1,40
 1116 145 1116 145 1054 203 c 1,41,42
 957 124 957 124 851.5 76 c 128,-1,43
 746 28 746 28 630 25 c 0,44,45
 493 21 493 21 400.5 72.5 c 128,-1,46
 308 124 308 124 255.5 207 c 128,-1,47
 203 290 203 290 191.5 389 c 128,-1,48
 180 488 180 488 206 581 c 128,-1,49
 232 674 232 674 297.5 744.5 c 128,-1,50
 363 815 363 815 460 840 c 1,51,52
 333 861 333 861 273.5 963 c 128,-1,53
 214 1065 214 1065 224.5 1175.5 c 128,-1,54
 235 1286 235 1286 323.5 1369 c 128,-1,55
 412 1452 412 1452 584 1442 c 0,56,57
 709 1438 709 1438 781.5 1348 c 128,-1,58
 854 1258 854 1258 862 1147.5 c 128,-1,59
 870 1037 870 1037 801 937 c 128,-1,60
 732 837 732 837 577 815 c 1,61,62
 653 640 653 640 750 517 c 128,-1,63
 847 394 847 394 1010 290 c 1,64,65
 1102 377 1102 377 1107.5 485.5 c 128,-1,66
 1113 594 1113 594 1072 709 c 1,67,68
 1061 725 1061 725 1070 737.5 c 128,-1,69
 1079 750 1079 750 1094 753.5 c 128,-1,70
 1109 757 1109 757 1126.5 750 c 128,-1,71
 1144 743 1144 743 1155 722 c 0,23,24
EndSplineSet
EndChar
StartChar: quotesingle
Encoding: 39 39 10
Width: 417
VWidth: 3622
Flags: W
HStem: 997.5 488.5<182.546 206>
VStem: 156 104<1301.03 1464.07> 173 66<1029 1169.97>
Fore
239 1029 m 1,0,1
 232 999 232 999 206 997.5 c 128,-1,2
 180 996 180 996 173 1029 c 1,3,-1
 156 1442 l 2,4,5
 156 1463 156 1463 174.5 1474.5 c 128,-1,6
 193 1486 193 1486 210.5 1486 c 128,-1,7
 228 1486 228 1486 244 1474.5 c 128,-1,8
 260 1463 260 1463 260 1442 c 2,9,-1
 239 1029 l 1,0,1
EndSplineSet
EndChar
StartChar: parenleft
Encoding: 40 40 11
Width: 864
VWidth: 3622
Flags: W
VStem: 138 97<313.318 948.129>
Fore
573 -173 m 0,0,1
 594 -196 594 -196 597.5 -217.5 c 128,-1,2
 601 -239 601 -239 590.5 -255.5 c 128,-1,3
 580 -272 580 -272 558 -275.5 c 128,-1,4
 536 -279 536 -279 511 -260 c 0,5,6
 325 -69 325 -69 231.5 150.5 c 128,-1,7
 138 370 138 370 138 633 c 0,8,9
 138 895 138 895 237 1128.5 c 128,-1,10
 336 1362 336 1362 525 1551 c 1,11,12
 547 1565 547 1565 565.5 1555.5 c 128,-1,13
 584 1546 584 1546 592.5 1528.5 c 128,-1,14
 601 1511 601 1511 599.5 1485 c 128,-1,15
 598 1459 598 1459 577 1445 c 1,16,17
 412 1279 412 1279 323.5 1072 c 128,-1,18
 235 865 235 865 235 633 c 0,19,20
 235 398 235 398 322 197 c 128,-1,21
 409 -4 409 -4 573 -173 c 0,0,1
EndSplineSet
EndChar
StartChar: parenright
Encoding: 41 41 12
Width: 864
VWidth: 3622
Flags: W
VStem: 605 97<313.318 948.129>
Fore
269 -173 m 0,0,1
 432 -4 432 -4 518.5 197 c 128,-1,2
 605 398 605 398 605 633 c 0,3,4
 605 865 605 865 516.5 1072 c 128,-1,5
 428 1279 428 1279 265 1445 c 1,6,7
 242 1459 242 1459 240.5 1485 c 128,-1,8
 239 1511 239 1511 247.5 1528.5 c 128,-1,9
 256 1546 256 1546 275 1555.5 c 128,-1,10
 294 1565 294 1565 315 1551 c 1,11,12
 504 1362 504 1362 603 1128.5 c 128,-1,13
 702 895 702 895 702 633 c 0,14,15
 702 370 702 370 608.5 150.5 c 128,-1,16
 515 -69 515 -69 329 -260 c 0,17,18
 304 -279 304 -279 282 -275.5 c 128,-1,19
 260 -272 260 -272 249.5 -255.5 c 128,-1,20
 239 -239 239 -239 242.5 -217.5 c 128,-1,21
 246 -196 246 -196 269 -173 c 0,0,1
EndSplineSet
EndChar
StartChar: asterisk
Encoding: 42 42 13
Width: 1061
VWidth: 3622
Flags: W
HStem: 656 778.5<537.282 587.072 556 563.5 757.446 903.362>
VStem: 518 83<670.062 960 1098 1169.45 1169.45 1315.36 1315.36 1434.38>
Fore
623 1029 m 1,0,-1
 895 874 l 1,1,2
 920 851 920 851 902 822.5 c 128,-1,3
 884 794 884 794 854 812 c 2,4,-1
 601 960 l 1,5,-1
 601 692 l 2,6,7
 601 674 601 674 590.5 665 c 128,-1,8
 580 656 580 656 563.5 656 c 128,-1,9
 547 656 547 656 534.5 665 c 128,-1,10
 522 674 522 674 522 692 c 2,11,-1
 518 968 l 1,12,-1
 276 826 l 2,13,14
 246 812 246 812 232 841 c 128,-1,15
 218 870 218 870 239 888 c 1,16,-1
 474 1029 l 1,17,-1
 203 1189 l 2,18,19
 170 1210 170 1210 188.5 1239 c 128,-1,20
 207 1268 207 1268 239 1251 c 2,21,-1
 518 1090 l 1,22,23
 518 1171 518 1171 516.5 1241 c 128,-1,24
 515 1311 515 1311 515 1390 c 0,25,26
 518 1438 518 1438 556 1434.5 c 128,-1,27
 594 1431 594 1431 594 1390 c 2,28,-1
 598 1098 l 1,29,-1
 844 1238 l 2,30,31
 891 1261 891 1261 905.5 1228.5 c 128,-1,32
 920 1196 920 1196 881 1178 c 2,33,-1
 623 1029 l 1,0,-1
EndSplineSet
EndChar
StartChar: plus
Encoding: 43 43 14
Width: 1123
VWidth: 3622
Flags: W
HStem: 707.5 70.5<196.347 373.5 373.5 375 375 522 605 639.873 639.873 648.853 648.853 718.123 718.123 723.969 723.969 766.969 766.969 826.81 826.81 833.128>
VStem: 525 80<399.621 455.996 455.996 526.938 526.938 676.106 676.106 702 778 806.662 806.662 850.092 850.092 877.454 877.454 991.485 991.485 1000.75 1003.24 1089.99>
Fore
522 778 m 1,0,1
 522 853 522 853 521 922 c 128,-1,2
 520 991 520 991 522 1061 c 1,3,4
 529 1090 529 1090 566 1090 c 0,5,6
 605 1090 605 1090 605 1061 c 0,7,8
 605 1042 605 1042 602.5 1002 c 128,-1,9
 600 962 600 962 599 919 c 128,-1,10
 598 876 598 876 598 836 c 128,-1,11
 598 796 598 796 601 778 c 1,12,13
 662 778 662 778 692 777.5 c 128,-1,14
 722 777 722 777 744 777.5 c 128,-1,15
 766 778 766 778 790 781.5 c 128,-1,16
 814 785 814 785 865 794 c 0,17,18
 895 801 895 801 904 781 c 128,-1,19
 913 761 913 761 909 739 c 1,20,21
 902 722 902 722 862 715 c 128,-1,22
 822 708 822 708 772.5 707 c 128,-1,23
 723 706 723 706 675.5 707.5 c 128,-1,24
 628 709 628 709 605 709 c 1,25,26
 605 688 605 688 604 649 c 128,-1,27
 603 610 603 610 602 567.5 c 128,-1,28
 601 525 601 525 599.5 486.5 c 128,-1,29
 598 448 598 448 596 426 c 0,30,31
 596 407 596 407 586.5 396.5 c 128,-1,32
 577 386 577 386 559 387 c 0,33,34
 525 389 525 389 525 432 c 2,35,-1
 525 702 l 1,36,-1
 225 713 l 1,37,38
 196 718 196 718 196 754 c 256,39,40
 196 789 196 789 225 789 c 2,41,-1
 522 778 l 1,0,1
EndSplineSet
EndChar
StartChar: comma
Encoding: 44 44 15
Width: 622
VWidth: 3622
Flags: W
HStem: -180 42<117 167.362 167.362 258.912>
VStem: 88.5 404<-154 76 -85.5868 -65.6529>
Fore
108 -138 m 1,0,1
 246 -159 246 -159 334 -97 c 0,2,3
 425 -37 425 -37 435 69 c 1,4,5
 417 41 417 41 379 31 c 128,-1,6
 341 21 341 21 301 41 c 0,7,8
 276 50 276 50 259 67.5 c 128,-1,9
 242 85 242 85 232.5 108 c 128,-1,10
 223 131 223 131 221 157.5 c 128,-1,11
 219 184 219 184 228 210 c 0,12,13
 237 235 237 235 256.5 254.5 c 128,-1,14
 276 274 276 274 300.5 284.5 c 128,-1,15
 325 295 325 295 354.5 295 c 128,-1,16
 384 295 384 295 412 281 c 0,17,18
 442 265 442 265 462.5 234 c 128,-1,19
 483 203 483 203 491 162.5 c 128,-1,20
 499 122 499 122 492.5 76 c 128,-1,21
 486 30 486 30 463 -14 c 0,22,23
 437 -76 437 -76 393.5 -115 c 128,-1,24
 350 -154 350 -154 300.5 -172.5 c 128,-1,25
 251 -191 251 -191 202.5 -192 c 128,-1,26
 154 -193 154 -193 117 -180 c 0,27,28
 87 -170 87 -170 88.5 -154 c 128,-1,29
 90 -138 90 -138 108 -138 c 1,0,1
287 196 m 0,30,31
 272 166 272 166 284.5 131.5 c 128,-1,32
 297 97 297 97 322 90 c 0,33,34
 352 80 352 80 384.5 94 c 128,-1,35
 417 108 417 108 432 138 c 0,36,37
 440 166 440 166 424.5 191 c 128,-1,38
 409 216 409 216 383 228.5 c 128,-1,39
 357 241 357 241 329.5 234.5 c 128,-1,40
 302 228 302 228 287 196 c 0,30,31
EndSplineSet
EndChar
StartChar: hyphen
Encoding: 45 45 16
Width: 1050
VWidth: 3622
Flags: W
HStem: 725.5 84.5<180.113 357.5 357.5 438.507 438.507 845.235> 737 78<768.271 798.217 798.217 846.5 849 887.714>
VStem: 180 713<761 795.431>
Fore
506 796 m 2,0,1
 799 807 799 807 849 815 c 0,2,3
 879 822 879 822 888 802 c 128,-1,4
 897 782 897 782 893 761 c 1,5,6
 886 743 886 743 846.5 737 c 128,-1,7
 807 731 807 731 640.5 725.5 c 128,-1,8
 474 720 474 720 209 734 c 0,9,10
 180 739 180 739 180 774.5 c 128,-1,11
 180 810 180 810 209 810 c 2,12,-1
 506 796 l 2,0,1
EndSplineSet
EndChar
StartChar: period
Encoding: 46 46 17
Width: 622
VWidth: 3622
Flags: W
HStem: 22.5 176.5<271.84 296 296 303.515 303.515 310.577 310.577 342 265 296 296 296>
VStem: 218 173<63 102.454 102.454 112.846 112.846 142>
Fore
218 142 m 0,0,1
 223 156 223 156 235.5 168 c 128,-1,2
 248 180 248 180 263.5 188 c 128,-1,3
 279 196 279 196 296 199 c 128,-1,4
 313 202 313 202 325 196 c 0,5,6
 366 184 366 184 384 146 c 128,-1,7
 402 108 402 108 391 80 c 0,8,9
 380 41 380 41 342 22.5 c 128,-1,10
 304 4 304 4 265 18 c 0,11,12
 235 25 235 25 219 63 c 128,-1,13
 203 101 203 101 218 142 c 0,0,1
EndSplineSet
EndChar
StartChar: slash
Encoding: 47 47 18
Width: 1068
VWidth: 3622
Flags: W
VStem: 190 645<-29 1766 -29 -29>
Fore
272 -11 m 1,0,1
 256 -32 256 -32 240.5 -40 c 128,-1,2
 225 -48 225 -48 210.5 -46 c 128,-1,3
 196 -44 196 -44 190 -29 c 128,-1,4
 184 -14 184 -14 193 7 c 2,5,-1
 761 1756 l 2,6,7
 768 1783 768 1783 784.5 1790 c 128,-1,8
 801 1797 801 1797 815.5 1790 c 128,-1,9
 830 1783 830 1783 835 1766 c 128,-1,10
 840 1749 840 1749 830 1725 c 2,11,-1
 272 -11 l 1,0,1
EndSplineSet
EndChar
StartChar: zero
Encoding: 48 48 19
Width: 1268
VWidth: 3622
Flags: W
HStem: 25 95<407.773 826.638> 1279 97<430.875 821.821>
VStem: 69 101<492.224 768.938> 1086 96<439.526 774.543>
Fore
1182 656 m 0,0,1
 1182 539 1182 539 1147.5 427 c 128,-1,2
 1113 315 1113 315 1044 226.5 c 128,-1,3
 975 138 975 138 868 81.5 c 128,-1,4
 761 25 761 25 616 25 c 0,5,6
 467 25 467 25 363.5 83.5 c 128,-1,7
 260 142 260 142 195.5 233.5 c 128,-1,8
 131 325 131 325 100 437.5 c 128,-1,9
 69 550 69 550 69 656 c 0,10,11
 69 757 69 757 96.5 881.5 c 128,-1,12
 124 1006 124 1006 186.5 1117 c 128,-1,13
 249 1228 249 1228 356 1302 c 128,-1,14
 463 1376 463 1376 623 1376 c 256,15,16
 782 1376 782 1376 889 1303.5 c 128,-1,17
 996 1231 996 1231 1061.5 1124 c 128,-1,18
 1127 1017 1127 1017 1154.5 890.5 c 128,-1,19
 1182 764 1182 764 1182 656 c 0,0,1
1086 656 m 0,20,21
 1086 775 1086 775 1061.5 887 c 128,-1,22
 1037 999 1037 999 980 1086.5 c 128,-1,23
 923 1174 923 1174 836.5 1226.5 c 128,-1,24
 750 1279 750 1279 626 1279 c 0,25,26
 501 1279 501 1279 413 1225 c 128,-1,27
 325 1171 325 1171 271.5 1081.5 c 128,-1,28
 218 992 218 992 194 880 c 128,-1,29
 170 768 170 768 170 656 c 0,30,31
 170 547 170 547 194 449.5 c 128,-1,32
 218 352 218 352 271.5 277.5 c 128,-1,33
 325 203 325 203 409 161.5 c 128,-1,34
 493 120 493 120 612 120 c 0,35,36
 736 120 736 120 826 161.5 c 128,-1,37
 916 203 916 203 974.5 275.5 c 128,-1,38
 1033 348 1033 348 1059.5 445.5 c 128,-1,39
 1086 543 1086 543 1086 656 c 0,20,21
EndSplineSet
EndChar
StartChar: one
Encoding: 49 49 20
Width: 933
VWidth: 3622
Flags: W
VStem: 557 106<39.5635 696 696 1251>
Fore
557 1251 m 1,0,1
 539 1210 539 1210 499.5 1161.5 c 128,-1,2
 460 1113 460 1113 421 1068 c 0,3,4
 373 1017 373 1017 318 968 c 1,5,6
 301 957 301 957 285 962.5 c 128,-1,7
 269 968 269 968 257.5 978.5 c 128,-1,8
 246 989 246 989 247.5 1007.5 c 128,-1,9
 249 1026 249 1026 269 1044 c 0,10,11
 370 1137 370 1137 429 1218.5 c 128,-1,12
 488 1300 488 1300 539 1394 c 0,13,14
 547 1410 547 1410 563.5 1406.5 c 128,-1,15
 580 1403 580 1403 598 1389.5 c 128,-1,16
 616 1376 616 1376 631 1360 c 128,-1,17
 646 1344 646 1344 649 1334 c 1,18,-1
 663 58 l 2,19,20
 663 41 663 41 646.5 33 c 128,-1,21
 630 25 630 25 610.5 23 c 128,-1,22
 591 21 591 21 574 28 c 128,-1,23
 557 35 557 35 557 55 c 2,24,-1
 564 536 l 1,25,-1
 557 1251 l 1,0,1
EndSplineSet
EndChar
StartChar: two
Encoding: 50 50 21
Width: 1155
VWidth: 3622
Flags: W
HStem: 11 79<256.664 384.726 652.186 882.448 882.448 893.434 896.558 990.015> 16 84<304.559 426.365 426.365 539.123 539.123 580.485 580.485 780.545> 1394 76<413.809 748.963>
VStem: 159 76<1037.01 1192.06> 902 83<989.11 1194.71>
Fore
256 90 m 1,0,1
 370 97 370 97 456.5 100 c 128,-1,2
 543 103 543 103 621.5 101 c 128,-1,3
 700 99 700 99 783.5 94.5 c 128,-1,4
 867 90 867 90 975 83 c 0,5,6
 994 80 994 80 1001 67.5 c 128,-1,7
 1008 55 1008 55 1005.5 41 c 128,-1,8
 1003 27 1003 27 994 15.5 c 128,-1,9
 985 4 985 4 975 4 c 0,10,11
 945 7 945 7 895 9.5 c 128,-1,12
 845 12 845 12 782.5 14 c 128,-1,13
 720 16 720 16 650 17 c 128,-1,14
 580 18 580 18 511 18 c 0,15,16
 430 18 430 18 341.5 16 c 128,-1,17
 253 14 253 14 156 11 c 0,18,19
 142 11 142 11 142 21 c 0,20,21
 156 159 156 159 270 315 c 128,-1,22
 384 471 384 471 626 619 c 0,23,24
 693 662 693 662 744.5 715 c 128,-1,25
 796 768 796 768 831.5 827 c 128,-1,26
 867 886 867 886 884.5 948 c 128,-1,27
 902 1010 902 1010 902 1072 c 0,28,29
 902 1196 902 1196 819 1295 c 256,30,31
 736 1394 736 1394 564 1394 c 0,32,33
 481 1394 481 1394 422 1369 c 128,-1,34
 363 1344 363 1344 323 1300 c 128,-1,35
 283 1256 283 1256 262 1194 c 128,-1,36
 241 1132 241 1132 235 1058 c 0,37,38
 232 1037 232 1037 195 1037 c 0,39,40
 159 1037 159 1037 159 1083 c 0,41,42
 159 1160 159 1160 190 1230 c 128,-1,43
 221 1300 221 1300 275 1353 c 128,-1,44
 329 1406 329 1406 401.5 1438 c 128,-1,45
 474 1470 474 1470 557 1470 c 0,46,47
 665 1470 665 1470 745.5 1437 c 128,-1,48
 826 1404 826 1404 879 1349.5 c 128,-1,49
 932 1295 932 1295 958.5 1221.5 c 128,-1,50
 985 1148 985 1148 985 1068 c 0,51,52
 985 999 985 999 966.5 929.5 c 128,-1,53
 948 860 948 860 910 793.5 c 128,-1,54
 872 727 872 727 814.5 668.5 c 128,-1,55
 757 610 757 610 681 564 c 0,56,57
 591 511 591 511 513 449 c 128,-1,58
 435 387 435 387 378.5 323.5 c 128,-1,59
 322 260 322 260 289 200 c 128,-1,60
 256 140 256 140 256 90 c 1,0,1
EndSplineSet
EndChar
StartChar: three
Encoding: 51 51 22
Width: 1199
VWidth: 3622
Flags: W
HStem: 0 73<540.98 847.006> 709 69<640 824.24> 1351 76<519.425 762.084>
VStem: 97 76<310.214 563.986> 275 77<960 1052.43 1052.43 1052.76 1052.76 1130 1130 1220.21> 1016.5 70.5<268 361.593 932.335 1179.09> 1037 72<310.326 506.343>
Fore
279 960 m 1,0,1
 253 1058 253 1058 275 1144.5 c 128,-1,2
 297 1231 297 1231 354.5 1293 c 128,-1,3
 412 1355 412 1355 498 1391 c 128,-1,4
 584 1427 584 1427 681 1427 c 0,5,6
 757 1427 757 1427 829.5 1401.5 c 128,-1,7
 902 1376 902 1376 956 1329 c 128,-1,8
 1010 1282 1010 1282 1044.5 1215 c 128,-1,9
 1079 1148 1079 1148 1079 1068 c 0,10,11
 1079 982 1079 982 1032 885.5 c 128,-1,12
 985 789 985 789 851 754 c 1,13,14
 927 736 927 736 976.5 696 c 128,-1,15
 1026 656 1026 656 1054.5 601.5 c 128,-1,16
 1083 547 1083 547 1096 487.5 c 128,-1,17
 1109 428 1109 428 1109 373 c 0,18,19
 1109 322 1109 322 1087 257.5 c 128,-1,20
 1065 193 1065 193 1012.5 134.5 c 128,-1,21
 960 76 960 76 874.5 38 c 128,-1,22
 789 0 789 0 663 0 c 0,23,24
 547 0 547 0 446 22 c 128,-1,25
 345 44 345 44 266 101.5 c 128,-1,26
 187 159 187 159 142 257.5 c 128,-1,27
 97 356 97 356 97 508 c 0,28,29
 97 564 97 564 134 564 c 0,30,31
 173 564 173 564 173 525 c 0,32,33
 173 394 173 394 213 307.5 c 128,-1,34
 253 221 253 221 318.5 169 c 128,-1,35
 384 117 384 117 469 95 c 128,-1,36
 554 73 554 73 646 73 c 0,37,38
 754 73 754 73 830 102 c 128,-1,39
 906 131 906 131 951 174.5 c 128,-1,40
 996 218 996 218 1016.5 268 c 128,-1,41
 1037 318 1037 318 1037 363 c 0,42,43
 1037 547 1037 547 929.5 628 c 128,-1,44
 822 709 822 709 656 709 c 0,45,46
 626 709 626 709 617 740 c 128,-1,47
 608 771 608 771 640 778 c 0,48,49
 837 801 837 801 920 884.5 c 128,-1,50
 1003 968 1003 968 1003 1090 c 0,51,52
 1003 1137 1003 1137 983.5 1182.5 c 128,-1,53
 964 1228 964 1228 924 1266 c 128,-1,54
 884 1304 884 1304 824 1327.5 c 128,-1,55
 764 1351 764 1351 685 1351 c 256,56,57
 605 1351 605 1351 536 1324 c 128,-1,58
 467 1297 467 1297 420 1248 c 128,-1,59
 373 1199 373 1199 353 1130 c 128,-1,60
 333 1061 333 1061 352 975 c 1,61,62
 348 946 348 946 319 936.5 c 128,-1,63
 290 927 290 927 283 957 c 1,64,-1
 279 960 l 1,0,1
EndSplineSet
EndChar
StartChar: four
Encoding: 52 52 23
Width: 1155
VWidth: 3622
Flags: W
HStem: 11 21G<782.5 820.5> 461.5 76<228.53 283 295 336 336 362.159 362.159 502.969 502.969 554.092 554.092 666.488 666.488 709.158 709.158 747.393 747.393 778>
VStem: 764 76<11.0098 263.992> 778 76<259.208 467 564 708.799> 805 76<909.201 1112.93>
Fore
688 1394 m 0,0,1
 660 1364 660 1364 585 1270 c 256,2,3
 511 1176 511 1176 426 1058 c 0,4,5
 384 998 384 998 362.5 967 c 0,6,-1
 256 812 l 0,7,8
 216 750 216 750 183 695 c 128,-1,9
 150 640 150 640 127 594 c 1,10,11
 111 571 111 571 193 559 c 0,12,13
 233 552 233 552 283 548.5 c 128,-1,14
 333 545 333 545 389 541 c 0,15,16
 502 536 502 536 617 536 c 0,17,18
 674 536 674 536 715.5 537.5 c 128,-1,19
 757 539 757 539 782 543 c 1,20,-1
 805 1075 l 2,21,22
 805 1114 805 1114 842 1113 c 0,23,24
 881 1111 881 1111 881 1068 c 2,25,-1
 861 564 l 1,26,27
 968 577 968 577 1033 587.5 c 128,-1,28
 1098 598 1098 598 1102 598 c 2,29,30
 1116 601 1116 601 1127.5 596 c 128,-1,31
 1139 591 1139 591 1145 581 c 128,-1,32
 1151 571 1151 571 1152 559 c 128,-1,33
 1153 547 1153 547 1144 536 c 1,34,35
 1144 532 1144 532 1133.5 530.5 c 128,-1,36
 1123 529 1123 529 1092 523.5 c 128,-1,37
 1061 518 1061 518 1004.5 509.5 c 128,-1,38
 948 501 948 501 854 485 c 1,39,-1
 840 44 l 2,40,41
 840 11 840 11 801 11 c 0,42,43
 764 11 764 11 764 51 c 2,44,-1
 778 467 l 1,45,46
 722 463 722 463 639.5 461.5 c 128,-1,47
 557 460 557 460 468.5 461.5 c 128,-1,48
 380 463 380 463 295 470.5 c 128,-1,49
 210 478 210 478 146.5 492 c 128,-1,50
 83 506 83 506 52 527 c 128,-1,51
 21 548 21 548 41 580 c 1,52,53
 71 656 71 656 128.5 758 c 128,-1,54
 186 860 186 860 263 974 c 128,-1,55
 340 1088 340 1088 432.5 1210 c 128,-1,56
 525 1332 525 1332 630 1449 c 0,57,58
 644 1461 644 1461 660 1459 c 128,-1,59
 676 1457 676 1457 686.5 1447.5 c 128,-1,60
 697 1438 697 1438 698.5 1423 c 128,-1,61
 700 1408 700 1408 688 1394 c 0,0,1
EndSplineSet
EndChar
StartChar: five
Encoding: 53 53 24
Width: 1213
VWidth: 3622
Flags: W
HStem: 14 67<363.058 422 446 527.279 527.279 527.397 527.397 742.078> 884 73<490.616 801.021> 1355 83<345.375 502.089 502.089 597.569 597.569 921.317>
VStem: 138 945<315 481 456 460 400.279 400.397> 138 87<297.877 480.436> 228 97<934 1084.89> 1014 69<287.237 658.467>
Fore
228 808 m 1,0,1
 239 1033 239 1033 246 1159.5 c 128,-1,2
 253 1286 253 1286 256.5 1348 c 128,-1,3
 260 1410 260 1410 262.5 1426 c 128,-1,4
 265 1442 265 1442 265 1445 c 1,5,6
 269 1449 269 1449 328 1445.5 c 128,-1,7
 387 1442 387 1442 485.5 1438 c 128,-1,8
 584 1434 584 1434 710.5 1434 c 128,-1,9
 837 1434 837 1434 978 1445 c 0,10,11
 1010 1449 1010 1449 1008 1414.5 c 128,-1,12
 1006 1380 1006 1380 978 1373 c 0,13,14
 822 1355 822 1355 659.5 1351.5 c 128,-1,15
 497 1348 497 1348 345 1355 c 1,16,-1
 325 934 l 1,17,18
 460 957 460 957 573 957 c 0,19,20
 713 960 713 960 811 920.5 c 128,-1,21
 909 881 909 881 969 813.5 c 128,-1,22
 1029 746 1029 746 1056 653.5 c 128,-1,23
 1083 561 1083 561 1083 456 c 0,24,25
 1079 228 1079 228 936.5 116 c 128,-1,26
 794 4 794 4 594 0 c 0,27,28
 511 -4 511 -4 422 14 c 128,-1,29
 333 32 333 32 263 83 c 128,-1,30
 193 134 193 134 155 224.5 c 128,-1,31
 117 315 117 315 138 460 c 0,32,33
 142 481 142 481 156 491 c 128,-1,34
 170 501 170 501 186.5 499 c 128,-1,35
 203 497 203 497 214 485.5 c 128,-1,36
 225 474 225 474 225 453 c 0,37,38
 214 336 214 336 243 260 c 128,-1,39
 272 184 272 184 324.5 140.5 c 128,-1,40
 377 97 377 97 446 81 c 128,-1,41
 515 65 515 65 587 69 c 0,42,43
 667 73 667 73 744.5 98.5 c 128,-1,44
 822 124 822 124 881.5 172.5 c 128,-1,45
 941 221 941 221 977.5 293.5 c 128,-1,46
 1014 366 1014 366 1014 460 c 0,47,48
 1014 646 1014 646 901.5 765 c 128,-1,49
 789 884 789 884 594 884 c 0,50,51
 511 884 511 884 422 865.5 c 128,-1,52
 333 847 333 847 228 808 c 1,0,1
EndSplineSet
EndChar
StartChar: six
Encoding: 54 54 25
Width: 1257
VWidth: 3622
Flags: W
HStem: 0 73<412.973 832.678> 757 65<472.593 846.337> 1065 21G<1054.25 1088.75> 1344 73<487.961 811.414>
VStem: 104 76<649.193 782.203> 1033 69<280.994 464.584>
Fore
1022 1098 m 0,0,1
 989 1182 989 1182 951 1227 c 128,-1,2
 913 1272 913 1272 849 1308 c 128,-1,3
 785 1344 785 1344 692 1344 c 0,4,5
 539 1344 539 1344 436 1268 c 128,-1,6
 333 1192 333 1192 273.5 1074.5 c 128,-1,7
 214 957 214 957 192 817 c 128,-1,8
 170 677 170 677 180 550 c 1,9,10
 210 646 210 646 266 700 c 128,-1,11
 322 754 322 754 389 781 c 128,-1,12
 456 808 456 808 525 815 c 128,-1,13
 594 822 594 822 649 822 c 0,14,15
 771 822 771 822 858.5 779 c 128,-1,16
 946 736 946 736 1000 672 c 128,-1,17
 1054 608 1054 608 1078 535.5 c 128,-1,18
 1102 463 1102 463 1102 405 c 0,19,20
 1102 239 1102 239 996.5 121.5 c 128,-1,21
 891 4 891 4 649 0 c 0,22,23
 370 -4 370 -4 237 155.5 c 128,-1,24
 104 315 104 315 104 653 c 0,25,26
 104 812 104 812 142 951 c 128,-1,27
 180 1090 180 1090 252.5 1193.5 c 128,-1,28
 325 1297 325 1297 428.5 1357 c 128,-1,29
 532 1417 532 1417 663 1417 c 0,30,31
 754 1417 754 1417 819 1402 c 128,-1,32
 884 1387 884 1387 934.5 1350.5 c 128,-1,33
 985 1314 985 1314 1025 1253 c 128,-1,34
 1065 1192 1065 1192 1106 1102 c 1,35,36
 1106 1065 1106 1065 1071.5 1065 c 128,-1,37
 1037 1065 1037 1065 1022 1098 c 0,0,1
228 442 m 0,38,39
 228 287 228 287 331.5 176 c 128,-1,40
 435 65 435 65 649 73 c 0,41,42
 761 76 761 76 835 107 c 128,-1,43
 909 138 909 138 952.5 185 c 128,-1,44
 996 232 996 232 1014.5 286.5 c 128,-1,45
 1033 341 1033 341 1033 391 c 0,46,47
 1033 439 1033 439 1016 501.5 c 128,-1,48
 999 564 999 564 957.5 622.5 c 128,-1,49
 916 681 916 681 842 719 c 128,-1,50
 768 757 768 757 649 757 c 0,51,52
 471 757 471 757 349.5 675.5 c 128,-1,53
 228 594 228 594 228 442 c 0,38,39
EndSplineSet
EndChar
StartChar: seven
Encoding: 55 55 26
Width: 1155
VWidth: 3622
Flags: W
HStem: 659.5 81.5<489.217 537.454 537.454 562.423 562.423 571.938 571.938 590 591 628.229> 673.5 84<640.068 646.5 684.5 727.255 833 884.597 884.597 899.646 899.646 998.123> 1364 84.5<296.657 400 404 440.594 440.594 477.85 459.222 682.105>
VStem: 822 84<1068.55 1299.69>
Fore
529 732 m 0,0,1
 564 736 564 736 590 741 c 128,-1,2
 616 746 616 746 638 750 c 128,-1,3
 660 754 660 754 684.5 757.5 c 128,-1,4
 709 761 709 761 754 768 c 1,5,6
 768 830 768 830 795 942 c 128,-1,7
 822 1054 822 1054 822 1155 c 0,8,9
 822 1289 822 1289 735.5 1331 c 128,-1,10
 649 1373 649 1373 515 1373 c 0,11,12
 460 1373 460 1373 404 1364 c 128,-1,13
 348 1355 348 1355 295 1344.5 c 128,-1,14
 242 1334 242 1334 199 1324 c 128,-1,15
 156 1314 156 1314 124 1314 c 0,16,17
 94 1314 94 1314 81.5 1325.5 c 128,-1,18
 69 1337 69 1337 69 1348 c 0,19,20
 69 1366 69 1366 121 1386 c 128,-1,21
 173 1406 173 1406 247.5 1422 c 128,-1,22
 322 1438 322 1438 400 1448.5 c 128,-1,23
 478 1459 478 1459 529 1459 c 0,24,25
 605 1459 605 1459 672 1445 c 128,-1,26
 739 1431 739 1431 791.5 1398.5 c 128,-1,27
 844 1366 844 1366 875 1310 c 128,-1,28
 906 1254 906 1254 906 1174 c 0,29,30
 906 1109 906 1109 883.5 996.5 c 128,-1,31
 861 884 861 884 833 764 c 1,32,33
 920 764 920 764 965 766 c 128,-1,34
 1010 768 1010 768 1026 754 c 0,35,36
 1037 743 1037 743 1037 721 c 128,-1,37
 1037 699 1037 699 999 692 c 0,38,39
 971 685 971 685 936.5 685 c 128,-1,40
 902 685 902 685 805 681 c 1,41,42
 785 616 785 616 755 514 c 128,-1,43
 725 412 725 412 689 311 c 128,-1,44
 653 210 653 210 615 127 c 128,-1,45
 577 44 577 44 543 14 c 0,46,47
 522 -4 522 -4 500 10.5 c 128,-1,48
 478 25 478 25 493 44 c 0,49,50
 518 80 518 80 541 123 c 128,-1,51
 564 166 564 166 591.5 233.5 c 128,-1,52
 619 301 619 301 653.5 408 c 128,-1,53
 688 515 688 515 732 681 c 1,54,55
 681 677 681 677 646.5 673.5 c 128,-1,56
 612 670 612 670 591 666.5 c 128,-1,57
 570 663 570 663 553 659.5 c 128,-1,58
 536 656 536 656 522 656 c 1,59,60
 501 653 501 653 487.5 663.5 c 128,-1,61
 474 674 474 674 474 686.5 c 128,-1,62
 474 699 474 699 487.5 714 c 128,-1,63
 501 729 501 729 529 732 c 0,0,1
EndSplineSet
EndChar
StartChar: eight
Encoding: 56 56 27
Width: 1238
VWidth: 3622
Flags: W
HStem: 0 76<414.263 828.361> 826 76<473.533 764.291> 1362 76<515.279 771.371>
VStem: 69 76<304.645 610.354> 304 76<993.417 1265.7> 851 76<1058.43 1144 1144 1279.85> 1079 76<315.944 597.687>
Fore
830 884 m 1,0,1
 960 826 960 826 1057.5 717 c 128,-1,2
 1155 608 1155 608 1155 439 c 0,3,4
 1155 329 1155 329 1113.5 247.5 c 128,-1,5
 1072 166 1072 166 999.5 110.5 c 128,-1,6
 927 55 927 55 829.5 27.5 c 128,-1,7
 732 0 732 0 623 0 c 0,8,9
 511 0 511 0 409.5 31 c 128,-1,10
 308 62 308 62 232 119.5 c 128,-1,11
 156 177 156 177 112.5 262.5 c 128,-1,12
 69 348 69 348 69 460 c 0,13,14
 69 616 69 616 170.5 717.5 c 128,-1,15
 272 819 272 819 417 877 c 1,16,17
 363 927 363 927 333.5 994 c 128,-1,18
 304 1061 304 1061 304 1134 c 0,19,20
 304 1210 304 1210 333.5 1266.5 c 128,-1,21
 363 1323 363 1323 408 1361 c 128,-1,22
 453 1399 453 1399 508.5 1418.5 c 128,-1,23
 564 1438 564 1438 623 1438 c 0,24,25
 746 1438 746 1438 836.5 1362 c 128,-1,26
 927 1286 927 1286 927 1148 c 0,27,28
 927 1065 927 1065 907.5 1007.5 c 128,-1,29
 888 950 888 950 830 884 c 1,0,1
630 826 m 0,30,31
 525 826 525 826 436.5 797 c 128,-1,32
 348 768 348 768 283 719 c 128,-1,33
 218 670 218 670 181.5 604.5 c 128,-1,34
 145 539 145 539 145 467 c 0,35,36
 145 391 145 391 174 320 c 128,-1,37
 203 249 203 249 262.5 195.5 c 128,-1,38
 322 142 322 142 413 109 c 128,-1,39
 504 76 504 76 623 76 c 0,40,41
 746 76 746 76 833 107 c 128,-1,42
 920 138 920 138 974.5 190 c 128,-1,43
 1029 242 1029 242 1054 306 c 128,-1,44
 1079 370 1079 370 1079 435 c 0,45,46
 1079 515 1079 515 1046.5 587.5 c 128,-1,47
 1014 660 1014 660 956.5 712 c 128,-1,48
 899 764 899 764 815.5 795 c 128,-1,49
 732 826 732 826 630 826 c 0,30,31
851 1144 m 1,50,-1
 851 1148 l 2,51,52
 851 1231 851 1231 793.5 1296.5 c 128,-1,53
 736 1362 736 1362 630 1362 c 0,54,55
 518 1362 518 1362 449 1295 c 128,-1,56
 380 1228 380 1228 380 1134 c 0,57,58
 380 1022 380 1022 452.5 962 c 128,-1,59
 525 902 525 902 630 902 c 0,60,61
 713 902 713 902 780 958 c 128,-1,62
 847 1014 847 1014 851 1148 c 1,63,-1
 851 1144 l 1,50,-1
EndSplineSet
EndChar
StartChar: nine
Encoding: 57 57 28
Width: 1216
VWidth: 3622
Flags: W
HStem: 4 69<398.906 780.86> 557 76<408.846 724.07> 1366 76<412.73 818.596>
VStem: 138 76<875.195 1140.06> 1068 69<487.009 822.99>
Fore
166 442 m 0,0,1
 173 370 173 370 202.5 304.5 c 128,-1,2
 232 239 232 239 284 186.5 c 128,-1,3
 336 134 336 134 412 103.5 c 128,-1,4
 488 73 488 73 594 73 c 0,5,6
 826 73 826 73 947 287 c 128,-1,7
 1068 501 1068 501 1068 874 c 1,8,9
 1037 778 1037 778 983.5 717 c 128,-1,10
 930 656 930 656 865.5 621.5 c 128,-1,11
 801 587 801 587 734 572 c 128,-1,12
 667 557 667 557 608 557 c 0,13,14
 348 557 348 557 243 684.5 c 128,-1,15
 138 812 138 812 138 1014 c 0,16,17
 138 1192 138 1192 255.5 1317 c 128,-1,18
 373 1442 373 1442 601 1442 c 0,19,20
 840 1442 840 1442 988.5 1279 c 128,-1,21
 1137 1116 1137 1116 1137 808 c 0,22,23
 1137 637 1137 637 1104.5 491 c 128,-1,24
 1072 345 1072 345 1006.5 236 c 128,-1,25
 941 127 941 127 840 65.5 c 128,-1,26
 739 4 739 4 601 4 c 0,27,28
 474 4 474 4 380.5 40 c 128,-1,29
 287 76 287 76 223 136 c 128,-1,30
 159 196 159 196 126.5 272 c 128,-1,31
 94 348 94 348 94 432 c 0,32,33
 94 467 94 467 126.5 476 c 128,-1,34
 159 485 159 485 166 442 c 0,0,1
989 1127 m 0,35,36
 937 1231 937 1231 854 1298.5 c 128,-1,37
 771 1366 771 1366 601 1366 c 0,38,39
 497 1366 497 1366 422.5 1333 c 128,-1,40
 348 1300 348 1300 300.5 1249.5 c 128,-1,41
 253 1199 253 1199 233.5 1137 c 128,-1,42
 214 1075 214 1075 214 1017 c 0,43,44
 214 953 214 953 231.5 884 c 128,-1,45
 249 815 249 815 295 758.5 c 128,-1,46
 341 702 341 702 417 667.5 c 128,-1,47
 493 633 493 633 608 633 c 0,48,49
 685 633 685 633 757.5 662.5 c 128,-1,50
 830 692 830 692 888 740.5 c 128,-1,51
 946 789 946 789 980 856 c 128,-1,52
 1014 923 1014 923 1014 999 c 0,53,54
 1014 1065 1014 1065 989 1127 c 0,35,36
EndSplineSet
EndChar
StartChar: colon
Encoding: 58 58 29
Width: 622
VWidth: 3622
Flags: W
HStem: 90 66<288.464 391.136> 304 66<299.335 380.002> 637 65<275.349 352.589> 851 65<260.88 355.846>
VStem: 170 65<745.11 824.683> 196 64<185.521 264.58> 384 65<746.349 823.598> 409 65<186.274 276.089>
Fore
170 778 m 0,0,1
 170 833 170 833 211.5 874.5 c 128,-1,2
 253 916 253 916 308 916 c 0,3,4
 366 916 366 916 407.5 874.5 c 128,-1,5
 449 833 449 833 449 778 c 0,6,7
 449 750 449 750 437.5 724.5 c 128,-1,8
 426 699 426 699 407.5 679.5 c 128,-1,9
 389 660 389 660 362.5 648.5 c 128,-1,10
 336 637 336 637 308 637 c 0,11,12
 281 637 281 637 255.5 648.5 c 128,-1,13
 230 660 230 660 211.5 679.5 c 128,-1,14
 193 699 193 699 181.5 724.5 c 128,-1,15
 170 750 170 750 170 778 c 0,0,1
235 782 m 0,16,17
 235 754 235 754 259 728 c 128,-1,18
 283 702 283 702 304 702 c 0,19,20
 333 702 333 702 358.5 728 c 128,-1,21
 384 754 384 754 384 782 c 0,22,23
 384 805 384 805 358.5 828 c 128,-1,24
 333 851 333 851 304 851 c 0,25,26
 283 851 283 851 259 828 c 128,-1,27
 235 805 235 805 235 782 c 0,16,17
196 232 m 0,28,29
 196 258 196 258 207.5 284 c 128,-1,30
 219 310 219 310 237.5 328.5 c 128,-1,31
 256 347 256 347 281 358.5 c 128,-1,32
 306 370 306 370 333 370 c 0,33,34
 391 370 391 370 432.5 328.5 c 128,-1,35
 474 287 474 287 474 232 c 0,36,37
 474 173 474 173 432.5 131.5 c 128,-1,38
 391 90 391 90 333 90 c 0,39,40
 279 90 279 90 237.5 131.5 c 128,-1,41
 196 173 196 173 196 232 c 0,28,29
260 235 m 0,42,43
 260 207 260 207 284 181.5 c 128,-1,44
 308 156 308 156 329 156 c 0,45,46
 359 156 359 156 384 181.5 c 128,-1,47
 409 207 409 207 409 235 c 0,48,49
 409 256 409 256 384 280 c 128,-1,50
 359 304 359 304 329 304 c 0,51,52
 308 304 308 304 284 280 c 128,-1,53
 260 256 260 256 260 235 c 0,42,43
EndSplineSet
EndChar
StartChar: semicolon
Encoding: 59 59 30
Width: 622
VWidth: 3622
Flags: W
HStem: -173 39<218 395.609> 101 55<285.018 380.559> 311 52<282.927 383.582> 677 66<296 398.449> 891 66<294.585 388.302>
VStem: 200 56<185.622 284.712 764.823 870.942> 412 89<206.834 287.281> 417 64<774.022 863.052>
Fore
218 -134 m 1,0,1
 356 -104 356 -104 413.5 -14 c 128,-1,2
 471 76 471 76 442 177 c 1,3,4
 435 145 435 145 404 123 c 128,-1,5
 373 101 373 101 329 101 c 0,6,7
 279 101 279 101 239.5 139 c 128,-1,8
 200 177 200 177 200 232 c 0,9,10
 200 283 200 283 238 323 c 128,-1,11
 276 363 276 363 336 363 c 0,12,13
 394 363 394 363 449 306 c 128,-1,14
 504 249 504 249 501 111 c 0,15,16
 493 -28 493 -28 407.5 -93.5 c 128,-1,17
 322 -159 322 -159 239 -173 c 1,18,19
 210 -173 210 -173 205 -157.5 c 128,-1,20
 200 -142 200 -142 218 -134 c 1,0,1
203 819 m 0,21,22
 203 874 203 874 245 915.5 c 128,-1,23
 287 957 287 957 341 957 c 0,24,25
 398 957 398 957 439.5 915.5 c 128,-1,26
 481 874 481 874 481 819 c 0,27,28
 481 761 481 761 439.5 719 c 128,-1,29
 398 677 398 677 341 677 c 0,30,31
 287 677 287 677 245 719 c 128,-1,32
 203 761 203 761 203 819 c 0,21,22
256 239 m 0,33,34
 256 207 256 207 280 181.5 c 128,-1,35
 304 156 304 156 329 156 c 0,36,37
 363 156 363 156 387.5 181.5 c 128,-1,38
 412 207 412 207 412 239 c 0,39,40
 412 265 412 265 387.5 288 c 128,-1,41
 363 311 363 311 329 311 c 0,42,43
 304 311 304 311 280 288 c 128,-1,44
 256 265 256 265 256 239 c 0,33,34
269 822 m 0,45,46
 269 794 269 794 292 768.5 c 128,-1,47
 315 743 315 743 336 743 c 0,48,49
 366 743 366 743 391.5 768.5 c 128,-1,50
 417 794 417 794 417 822 c 0,51,52
 417 844 417 844 391.5 867.5 c 128,-1,53
 366 891 366 891 336 891 c 0,54,55
 315 891 315 891 292 867.5 c 128,-1,56
 269 844 269 844 269 822 c 0,45,46
EndSplineSet
EndChar
StartChar: less
Encoding: 60 60 31
Width: 1390
VWidth: 3622
Flags: W
HStem: 129 821<1162 1199 1171.5 1174 742.529 766.827>
VStem: 193 86<495.657 586.169>
Fore
1174 218 m 0,0,1
 1196 207 1196 207 1204.5 185 c 128,-1,2
 1213 163 1213 163 1206 148.5 c 128,-1,3
 1199 134 1199 134 1171.5 129 c 128,-1,4
 1144 124 1144 124 1090 145 c 0,5,6
 1029 166 1029 166 936.5 195.5 c 128,-1,7
 844 225 844 225 745 256 c 128,-1,8
 646 287 646 287 547.5 321.5 c 128,-1,9
 449 356 449 356 369.5 392 c 128,-1,10
 290 428 290 428 241.5 466 c 128,-1,11
 193 504 193 504 193 543 c 0,12,13
 193 587 193 587 261 632 c 128,-1,14
 329 677 329 677 434 720.5 c 128,-1,15
 539 764 539 764 664 805.5 c 128,-1,16
 789 847 789 847 897.5 878 c 128,-1,17
 1006 909 1006 909 1084 927.5 c 128,-1,18
 1162 946 1162 946 1174 950 c 1,19,20
 1238 950 1238 950 1231 920.5 c 128,-1,21
 1224 891 1224 891 1178 877 c 0,22,23
 1155 870 1155 870 1080.5 850 c 128,-1,24
 1006 830 1006 830 907 799 c 128,-1,25
 808 768 808 768 697.5 731.5 c 128,-1,26
 587 695 587 695 492.5 660.5 c 128,-1,27
 398 626 398 626 338.5 595 c 128,-1,28
 279 564 279 564 279 543 c 0,29,30
 279 518 279 518 342 485.5 c 128,-1,31
 405 453 405 453 499.5 418.5 c 128,-1,32
 594 384 594 384 706.5 351 c 128,-1,33
 819 318 819 318 916.5 291.5 c 128,-1,34
 1014 265 1014 265 1086.5 245 c 128,-1,35
 1159 225 1159 225 1174 218 c 0,0,1
EndSplineSet
EndChar
StartChar: equal
Encoding: 61 61 32
Width: 1123
VWidth: 3622
Flags: W
HStem: 547 86<114.536 394.75> 570 86<712.548 985.377> 812 87<115.08 978.377>
VStem: 95.5 909<614 864 864 864>
Fore
142 812 m 1,0,1
 120 815 120 815 107 831 c 128,-1,2
 94 847 94 847 95.5 864 c 128,-1,3
 97 881 97 881 114 891.5 c 128,-1,4
 131 902 131 902 166 899 c 2,5,-1
 953 906 l 2,6,7
 975 906 975 906 985.5 893.5 c 128,-1,8
 996 881 996 881 997.5 864 c 128,-1,9
 999 847 999 847 987 833 c 128,-1,10
 975 819 975 819 946 819 c 2,11,-1
 142 812 l 1,0,1
142 547 m 1,12,13
 120 550 120 550 107 567 c 128,-1,14
 94 584 94 584 95.5 600 c 128,-1,15
 97 616 97 616 114 626.5 c 128,-1,16
 131 637 131 637 166 633 c 2,17,-1
 960 656 l 2,18,19
 982 656 982 656 992.5 643 c 128,-1,20
 1003 630 1003 630 1004.5 614 c 128,-1,21
 1006 598 1006 598 994 584 c 128,-1,22
 982 570 982 570 953 570 c 2,23,-1
 142 547 l 1,12,13
EndSplineSet
EndChar
StartChar: greater
Encoding: 62 62 33
Width: 1390
VWidth: 3622
Flags: W
HStem: 129 821<218 253 242 245 330.512 528.091>
VStem: 1137 87<496.145 586.169>
Fore
242 218 m 0,0,1
 256 225 256 225 329 245 c 128,-1,2
 402 265 402 265 500 291.5 c 128,-1,3
 598 318 598 318 710 351 c 128,-1,4
 822 384 822 384 916 418.5 c 128,-1,5
 1010 453 1010 453 1073.5 485.5 c 128,-1,6
 1137 518 1137 518 1137 543 c 0,7,8
 1137 564 1137 564 1077 595 c 128,-1,9
 1017 626 1017 626 923.5 660.5 c 128,-1,10
 830 695 830 695 719 731.5 c 128,-1,11
 608 768 608 768 508.5 799 c 128,-1,12
 409 830 409 830 332.5 850 c 128,-1,13
 256 870 256 870 239 877 c 0,14,15
 193 891 193 891 185 920.5 c 128,-1,16
 177 950 177 950 242 950 c 1,17,18
 253 946 253 946 331 927.5 c 128,-1,19
 409 909 409 909 517.5 878 c 128,-1,20
 626 847 626 847 751.5 805.5 c 128,-1,21
 877 764 877 764 981.5 720.5 c 128,-1,22
 1086 677 1086 677 1155 632 c 128,-1,23
 1224 587 1224 587 1224 543 c 0,24,25
 1224 504 1224 504 1175.5 466 c 128,-1,26
 1127 428 1127 428 1047.5 392 c 128,-1,27
 968 356 968 356 869.5 321.5 c 128,-1,28
 771 287 771 287 672 256 c 128,-1,29
 573 225 573 225 482 195.5 c 128,-1,30
 391 166 391 166 325 145 c 0,31,32
 272 124 272 124 245 129 c 128,-1,33
 218 134 218 134 210.5 148.5 c 128,-1,34
 203 163 203 163 212 185 c 128,-1,35
 221 207 221 207 242 218 c 0,0,1
EndSplineSet
EndChar
StartChar: question
Encoding: 63 63 34
Width: 1093
VWidth: 3622
Flags: W
HStem: 51 170<475.815 593.732> 1424 90<337.888 721.136>
VStem: 131 87<1041.49 1305.65> 449 170<76.7842 170.166> 496 84<414.5 509.615> 861 89<946.954 1230.9>
Fore
449 138 m 0,0,1
 449 170 449 170 475 195.5 c 128,-1,2
 501 221 501 221 536 221 c 0,3,4
 570 221 570 221 594.5 195.5 c 128,-1,5
 619 170 619 170 619 138 c 0,6,7
 619 101 619 101 594.5 76 c 128,-1,8
 570 51 570 51 536 51 c 0,9,10
 501 51 501 51 475 76 c 128,-1,11
 449 101 449 101 449 138 c 0,0,1
373 888 m 1,12,13
 276 902 276 902 203.5 971 c 128,-1,14
 131 1040 131 1040 131 1148 c 0,15,16
 131 1318 131 1318 239.5 1416 c 128,-1,17
 348 1514 348 1514 543 1514 c 0,18,19
 646 1514 646 1514 723.5 1478 c 128,-1,20
 801 1442 801 1442 850 1384.5 c 128,-1,21
 899 1327 899 1327 924.5 1254.5 c 128,-1,22
 950 1182 950 1182 950 1109 c 0,23,24
 950 989 950 989 891.5 909.5 c 128,-1,25
 833 830 833 830 764 757.5 c 128,-1,26
 695 685 695 685 637.5 607 c 128,-1,27
 580 529 580 529 580 412 c 0,28,29
 580 394 580 394 565 383.5 c 128,-1,30
 550 373 550 373 532 370 c 1,31,32
 504 380 504 380 496 414.5 c 128,-1,33
 488 449 488 449 508 532 c 0,34,35
 529 626 529 626 587.5 691.5 c 128,-1,36
 646 757 646 757 707 817 c 128,-1,37
 768 877 768 877 814.5 943.5 c 128,-1,38
 861 1010 861 1010 861 1109 c 0,39,40
 861 1231 861 1231 781.5 1327.5 c 128,-1,41
 702 1424 702 1424 547 1424 c 0,42,43
 370 1424 370 1424 294 1346 c 128,-1,44
 218 1268 218 1268 218 1148 c 0,45,46
 218 1079 218 1079 266.5 1037.5 c 128,-1,47
 315 996 315 996 373 978 c 0,48,49
 421 960 421 960 411.5 927.5 c 128,-1,50
 402 895 402 895 373 888 c 1,12,13
EndSplineSet
EndChar
StartChar: at
Encoding: 64 64 35
Width: 1859
VWidth: 3622
Flags: W
HStem: 14.5 65<694.683 1026.08 1013.88 1038.29 1038.29 1095.8 1095.8 1123.5 1130.5 1205.39> 48 72<1205.52 1265> 329 65<733.424 973.086> 1083 58<819.158 1046.69> 1387 76<690.823 1191.48>
VStem: 187 85<486.088 971.379> 543 65.5<537.72 706.942 706.942 710.092 710.092 806.25> 1558 76<733.076 1048.16>
Fore
1162 840 m 2,0,1
 1155 953 1155 953 1080.5 1014 c 128,-1,2
 1006 1075 1006 1075 927 1083 c 0,3,4
 840 1086 840 1086 781 1050 c 128,-1,5
 722 1014 722 1014 684 961.5 c 128,-1,6
 646 909 646 909 627 855 c 128,-1,7
 608 801 608 801 605 768 c 0,8,9
 601 713 601 713 608.5 652 c 128,-1,10
 616 591 616 591 645 536 c 128,-1,11
 674 481 674 481 728 441.5 c 128,-1,12
 782 402 782 402 870 394 c 0,13,14
 957 387 957 387 1029.5 420 c 128,-1,15
 1102 453 1102 453 1130 525 c 0,16,17
 1141 557 1141 557 1148 597 c 128,-1,18
 1155 637 1155 637 1162 729 c 2,19,-1
 1162 840 l 2,0,1
1558 830 m 0,20,21
 1558 950 1558 950 1512 1052.5 c 128,-1,22
 1466 1155 1466 1155 1385 1229.5 c 128,-1,23
 1304 1304 1304 1304 1189.5 1345.5 c 128,-1,24
 1075 1387 1075 1387 937 1387 c 0,25,26
 798 1387 798 1387 676 1336.5 c 128,-1,27
 554 1286 554 1286 463.5 1197.5 c 128,-1,28
 373 1109 373 1109 322.5 987 c 128,-1,29
 272 865 272 865 272 729 c 0,30,31
 272 543 272 543 360.5 396 c 128,-1,32
 449 249 449 249 601 163 c 256,33,34
 754 76 754 76 978 76 c 0,35,36
 1010 76 1010 76 1050 79.5 c 128,-1,37
 1090 83 1090 83 1130.5 90 c 128,-1,38
 1171 97 1171 97 1206.5 104 c 128,-1,39
 1242 111 1242 111 1265 120 c 1,40,41
 1289 111 1289 111 1293 88 c 128,-1,42
 1297 65 1297 65 1258 48 c 0,43,44
 1196 25 1196 25 1123.5 14.5 c 128,-1,45
 1051 4 1051 4 978 4 c 0,46,47
 805 4 805 4 660 57.5 c 128,-1,48
 515 111 515 111 409.5 207.5 c 128,-1,49
 304 304 304 304 245.5 438.5 c 128,-1,50
 187 573 187 573 187 732 c 0,51,52
 187 884 187 884 245.5 1017.5 c 128,-1,53
 304 1151 304 1151 406 1251 c 128,-1,54
 508 1351 508 1351 646.5 1407 c 128,-1,55
 785 1463 785 1463 946 1463 c 0,56,57
 1090 1463 1090 1463 1217 1414.5 c 128,-1,58
 1344 1366 1344 1366 1436 1281 c 128,-1,59
 1528 1196 1528 1196 1581 1080 c 128,-1,60
 1634 964 1634 964 1634 830 c 0,61,62
 1634 739 1634 739 1612 637.5 c 128,-1,63
 1590 536 1590 536 1545 456.5 c 128,-1,64
 1500 377 1500 377 1429 335.5 c 128,-1,65
 1358 294 1358 294 1261 318 c 1,66,67
 1220 315 1220 315 1193 349.5 c 128,-1,68
 1166 384 1166 384 1148 428 c 1,69,70
 1109 366 1109 366 1033 344 c 128,-1,71
 957 322 957 322 870 329 c 0,72,73
 754 336 754 336 686.5 384 c 128,-1,74
 619 432 619 432 584.5 498 c 128,-1,75
 550 564 550 564 543 638.5 c 128,-1,76
 536 713 536 713 539 775 c 0,77,78
 543 822 543 822 565 887.5 c 128,-1,79
 587 953 587 953 632 1010.5 c 128,-1,80
 677 1068 677 1068 749.5 1108 c 128,-1,81
 822 1148 822 1148 927 1141 c 0,82,83
 1010 1134 1010 1134 1070 1099.5 c 128,-1,84
 1130 1065 1130 1065 1185 989 c 1,85,-1
 1199 1083 l 1,86,87
 1210 1116 1210 1116 1248 1107 c 128,-1,88
 1286 1098 1286 1098 1286 1079 c 1,89,90
 1272 1040 1272 1040 1259.5 950.5 c 128,-1,91
 1247 861 1247 861 1238 768 c 0,92,93
 1224 656 1224 656 1217 529 c 0,94,95
 1210 456 1210 456 1234 423.5 c 128,-1,96
 1258 391 1258 391 1286 384 c 0,97,98
 1362 370 1362 370 1414 416.5 c 128,-1,99
 1466 463 1466 463 1497 537.5 c 128,-1,100
 1528 612 1528 612 1543 693.5 c 128,-1,101
 1558 775 1558 775 1558 830 c 0,20,21
EndSplineSet
EndChar
StartChar: A
Encoding: 65 65 36
Width: 1358
VWidth: 3622
Flags: W
HStem: 421 76<384 888.149> 421 60<512.851 1017 1127 1172.6> 1394 88<684.521 733.144>
Fore
1159 481 m 1,0,1
 1171 478 1171 478 1178 468 c 128,-1,2
 1185 458 1185 458 1185 447.5 c 128,-1,3
 1185 437 1185 437 1178 429 c 128,-1,4
 1171 421 1171 421 1155 421 c 2,5,-1
 1127 421 l 1,6,-1
 1228 51 l 1,7,8
 1224 21 1224 21 1190 19 c 0,9,10
 1159 18 1159 18 1151 35 c 2,11,-1
 1054 421 l 1,12,-1
 359 421 l 1,13,-1
 242 44 l 1,14,15
 233 28 233 28 220 21 c 128,-1,16
 207 14 207 14 193.5 15 c 128,-1,17
 180 16 180 16 172 24 c 128,-1,18
 164 32 164 32 166 48 c 1,19,-1
 301 488 l 1,20,-1
 453 934 l 2,21,22
 495 1063 495 1063 529.5 1164.5 c 128,-1,23
 564 1266 564 1266 595 1337 c 128,-1,24
 626 1408 626 1408 654.5 1445 c 128,-1,25
 683 1482 683 1482 713 1482 c 0,26,27
 771 1482 771 1482 828 1334 c 0,28,29
 856 1259 856 1259 891.5 1157.5 c 128,-1,30
 927 1056 927 1056 968 927 c 0,31,32
 999 831 999 831 1035.5 718 c 128,-1,33
 1072 605 1072 605 1116 481 c 1,34,-1
 1159 481 l 1,0,1
1017 488 m 1,35,36
 999 545 999 545 971 634 c 128,-1,37
 943 723 943 723 911 824 c 128,-1,38
 879 925 879 925 846.5 1026 c 128,-1,39
 814 1127 814 1127 785.5 1209 c 128,-1,40
 757 1291 757 1291 736.5 1342.5 c 128,-1,41
 716 1394 716 1394 709 1394 c 256,42,43
 702 1394 702 1394 675.5 1327.5 c 128,-1,44
 649 1261 649 1261 613.5 1161 c 128,-1,45
 578 1061 578 1061 538.5 945.5 c 128,-1,46
 499 830 499 830 463 729 c 0,47,48
 442 660 442 660 420 594.5 c 128,-1,49
 398 529 398 529 384 497 c 1,50,-1
 1017 488 l 1,35,36
EndSplineSet
EndChar
StartChar: B
Encoding: 66 66 37
Width: 1216
VWidth: 3622
Flags: W
HStem: 55 62<235 338.746 338.746 363.389 363.389 666.305> 55 79<101 159 496.887 862.023> 706 69<422 447.6 447.6 522 522 668.779> 1410 60<363.582 657.98>
VStem: 188 47<139.754 518 518 736.887> 196 78<139.754 518 518 662.143 662.143 1008.06 1008.06 1030.18 1030.18 1300.93> 1006 66<238.925 373 373 545.098> 1029 64<980.783 1224.03>
Fore
101 55 m 1,0,1
 62 62 62 62 63.5 94.5 c 128,-1,2
 65 127 65 127 101 134 c 1,3,-1
 163 134 l 1,4,5
 180 318 180 318 188 518 c 128,-1,6
 196 718 196 718 196 906 c 0,7,8
 196 1010 196 1010 194.5 1110 c 128,-1,9
 193 1210 193 1210 187 1307 c 1,10,11
 177 1307 177 1307 159.5 1305.5 c 128,-1,12
 142 1304 142 1304 131 1304 c 1,13,14
 104 1323 104 1323 115.5 1349.5 c 128,-1,15
 127 1376 127 1376 177 1394 c 0,16,17
 269 1431 269 1431 366 1450.5 c 128,-1,18
 463 1470 463 1470 561 1470 c 0,19,20
 667 1470 667 1470 762.5 1447 c 128,-1,21
 858 1424 858 1424 932 1377 c 128,-1,22
 1006 1330 1006 1330 1049.5 1254 c 128,-1,23
 1093 1178 1093 1178 1093 1075 c 0,24,25
 1093 1022 1093 1022 1068.5 967.5 c 128,-1,26
 1044 913 1044 913 1000.5 866 c 128,-1,27
 957 819 957 819 900.5 784.5 c 128,-1,28
 844 750 844 750 785 736 c 1,29,30
 913 702 913 702 996 603 c 128,-1,31
 1079 504 1079 504 1072 377 c 0,32,33
 1065 225 1065 225 976.5 156 c 128,-1,34
 888 87 888 87 760.5 64 c 128,-1,35
 633 41 633 41 492.5 48 c 128,-1,36
 352 55 352 55 235 55 c 1,37,38
 225 14 225 14 194 14 c 128,-1,39
 163 14 163 14 159 55 c 1,40,-1
 101 55 l 1,0,1
269 1362 m 1,41,42
 276 1054 276 1054 274 746.5 c 128,-1,43
 272 439 272 439 235 117 c 1,44,45
 315 120 315 120 444 114 c 128,-1,46
 573 108 573 108 697.5 125 c 128,-1,47
 822 142 822 142 912.5 195.5 c 128,-1,48
 1003 249 1003 249 1006 373 c 0,49,50
 1010 543 1010 543 882 622.5 c 128,-1,51
 754 702 754 702 529 706 c 2,52,-1
 456 706 l 2,53,54
 409 706 409 706 409 743 c 0,55,56
 409 768 409 768 422 771.5 c 128,-1,57
 435 775 435 775 474 775 c 0,58,59
 488 775 488 775 505 775 c 128,-1,60
 522 775 522 775 539 778 c 2,61,62
 630 775 630 775 719 793.5 c 128,-1,63
 808 812 808 812 877 848 c 128,-1,64
 946 884 946 884 987.5 941.5 c 128,-1,65
 1029 999 1029 999 1029 1075 c 0,66,67
 1029 1162 1029 1162 985 1225.5 c 128,-1,68
 941 1289 941 1289 871 1331 c 128,-1,69
 801 1373 801 1373 712 1391.5 c 128,-1,70
 623 1410 623 1410 532 1410 c 0,71,72
 373 1410 373 1410 265 1358 c 1,73,-1
 269 1362 l 1,41,42
EndSplineSet
EndChar
StartChar: C
Encoding: 67 67 38
Width: 1430
VWidth: 3622
Flags: W
HStem: -4 77<559.756 1000.83> 1406 76<575.258 874.969>
VStem: 104 73<420.622 964.1> 1222 71<1272 1302.93 1302.93 1316.91 1316.91 1401.28 1401.28 1440 1440 1452> 1289 80<275.554 539.768>
Fore
1293 1452 m 1,0,-1
 1293 1334 l 2,1,2
 1293 1282 1293 1282 1291 1233.5 c 128,-1,3
 1289 1185 1289 1185 1286 1155 c 0,4,5
 1279 1127 1279 1127 1255 1127 c 128,-1,6
 1231 1127 1231 1127 1213 1144 c 0,7,8
 1159 1210 1159 1210 1110 1257 c 128,-1,9
 1061 1304 1061 1304 1014.5 1336.5 c 128,-1,10
 968 1369 968 1369 916.5 1387.5 c 128,-1,11
 865 1406 865 1406 805 1406 c 0,12,13
 685 1410 685 1410 570.5 1360.5 c 128,-1,14
 456 1311 456 1311 369.5 1217 c 128,-1,15
 283 1123 283 1123 230 987 c 128,-1,16
 177 851 177 851 177 681 c 256,17,18
 177 511 177 511 232 395 c 128,-1,19
 287 279 287 279 373.5 206.5 c 128,-1,20
 460 134 460 134 567 103.5 c 128,-1,21
 674 73 674 73 775 73 c 0,22,23
 978 73 978 73 1114.5 172.5 c 128,-1,24
 1251 272 1251 272 1289 497 c 0,25,26
 1297 536 1297 536 1335 534 c 128,-1,27
 1373 532 1373 532 1369 488 c 0,28,29
 1351 356 1351 356 1299 261 c 128,-1,30
 1247 166 1247 166 1166.5 108.5 c 128,-1,31
 1086 51 1086 51 987 23.5 c 128,-1,32
 888 -4 888 -4 775 -4 c 0,33,34
 663 -4 663 -4 545.5 30.5 c 128,-1,35
 428 65 428 65 330 146.5 c 128,-1,36
 232 228 232 228 168 356.5 c 128,-1,37
 104 485 104 485 104 677 c 0,38,39
 104 865 104 865 162.5 1015.5 c 128,-1,40
 221 1166 221 1166 319 1269.5 c 128,-1,41
 417 1373 417 1373 543.5 1427.5 c 128,-1,42
 670 1482 670 1482 805 1482 c 0,43,44
 927 1482 927 1482 1028.5 1420 c 128,-1,45
 1130 1358 1130 1358 1220 1272 c 1,46,47
 1220 1314 1220 1314 1222 1362 c 128,-1,48
 1224 1410 1224 1410 1224 1440 c 128,-1,49
 1224 1470 1224 1470 1256.5 1472.5 c 128,-1,50
 1289 1475 1289 1475 1293 1452 c 1,0,-1
EndSplineSet
EndChar
StartChar: D
Encoding: 68 68 39
Width: 1399
VWidth: 3622
Flags: W
HStem: 11 76<398 706.309> 1373 79<201.09 283 359 658.858> 1462 20G<303.25 335.75>
VStem: 287 72<1139.09 1373> 325 73<87 323.912> 1210 90<512.406 969.49>
Fore
287 1373 m 1,0,1
 196 1371 196 1371 184.5 1397.5 c 128,-1,2
 173 1424 173 1424 193.5 1440.5 c 128,-1,3
 214 1457 214 1457 283 1452 c 1,4,5
 287 1482 287 1482 319.5 1482 c 128,-1,6
 352 1482 352 1482 359 1452 c 1,7,8
 543 1449 543 1449 710 1407.5 c 128,-1,9
 877 1366 877 1366 1003.5 1282.5 c 128,-1,10
 1130 1199 1130 1199 1209.5 1066.5 c 128,-1,11
 1289 934 1289 934 1300 754 c 0,12,13
 1297 580 1297 580 1226 440.5 c 128,-1,14
 1155 301 1155 301 1034 204.5 c 128,-1,15
 913 108 913 108 745 57.5 c 128,-1,16
 577 7 577 7 377 11 c 0,17,18
 336 11 336 11 294.5 12.5 c 128,-1,19
 253 14 253 14 218 21 c 0,20,21
 187 25 187 25 185.5 59.5 c 128,-1,22
 184 94 184 94 210 97 c 1,23,-1
 325 83 l 1,24,-1
 287 1373 l 1,0,1
398 87 m 1,25,26
 561 80 561 80 711 128.5 c 128,-1,27
 861 177 861 177 973.5 268 c 128,-1,28
 1086 359 1086 359 1151.5 483.5 c 128,-1,29
 1217 608 1217 608 1210 750 c 0,30,31
 1203 927 1203 927 1127 1044.5 c 128,-1,32
 1051 1162 1051 1162 931.5 1234.5 c 128,-1,33
 812 1307 812 1307 663.5 1340 c 128,-1,34
 515 1373 515 1373 359 1376 c 1,35,-1
 398 87 l 1,25,26
EndSplineSet
EndChar
StartChar: E
Encoding: 69 69 40
Width: 1112
VWidth: 3622
Flags: W
HStem: 39.5 52.5<516.812 542.25 542.25 690.665 690.665 737.035 737.035 882.865> 47.5 79.5<113.5 147.5 147.5 155.055 253.897 423.696> 729 74<148.838 210 289.038 535.85 535.85 624.304 624.304 700.885 700.885 775 775 780.151 780.151 808.407 808.407 833 840 859.324> 1369 69<159.619 207 283 320.781 320.781 362.791 362.791 437.5 485.5 560.123 560.123 590.85 590.85 787.823 787.823 794.039 794.039 979.928>
VStem: 210 77<591.434 729 808 848.456 848.456 912.608 912.608 959.45 959.45 1111.82 1111.82 1285.61 1285.61 1304.57 1304.57 1369>
Fore
166 111 m 1,0,1
 187 253 187 253 195 408.5 c 128,-1,2
 203 564 203 564 210 729 c 1,3,-1
 159 736 l 2,4,5
 142 736 142 736 129.5 746.5 c 128,-1,6
 117 757 117 757 127 775 c 0,7,8
 138 794 138 794 148.5 799.5 c 128,-1,9
 159 805 159 805 210 801 c 1,10,11
 210 833 210 833 214 891.5 c 128,-1,12
 218 950 218 950 218 1028 c 128,-1,13
 218 1106 218 1106 216 1196 c 128,-1,14
 214 1286 214 1286 207 1380 c 1,15,16
 163 1376 163 1376 159.5 1407 c 128,-1,17
 156 1438 156 1438 207 1438 c 0,18,19
 311 1445 311 1445 437.5 1447 c 128,-1,20
 564 1449 564 1449 682.5 1447 c 128,-1,21
 801 1445 801 1445 893 1439.5 c 128,-1,22
 985 1434 985 1434 1017 1427 c 0,23,24
 1044 1420 1044 1420 1036.5 1393 c 128,-1,25
 1029 1366 1029 1366 999 1362 c 1,26,27
 960 1366 960 1366 879 1369.5 c 128,-1,28
 798 1373 798 1373 696 1376.5 c 128,-1,29
 594 1380 594 1380 485.5 1378 c 128,-1,30
 377 1376 377 1376 283 1369 c 1,31,32
 287 1297 287 1297 287 1201.5 c 128,-1,33
 287 1106 287 1106 287 1017 c 0,34,35
 287 916 287 916 283 808 c 1,36,37
 336 805 336 805 405 805 c 128,-1,38
 474 805 474 805 550 805 c 128,-1,39
 626 805 626 805 698.5 803 c 128,-1,40
 771 801 771 801 833 794 c 0,41,42
 854 789 854 789 859.5 759 c 128,-1,43
 865 729 865 729 840 729 c 2,44,45
 837 722 837 722 775 725.5 c 128,-1,46
 713 729 713 729 626 730.5 c 128,-1,47
 539 732 539 732 445.5 734 c 128,-1,48
 352 736 352 736 287 729 c 1,49,50
 287 667 287 667 281.5 589 c 128,-1,51
 276 511 276 511 270.5 429.5 c 128,-1,52
 265 348 265 348 259 267.5 c 128,-1,53
 253 187 253 187 253 127 c 1,54,55
 356 120 356 120 439 110.5 c 128,-1,56
 522 101 522 101 605 95.5 c 128,-1,57
 688 90 688 90 776.5 92 c 128,-1,58
 865 94 865 94 975 111 c 1,59,60
 996 111 996 111 1011 100.5 c 128,-1,61
 1026 90 1026 90 1026 80 c 0,62,63
 1026 55 1026 55 971 43.5 c 128,-1,64
 916 32 916 32 831 28.5 c 128,-1,65
 746 25 746 25 642.5 30 c 128,-1,66
 539 35 539 35 442 39.5 c 128,-1,67
 345 44 345 44 266 47.5 c 128,-1,68
 187 51 187 51 147.5 47.5 c 128,-1,69
 108 44 108 44 101 60 c 128,-1,70
 94 76 94 76 94 97 c 0,71,72
 94 120 94 120 113.5 122 c 128,-1,73
 133 124 133 124 166 111 c 1,0,1
EndSplineSet
EndChar
StartChar: F
Encoding: 70 70 41
Width: 1075
VWidth: 3622
Flags: W
HStem: 688 88.5<308 335.931 335.931 473.52 614.278 843.261> 704 72.5<366.473 473.265 473.265 543.604 543.604 729.623> 1366 68<67.0706 196 730.979 867.5 916.5 927.663> 1376 73<279 360.62 360.62 410.434 410.434 567.877 567.877 634.946 634.946 839.156>
VStem: 67 947<1400 1429.56 1390 1400 1468.1 1654.12> 203 85<35 230.187> 226.5 81.5<211.997 331.569 331.569 535.058 535.058 692 768 925.304 925.304 985.268 985.268 1082.5 1094 1217.2>
Fore
90 725 m 1,0,-1
 228 750 l 1,1,2
 228 934 228 934 219 1094 c 128,-1,3
 210 1254 210 1254 203 1369 c 1,4,-1
 104 1366 l 2,5,6
 69 1366 69 1366 67 1400 c 128,-1,7
 65 1434 65 1434 104 1434 c 2,8,-1
 196 1438 l 1,9,-1
 187 1511 l 2,10,11
 187 1532 187 1532 200.5 1541.5 c 128,-1,12
 214 1551 214 1551 228 1548.5 c 128,-1,13
 242 1546 242 1546 255.5 1532 c 128,-1,14
 269 1518 269 1518 269 1496 c 1,15,-1
 279 1449 l 1,16,17
 325 1449 325 1449 444.5 1454 c 128,-1,18
 564 1459 564 1459 691.5 1457.5 c 128,-1,19
 819 1456 819 1456 916.5 1441.5 c 128,-1,20
 1014 1427 1014 1427 1014 1390 c 0,21,22
 1014 1366 1014 1366 982 1351 c 1,23,24
 927 1362 927 1362 867.5 1367.5 c 128,-1,25
 808 1373 808 1373 728.5 1376.5 c 128,-1,26
 649 1380 649 1380 540.5 1380 c 128,-1,27
 432 1380 432 1380 279 1376 c 1,28,29
 294 1238 294 1238 301 1082.5 c 128,-1,30
 308 927 308 927 308 768 c 1,31,32
 318 768 318 768 365 771.5 c 128,-1,33
 412 775 412 775 475.5 776.5 c 128,-1,34
 539 778 539 778 612 780 c 128,-1,35
 685 782 685 782 745 776.5 c 128,-1,36
 805 771 805 771 844.5 758.5 c 128,-1,37
 884 746 884 746 884 725 c 0,38,39
 884 688 884 688 851 688 c 0,40,41
 722 699 722 699 591 704 c 128,-1,42
 460 709 460 709 308 692 c 1,43,44
 308 561 308 561 308 439.5 c 128,-1,45
 308 318 308 318 302.5 224.5 c 128,-1,46
 297 131 297 131 288 72.5 c 128,-1,47
 279 14 279 14 256 14 c 0,48,49
 239 14 239 14 223 14 c 128,-1,50
 207 14 207 14 203 35 c 1,51,52
 225 228 225 228 226.5 378.5 c 128,-1,53
 228 529 228 529 228 692 c 1,54,55
 187 677 187 677 153.5 665 c 128,-1,56
 120 653 120 653 101 653 c 0,57,58
 73 653 73 653 73 685.5 c 128,-1,59
 73 718 73 718 94 725 c 1,60,-1
 90 725 l 1,0,-1
EndSplineSet
EndChar
StartChar: G
Encoding: 71 71 42
Width: 1517
VWidth: 3622
Flags: W
HStem: 7 76<541.689 1000.78> 633 66<1084.73 1168.65 1168.65 1191.88 1214.26 1231 1311 1342.97 1342.97 1394.35> 1351 80<533.201 899.916>
VStem: 104 89<466.832 973.45> 1231 80<496.262 619> 1270 53<1224.13 1281.84 1281.84 1292.2 1292.2 1334 1334 1361.99>
Fore
1366 695 m 0,0,1
 1399 692 1399 692 1394.5 662.5 c 128,-1,2
 1390 633 1390 633 1366 633 c 2,3,-1
 1311 633 l 1,4,5
 1314 529 1314 529 1291 416.5 c 128,-1,6
 1268 304 1268 304 1208 214 c 128,-1,7
 1148 124 1148 124 1042.5 65.5 c 128,-1,8
 937 7 937 7 782 7 c 0,9,10
 619 7 619 7 494.5 67 c 128,-1,11
 370 127 370 127 283 226 c 128,-1,12
 196 325 196 325 150 454.5 c 128,-1,13
 104 584 104 584 104 725 c 0,14,15
 104 861 104 861 150 988.5 c 128,-1,16
 196 1116 196 1116 281 1213.5 c 128,-1,17
 366 1311 366 1311 483.5 1369 c 128,-1,18
 601 1427 601 1427 743 1431 c 0,19,20
 891 1434 891 1434 1007 1396 c 128,-1,21
 1123 1358 1123 1358 1251 1224 c 1,22,23
 1268 1228 1268 1228 1270 1251.5 c 128,-1,24
 1272 1275 1272 1275 1265 1334 c 0,25,26
 1261 1362 1261 1362 1292 1362 c 128,-1,27
 1323 1362 1323 1362 1323 1341 c 1,28,29
 1334 1272 1334 1272 1322.5 1211.5 c 128,-1,30
 1311 1151 1311 1151 1275 1155 c 1,31,32
 1228 1148 1228 1148 1191.5 1177 c 128,-1,33
 1155 1206 1155 1206 1116 1242 c 0,34,35
 1054 1297 1054 1297 976.5 1326 c 128,-1,36
 899 1355 899 1355 739 1351 c 0,37,38
 626 1351 626 1351 527 1304.5 c 128,-1,39
 428 1258 428 1258 353.5 1174 c 128,-1,40
 279 1090 279 1090 236 974 c 128,-1,41
 193 858 193 858 193 725 c 0,42,43
 193 587 193 587 232.5 471.5 c 128,-1,44
 272 356 272 356 346.5 268 c 128,-1,45
 421 180 421 180 530.5 131.5 c 128,-1,46
 640 83 640 83 782 83 c 0,47,48
 913 83 913 83 999.5 124.5 c 128,-1,49
 1086 166 1086 166 1139 238.5 c 128,-1,50
 1192 311 1192 311 1211.5 409.5 c 128,-1,51
 1231 508 1231 508 1231 619 c 1,52,53
 1238 619 1238 619 1213.5 621 c 128,-1,54
 1189 623 1189 623 1113 630 c 0,55,56
 1090 633 1090 633 1079 646.5 c 128,-1,57
 1068 660 1068 660 1070 672.5 c 128,-1,58
 1072 685 1072 685 1081 695.5 c 128,-1,59
 1090 706 1090 706 1109 706 c 0,60,61
 1189 699 1189 699 1227 699 c 128,-1,62
 1265 699 1265 699 1286 699 c 128,-1,63
 1307 699 1307 699 1320.5 699 c 128,-1,64
 1334 699 1334 699 1366 695 c 0,0,1
EndSplineSet
EndChar
StartChar: H
Encoding: 72 72 43
Width: 1383
VWidth: 3622
Flags: W
HStem: 612 76<322 705 705 707.5 707.5 1093 1171 1254 1258 1292.39> 633 69<117.708 239>
VStem: 1061 80<1289.4 1485.88> 1102 69<40.7651 340.5 340.5 612 688 861.6>
Fore
249 699 m 1,0,-1
 311 1463 l 2,1,2
 315 1486 315 1486 330 1493 c 128,-1,3
 345 1500 345 1500 361 1498 c 128,-1,4
 377 1496 377 1496 387.5 1485.5 c 128,-1,5
 398 1475 398 1475 394 1459 c 2,6,-1
 322 699 l 1,7,-1
 1093 688 l 1,8,-1
 1061 1463 l 2,9,10
 1061 1482 1061 1482 1073.5 1491 c 128,-1,11
 1086 1500 1086 1500 1103 1500 c 128,-1,12
 1120 1500 1120 1500 1132 1491 c 128,-1,13
 1144 1482 1144 1482 1141 1466 c 1,14,-1
 1171 688 l 1,15,-1
 1254 685 l 2,16,17
 1293 681 1293 681 1293 646.5 c 128,-1,18
 1293 612 1293 612 1258 612 c 2,19,-1
 1171 612 l 1,20,-1
 1182 69 l 2,21,22
 1182 48 1182 48 1170.5 34.5 c 128,-1,23
 1159 21 1159 21 1143 17.5 c 128,-1,24
 1127 14 1127 14 1114.5 19.5 c 128,-1,25
 1102 25 1102 25 1102 48 c 2,26,-1
 1102 612 l 1,27,-1
 308 626 l 1,28,-1
 269 25 l 1,29,30
 260 0 260 0 223.5 5.5 c 128,-1,31
 187 11 187 11 196 35 c 1,32,-1
 239 630 l 1,33,-1
 149 633 l 1,34,35
 111 640 111 640 117.5 671 c 128,-1,36
 124 702 124 702 152 702 c 2,37,-1
 249 699 l 1,0,-1
EndSplineSet
EndChar
StartChar: I
Encoding: 73 73 44
Width: 804
VWidth: 3622
Flags: W
HStem: 21 66<90 148.608 148.608 376.089 539.044 674 674 757.384> 1394 76.5<64.5037 111 146.5 251.881 251.881 281.646 281.646 385.815 385.815 417.617 494.295 540.942 540.942 647.334 647.334 672.853 672.853 756.654>
VStem: 394.5 63.5<117.784 342.725 342.725 345.096 345.096 469.5 471 687.885> 403.5 72.5<534.656 939.847> 413 71.5<802.94 1014 1021 1130.43 1130.43 1318.92 1318.92 1322.68 1322.68 1390>
Fore
377 94 m 1,0,1
 380 138 380 138 385.5 239.5 c 128,-1,2
 391 341 391 341 394.5 469.5 c 128,-1,3
 398 598 398 598 403.5 741 c 128,-1,4
 409 884 409 884 413 1014 c 128,-1,5
 417 1144 417 1144 419 1246 c 128,-1,6
 421 1348 421 1348 421 1390 c 1,7,8
 380 1394 380 1394 351 1394 c 128,-1,9
 322 1394 322 1394 289 1394 c 128,-1,10
 256 1394 256 1394 214.5 1392 c 128,-1,11
 173 1390 173 1390 111 1387 c 0,12,13
 80 1383 80 1383 64 1398 c 128,-1,14
 48 1413 48 1413 55 1431 c 1,15,16
 58 1449 58 1449 146.5 1457.5 c 128,-1,17
 235 1466 235 1466 347.5 1470.5 c 128,-1,18
 460 1475 460 1475 570.5 1470.5 c 128,-1,19
 681 1466 681 1466 732 1459 c 0,20,21
 768 1452 768 1452 757 1421 c 128,-1,22
 746 1390 746 1390 725 1390 c 0,23,24
 630 1399 630 1399 588.5 1399 c 128,-1,25
 547 1399 547 1399 493 1394 c 1,26,27
 493 1351 493 1351 490.5 1251 c 128,-1,28
 488 1151 488 1151 484.5 1021 c 128,-1,29
 481 891 481 891 476 746 c 128,-1,30
 471 601 471 601 467 471 c 128,-1,31
 463 341 463 341 458 239.5 c 128,-1,32
 453 138 453 138 449 94 c 1,33,34
 488 87 488 87 537.5 83.5 c 128,-1,35
 587 80 587 80 626 80 c 0,36,37
 674 76 674 76 722 80 c 1,38,39
 761 76 761 76 757.5 43.5 c 128,-1,40
 754 11 754 11 722 11 c 2,41,-1
 90 21 l 1,42,43
 58 32 58 32 65.5 61 c 128,-1,44
 73 90 73 90 90 90 c 0,45,46
 152 87 152 87 207 87 c 0,47,48
 253 87 253 87 300.5 87 c 128,-1,49
 348 87 348 87 377 94 c 1,0,1
EndSplineSet
EndChar
StartChar: J
Encoding: 74 74 45
Width: 1017
VWidth: 3622
Flags: W
HStem: 4 69<387.543 568.765> 1383 76<605.354 717.638 717.638 723.815 723.815 796.789 877 941.827 941.827 960.219 960.219 1057.77>
VStem: 51 69<281.374 565.351> 798 67<562.922 646.458 646.458 854.727 854.727 870.85 870.85 1059.45 1059.45 1075.73 1075.73 1281.91 1281.91 1291.57 1291.57 1387>
Fore
877 1387 m 1,0,1
 870 1268 870 1268 867.5 1163 c 128,-1,2
 865 1058 865 1058 865 956 c 128,-1,3
 865 854 865 854 867.5 753.5 c 128,-1,4
 870 653 870 653 865 539 c 0,5,6
 861 394 861 394 827.5 293.5 c 128,-1,7
 794 193 794 193 739.5 127.5 c 128,-1,8
 685 62 685 62 614 33 c 128,-1,9
 543 4 543 4 474 4 c 0,10,11
 409 4 409 4 332.5 22.5 c 128,-1,12
 256 41 256 41 191.5 96.5 c 128,-1,13
 127 152 127 152 87.5 254 c 128,-1,14
 48 356 48 356 51 522 c 0,15,16
 51 570 51 570 85.5 565.5 c 128,-1,17
 120 561 120 561 120 522 c 0,18,19
 120 370 120 370 153.5 278.5 c 128,-1,20
 187 187 187 187 242 142 c 128,-1,21
 297 97 297 97 357 85 c 128,-1,22
 417 73 417 73 467 73 c 0,23,24
 525 73 525 73 579 98.5 c 128,-1,25
 633 124 633 124 679 178 c 128,-1,26
 725 232 725 232 753.5 320.5 c 128,-1,27
 782 409 782 409 789 536 c 0,28,29
 798 660 798 660 798 767 c 128,-1,30
 798 874 798 874 796 974.5 c 128,-1,31
 794 1075 794 1075 791.5 1177 c 128,-1,32
 789 1279 789 1279 798 1387 c 1,33,34
 722 1387 722 1387 637 1383 c 0,35,36
 601 1380 601 1380 596 1403.5 c 128,-1,37
 591 1427 591 1427 605 1442 c 0,38,39
 616 1452 616 1452 667 1455.5 c 128,-1,40
 718 1459 718 1459 781 1459 c 128,-1,41
 844 1459 844 1459 909.5 1457.5 c 128,-1,42
 975 1456 975 1456 1010 1452 c 0,43,44
 1051 1449 1051 1449 1058 1438 c 128,-1,45
 1065 1427 1065 1427 1058 1410 c 0,46,47
 1051 1387 1051 1387 1005.5 1388.5 c 128,-1,48
 960 1390 960 1390 877 1387 c 1,0,1
EndSplineSet
EndChar
StartChar: K
Encoding: 75 75 46
Width: 1216
VWidth: 3622
Flags: W
VStem: 193 83<45.4092 80 83 290.133 290.133 420.5 420.5 623.535 623.535 761 851 963.478 963.478 1284.72 1284.72 1292.88 1292.88 1459.8>
Fore
359 801 m 1,0,1
 366 768 366 768 435 690 c 128,-1,2
 504 612 504 612 613 514.5 c 128,-1,3
 722 417 722 417 857 308.5 c 128,-1,4
 992 200 992 200 1137 101 c 0,5,6
 1151 90 1151 90 1151 76 c 128,-1,7
 1151 62 1151 62 1144 48.5 c 128,-1,8
 1137 35 1137 35 1121.5 30 c 128,-1,9
 1106 25 1106 25 1090 41 c 1,10,11
 941 145 941 145 827 231.5 c 128,-1,12
 713 318 713 318 619 401.5 c 128,-1,13
 525 485 525 485 444 572.5 c 128,-1,14
 363 660 363 660 276 761 c 1,15,-1
 265 80 l 1,16,17
 260 55 260 55 246 41.5 c 128,-1,18
 232 28 232 28 217.5 30 c 128,-1,19
 203 32 203 32 190 45 c 128,-1,20
 177 58 177 58 180 83 c 0,21,22
 184 301 184 301 188.5 480.5 c 128,-1,23
 193 660 193 660 193 822.5 c 128,-1,24
 193 985 193 985 193 1137 c 128,-1,25
 193 1289 193 1289 187 1449 c 0,26,27
 187 1463 187 1463 200.5 1471 c 128,-1,28
 214 1479 214 1479 228 1477 c 128,-1,29
 242 1475 242 1475 255.5 1465.5 c 128,-1,30
 269 1456 269 1456 269 1442 c 0,31,32
 265 1268 265 1268 267 1128.5 c 128,-1,33
 269 989 269 989 276 851 c 1,34,35
 481 985 481 985 660 1106 c 0,36,37
 736 1155 736 1155 812 1208 c 128,-1,38
 888 1261 888 1261 952.5 1308 c 128,-1,39
 1017 1355 1017 1355 1068.5 1393 c 128,-1,40
 1120 1431 1120 1431 1144 1456 c 1,41,42
 1178 1475 1178 1475 1192 1440.5 c 128,-1,43
 1206 1406 1206 1406 1189 1390 c 0,44,45
 1159 1362 1159 1362 1110 1322 c 128,-1,46
 1061 1282 1061 1282 995.5 1237 c 128,-1,47
 930 1192 930 1192 857.5 1139 c 128,-1,48
 785 1086 785 1086 718 1040 c 0,49,50
 550 923 550 923 359 801 c 1,0,1
EndSplineSet
EndChar
StartChar: L
Encoding: 76 76 47
Width: 1047
VWidth: 3622
Flags: W
HStem: 25 76<338.979 538.154 538.154 598 598 675.688> 76 83<887.5 952.015>
Fore
200 359 m 0,0,1
 196 304 196 304 203 255.5 c 128,-1,2
 210 207 210 207 239.5 169 c 128,-1,3
 269 131 269 131 323 112.5 c 128,-1,4
 377 94 377 94 471 101 c 0,5,6
 573 108 573 108 679 125 c 128,-1,7
 785 142 785 142 920 159 c 0,8,9
 937 163 937 163 952.5 154 c 128,-1,10
 968 145 968 145 973 128 c 128,-1,11
 978 111 978 111 969 95.5 c 128,-1,12
 960 80 960 80 934 76 c 0,13,14
 861 65 861 65 807.5 56.5 c 128,-1,15
 754 48 754 48 703.5 40 c 128,-1,16
 653 32 653 32 598 28.5 c 128,-1,17
 543 25 543 25 478 25 c 0,18,19
 384 25 384 25 316.5 33 c 128,-1,20
 249 41 249 41 207.5 74.5 c 128,-1,21
 166 108 166 108 146.5 184 c 128,-1,22
 127 260 127 260 127 402 c 0,23,24
 134 633 134 633 146.5 825 c 128,-1,25
 159 1017 159 1017 177 1159 c 0,26,27
 196 1323 196 1323 218 1456 c 0,28,29
 221 1470 221 1470 233.5 1479.5 c 128,-1,30
 246 1489 246 1489 262.5 1487.5 c 128,-1,31
 279 1486 279 1486 290 1474.5 c 128,-1,32
 301 1463 301 1463 297 1445 c 0,33,34
 246 1174 246 1174 230 895 c 128,-1,35
 214 616 214 616 200 359 c 0,0,1
EndSplineSet
EndChar
StartChar: M
Encoding: 77 77 48
Width: 1690
VWidth: 3622
Flags: W
HStem: 11 21G<226.75 252.25> 1410 79<367.676 482.01 1297 1313.19>
VStem: 196 80<32 251.977 251.977 558 558 992.532> 1385 64<57.9244 240.5 240.5 388.25 388.25 536 630.5 842.641> 1394 81<11 189.928>
Fore
1475 48 m 0,0,1
 1479 18 1479 18 1467.5 9 c 128,-1,2
 1456 0 1456 0 1438 0 c 256,3,4
 1420 0 1420 0 1394 11 c 1,5,6
 1390 101 1390 101 1385 240.5 c 128,-1,7
 1380 380 1380 380 1374.5 536 c 128,-1,8
 1369 692 1369 692 1360 847.5 c 128,-1,9
 1351 1003 1351 1003 1340.5 1128.5 c 128,-1,10
 1330 1254 1330 1254 1318.5 1330 c 128,-1,11
 1307 1406 1307 1406 1297 1406 c 1,12,13
 1228 1394 1228 1394 1157 1303.5 c 128,-1,14
 1086 1213 1086 1213 1025 1086.5 c 128,-1,15
 964 960 964 960 920.5 817 c 128,-1,16
 877 674 877 674 865 557 c 0,17,18
 861 518 861 518 833 518 c 128,-1,19
 805 518 805 518 798 547 c 0,20,21
 778 653 778 653 736.5 801.5 c 128,-1,22
 695 950 695 950 639.5 1085 c 128,-1,23
 584 1220 584 1220 520 1315 c 128,-1,24
 456 1410 456 1410 394 1410 c 0,25,26
 373 1410 373 1410 351 1299.5 c 128,-1,27
 329 1189 329 1189 313 998.5 c 128,-1,28
 297 808 297 808 286.5 558 c 128,-1,29
 276 308 276 308 276 32 c 1,30,31
 265 11 265 11 239.5 11 c 128,-1,32
 214 11 214 11 196 25 c 1,33,34
 200 754 200 754 239.5 1121.5 c 128,-1,35
 279 1489 279 1489 384 1489 c 0,36,37
 449 1489 449 1489 514.5 1431 c 128,-1,38
 580 1373 580 1373 637.5 1272 c 128,-1,39
 695 1171 695 1171 746.5 1031 c 128,-1,40
 798 891 798 891 833 729 c 1,41,42
 858 891 858 891 913 1031 c 128,-1,43
 968 1171 968 1171 1037 1272 c 128,-1,44
 1106 1373 1106 1373 1182 1431 c 128,-1,45
 1258 1489 1258 1489 1323 1489 c 0,46,47
 1369 1489 1369 1489 1393 1384 c 128,-1,48
 1417 1279 1417 1279 1429.5 1087 c 128,-1,49
 1442 895 1442 895 1449 630.5 c 128,-1,50
 1456 366 1456 366 1475 48 c 0,0,1
EndSplineSet
EndChar
StartChar: N
Encoding: 78 78 49
Width: 1551
VWidth: 3622
Flags: W
HStem: 1462 20G<252 281>
VStem: 200 79<32.9287 180.931 180.931 209.242 209.242 470.392 470.392 536.119 536.119 626 626 782.577 782.577 996.411 996.411 1076.77 1076.77 1340.31> 1274.5 80.5<299.243 507.5 508 617.877 617.877 640.525 640.525 846.846 846.846 938.965 938.965 1271.33 1271.33 1479.84>
Fore
290 1348 m 1,0,1
 271 1040 271 1040 279 702 c 0,2,3
 283 532 283 532 285 370.5 c 128,-1,4
 287 209 287 209 287 48 c 0,5,6
 287 35 287 35 273.5 29 c 128,-1,7
 260 23 260 23 243 23 c 128,-1,8
 226 23 226 23 213 29 c 128,-1,9
 200 35 200 35 200 48 c 0,10,11
 203 163 203 163 202.5 315 c 128,-1,12
 202 467 202 467 201 626 c 128,-1,13
 200 785 200 785 200 939 c 128,-1,14
 200 1093 200 1093 206 1213.5 c 128,-1,15
 212 1334 212 1334 225.5 1408 c 128,-1,16
 239 1482 239 1482 265 1482 c 0,17,18
 297 1482 297 1482 377 1381 c 256,19,20
 456 1281 456 1281 557 1129.5 c 128,-1,21
 658 978 658 978 769 801 c 2,22,-1
 976 474 l 2,23,24
 1024 398 1024 398 1065 335 c 128,-1,25
 1106 272 1106 272 1141 221 c 0,26,27
 1210 120 1210 120 1224 117 c 0,28,29
 1233 113 1233 113 1241 161 c 128,-1,30
 1249 209 1249 209 1254 296.5 c 128,-1,31
 1259 384 1259 384 1263.5 507.5 c 128,-1,32
 1268 631 1268 631 1271 780.5 c 128,-1,33
 1274 930 1274 930 1274.5 1098 c 128,-1,34
 1275 1266 1275 1266 1275 1445 c 1,35,36
 1284 1486 1284 1486 1318 1480 c 0,37,38
 1355 1475 1355 1475 1355 1438 c 2,39,-1
 1355 966 l 2,40,41
 1355 842 1355 842 1352.5 728 c 128,-1,42
 1350 614 1350 614 1346 508 c 0,43,44
 1339 301 1339 301 1311 161 c 0,45,46
 1286 25 1286 25 1231 28 c 0,47,48
 1185 32 1185 32 1106 133 c 0,49,50
 1065 184 1065 184 1019 247.5 c 128,-1,51
 973 311 973 311 922 389 c 256,52,53
 870 467 870 467 815.5 551 c 128,-1,54
 761 635 761 635 700 731 c 0,55,56
 642 826 642 826 583 917 c 128,-1,57
 524 1008 524 1008 463 1098 c 2,58,-1
 377 1224 l 2,59,60
 361 1249 361 1249 345 1270 c 128,-1,61
 329 1291 329 1291 315 1311 c 256,62,63
 301 1330 301 1330 294.5 1340 c 128,-1,64
 288 1350 288 1350 290 1348 c 1,0,1
EndSplineSet
EndChar
StartChar: O
Encoding: 79 79 50
Width: 1630
VWidth: 3622
Flags: W
HStem: 21 80<622.138 1018.73> 1383 83<554.285 1030.6>
VStem: 117 86<434.563 988.617> 1424 79<445.985 954.5>
Fore
1503 688 m 0,0,1
 1496 511 1496 511 1432.5 383.5 c 128,-1,2
 1369 256 1369 256 1267.5 176.5 c 128,-1,3
 1166 97 1166 97 1037.5 59 c 128,-1,4
 909 21 909 21 775 21 c 0,5,6
 660 21 660 21 542.5 59 c 128,-1,7
 425 97 425 97 330 178.5 c 128,-1,8
 235 260 235 260 176 385.5 c 128,-1,9
 117 511 117 511 117 685 c 0,10,11
 117 861 117 861 163.5 1006 c 128,-1,12
 210 1151 210 1151 297 1253 c 128,-1,13
 384 1355 384 1355 505 1410.5 c 128,-1,14
 626 1466 626 1466 778 1466 c 256,15,16
 930 1466 930 1466 1064.5 1412 c 128,-1,17
 1199 1358 1199 1358 1299 1256.5 c 128,-1,18
 1399 1155 1399 1155 1453 1010 c 128,-1,19
 1507 865 1507 865 1503 688 c 0,0,1
1424 688 m 0,20,21
 1410 1029 1410 1029 1228.5 1208 c 128,-1,22
 1047 1387 1047 1387 778 1383 c 0,23,24
 656 1383 656 1383 551 1338 c 128,-1,25
 446 1293 446 1293 368 1206.5 c 128,-1,26
 290 1120 290 1120 246.5 989 c 128,-1,27
 203 858 203 858 203 685 c 0,28,29
 203 518 203 518 260.5 406 c 128,-1,30
 318 294 318 294 405.5 226.5 c 128,-1,31
 493 159 493 159 594 130 c 128,-1,32
 695 101 695 101 782 101 c 0,33,34
 895 101 895 101 1007.5 128.5 c 128,-1,35
 1120 156 1120 156 1210 223 c 128,-1,36
 1300 290 1300 290 1360 404 c 128,-1,37
 1420 518 1420 518 1424 688 c 0,20,21
EndSplineSet
EndChar
StartChar: P
Encoding: 80 80 51
Width: 1199
VWidth: 3622
Flags: W
HStem: 578.5 79.5<328.25 696.632> 1388.5 65.5<317 694.518>
VStem: 173 60.5<1379.89 1463.53> 180 92<4.77832 358.896 358.896 640 713 737 737 1030.18> 190 71<717.755 737 1035.5 1087.75 1087.75 1278.72> 1068 69<851.35 1180.58>
Fore
246 1314 m 1,0,1
 253 1206 253 1206 261 1035.5 c 128,-1,2
 269 865 269 865 279 713 c 1,3,4
 417 663 417 663 556 658 c 128,-1,5
 695 653 695 653 809 691 c 128,-1,6
 923 729 923 729 994 810 c 128,-1,7
 1065 891 1065 891 1068 1017 c 0,8,9
 1072 1130 1072 1130 997.5 1217 c 128,-1,10
 923 1304 923 1304 804 1349 c 128,-1,11
 685 1394 685 1394 536 1388.5 c 128,-1,12
 387 1383 387 1383 246 1314 c 1,0,1
235 1380 m 1,13,14
 366 1445 366 1445 523.5 1454 c 128,-1,15
 681 1463 681 1463 819 1418 c 128,-1,16
 957 1373 957 1373 1049 1272 c 128,-1,17
 1141 1171 1141 1171 1137 1014 c 0,18,19
 1134 861 1134 861 1056 762 c 128,-1,20
 978 663 978 663 855 618 c 128,-1,21
 732 573 732 573 580 578.5 c 128,-1,22
 428 584 428 584 276 640 c 1,23,-1
 272 21 l 2,24,25
 272 7 272 7 255.5 -2 c 128,-1,26
 239 -11 239 -11 223 -12.5 c 128,-1,27
 207 -14 207 -14 193.5 -5 c 128,-1,28
 180 4 180 4 180 25 c 0,29,30
 203 409 203 409 190 737 c 128,-1,31
 177 1065 177 1065 177 1279 c 1,32,-1
 145 1265 l 1,33,34
 127 1247 127 1247 110.5 1264.5 c 128,-1,35
 94 1282 94 1282 113 1307 c 0,36,37
 138 1334 138 1334 156 1344 c 0,38,39
 166 1351 166 1351 173 1355 c 1,40,-1
 170 1434 l 2,41,42
 166 1463 166 1463 181 1464.5 c 128,-1,43
 196 1466 196 1466 214 1464.5 c 128,-1,44
 232 1463 232 1463 233.5 1419.5 c 128,-1,45
 235 1376 235 1376 235 1380 c 1,13,14
EndSplineSet
EndChar
StartChar: Q
Encoding: 81 81 52
Width: 1593
VWidth: 3622
Flags: W
HStem: 32 79<533.56 989.3> 1390 85<588.372 1003.21>
VStem: 111 85<480.569 982.451> 1394 81<586.227 952.818>
Fore
1445 111 m 2,0,1
 1463 90 1463 90 1448.5 62.5 c 128,-1,2
 1434 35 1434 35 1406 48 c 2,3,4
 1400 51.5 l 2,5,6
 1394 55 1394 55 1378 69 c 128,-1,7
 1362 83 1362 83 1329.5 116 c 128,-1,8
 1297 149 1297 149 1238 210 c 1,9,10
 1144 127 1144 127 1021.5 79.5 c 128,-1,11
 899 32 899 32 764 32 c 0,12,13
 460 32 460 32 290 217 c 128,-1,14
 120 402 120 402 111 732 c 0,15,16
 108 906 108 906 168 1045.5 c 128,-1,17
 228 1185 228 1185 324.5 1280.5 c 128,-1,18
 421 1376 421 1376 545.5 1425.5 c 128,-1,19
 670 1475 670 1475 798 1475 c 0,20,21
 916 1475 916 1475 1037.5 1425.5 c 128,-1,22
 1159 1376 1159 1376 1257 1282.5 c 128,-1,23
 1355 1189 1355 1189 1415 1049 c 128,-1,24
 1475 909 1475 909 1475 729 c 0,25,26
 1475 570 1475 570 1434.5 464.5 c 128,-1,27
 1394 359 1394 359 1300 253 c 1,28,-1
 1445 111 l 2,0,1
1247 311 m 1,29,30
 1323 402 1323 402 1363 500 c 128,-1,31
 1403 598 1403 598 1394 736 c 0,32,33
 1383 881 1383 881 1331 1002 c 128,-1,34
 1279 1123 1279 1123 1196 1210 c 128,-1,35
 1113 1297 1113 1297 1009.5 1343.5 c 128,-1,36
 906 1390 906 1390 798 1390 c 0,37,38
 692 1390 692 1390 585 1345 c 128,-1,39
 478 1300 478 1300 391 1213.5 c 128,-1,40
 304 1127 304 1127 250 1005.5 c 128,-1,41
 196 884 196 884 196 732 c 0,42,43
 196 591 196 591 236 477 c 128,-1,44
 276 363 276 363 352 281.5 c 128,-1,45
 428 200 428 200 532.5 155.5 c 128,-1,46
 637 111 637 111 764 111 c 0,47,48
 877 111 877 111 987.5 152 c 128,-1,49
 1098 193 1098 193 1182 272 c 1,50,-1
 1003 453 l 2,51,52
 985 474 985 474 1014.5 501.5 c 128,-1,53
 1044 529 1044 529 1061 515 c 0,54,55
 1075 504 1075 504 1082.5 494.5 c 128,-1,56
 1090 485 1090 485 1105 467 c 128,-1,57
 1120 449 1120 449 1151 414.5 c 128,-1,58
 1182 380 1182 380 1247 311 c 1,29,30
EndSplineSet
EndChar
StartChar: R
Encoding: 82 82 53
Width: 1292
VWidth: 3622
Flags: W
HStem: 610.5 75.5<305.898 680.712> 1378 74.5<336.297 717.434>
VStem: 173 69<1044.65 1275 1376 1445> 180 89<7.78442 67.2347 67.2347 179.692 179.692 356.758 356.758 591> 188 59.5<843.146 1040 1040 1268.29> 1068 76<867.855 1182.54>
Fore
242 1297 m 1,0,1
 249 1189 249 1189 247.5 1040 c 128,-1,2
 246 891 246 891 265 739 c 1,3,4
 356 695 356 695 493 686 c 128,-1,5
 630 677 630 677 757 708 c 128,-1,6
 884 739 884 739 976 815 c 128,-1,7
 1068 891 1068 891 1068 1017 c 0,8,9
 1068 1134 1068 1134 999 1219 c 128,-1,10
 930 1304 930 1304 816 1345.5 c 128,-1,11
 702 1387 702 1387 552 1378 c 128,-1,12
 402 1369 402 1369 242 1297 c 1,0,1
242 1376 m 1,13,14
 391 1442 391 1442 552 1452.5 c 128,-1,15
 713 1463 713 1463 847.5 1419.5 c 128,-1,16
 982 1376 982 1376 1065 1275 c 128,-1,17
 1148 1174 1148 1174 1144 1010 c 0,18,19
 1141 865 1141 865 1045.5 775 c 128,-1,20
 950 685 950 685 813.5 645 c 128,-1,21
 677 605 677 605 530.5 610.5 c 128,-1,22
 384 616 384 616 279 667 c 1,23,-1
 1098 97 l 1,24,25
 1113 83 1113 83 1111 69 c 128,-1,26
 1109 55 1109 55 1099.5 41.5 c 128,-1,27
 1090 28 1090 28 1074 24.5 c 128,-1,28
 1058 21 1058 21 1047 28 c 2,29,-1
 269 591 l 1,30,31
 269 508 269 508 269 418.5 c 128,-1,32
 269 329 269 329 269 249.5 c 128,-1,33
 269 170 269 170 267 110.5 c 128,-1,34
 265 51 265 51 260 25 c 1,35,36
 260 11 260 11 246 2 c 128,-1,37
 232 -7 232 -7 217.5 -7 c 128,-1,38
 203 -7 203 -7 191.5 2 c 128,-1,39
 180 11 180 11 180 32 c 0,40,41
 203 417 203 417 188 739 c 128,-1,42
 173 1061 173 1061 173 1275 c 1,43,-1
 142 1261 l 1,44,45
 124 1242 124 1242 107 1260.5 c 128,-1,46
 90 1279 90 1279 108 1297 c 0,47,48
 134 1330 134 1330 152 1341 c 0,49,50
 163 1348 163 1348 170 1351 c 1,51,-1
 166 1431 l 2,52,53
 163 1459 163 1459 194 1459 c 128,-1,54
 225 1459 225 1459 235 1445 c 1,55,-1
 242 1376 l 1,13,14
EndSplineSet
EndChar
StartChar: S
Encoding: 83 83 54
Width: 1098
VWidth: 3622
Flags: W
HStem: 4 76<479.443 743.117> 1394 76<386.599 708.697>
VStem: 138 83<302.549 457.498> 884 76<1079 1134.38>
Fore
884 1079 m 0,0,1
 881 1134 881 1134 862.5 1190.5 c 128,-1,2
 844 1247 844 1247 806 1292 c 128,-1,3
 768 1337 768 1337 710.5 1365.5 c 128,-1,4
 653 1394 653 1394 570 1394 c 0,5,6
 391 1399 391 1399 300.5 1299 c 128,-1,7
 210 1199 210 1199 218 1058 c 0,8,9
 221 1014 221 1014 235 974 c 128,-1,10
 249 934 249 934 289 896 c 128,-1,11
 329 858 329 858 400 823.5 c 128,-1,12
 471 789 471 789 584 757 c 0,13,14
 718 722 718 722 797.5 669 c 128,-1,15
 877 616 877 616 917 556.5 c 128,-1,16
 957 497 957 497 967.5 435 c 128,-1,17
 978 373 978 373 975 318 c 0,18,19
 971 269 971 269 947 214 c 128,-1,20
 923 159 923 159 878 114 c 128,-1,21
 833 69 833 69 762.5 38 c 128,-1,22
 692 7 692 7 594 4 c 0,23,24
 485 0 485 0 401.5 32.5 c 128,-1,25
 318 65 318 65 259 124.5 c 128,-1,26
 200 184 200 184 169 264.5 c 128,-1,27
 138 345 138 345 138 435 c 1,28,29
 134 453 134 453 145 462 c 128,-1,30
 156 471 156 471 171.5 472.5 c 128,-1,31
 187 474 187 474 204 465 c 128,-1,32
 221 456 221 456 221 439 c 0,33,34
 225 366 225 366 247 300.5 c 128,-1,35
 269 235 269 235 312.5 186.5 c 128,-1,36
 356 138 356 138 426.5 109 c 128,-1,37
 497 80 497 80 594 80 c 0,38,39
 685 80 685 80 745 107 c 128,-1,40
 805 134 805 134 837.5 172 c 128,-1,41
 870 210 870 210 882.5 252 c 128,-1,42
 895 294 895 294 899 318 c 0,43,44
 913 449 913 449 831.5 543 c 128,-1,45
 750 637 750 637 532 688 c 0,46,47
 359 729 359 729 254 815.5 c 128,-1,48
 149 902 149 902 134 1058 c 0,49,50
 127 1144 127 1144 155.5 1218.5 c 128,-1,51
 184 1293 184 1293 242.5 1351.5 c 128,-1,52
 301 1410 301 1410 384 1440 c 128,-1,53
 467 1470 467 1470 570 1470 c 0,54,55
 739 1466 739 1466 846 1363.5 c 128,-1,56
 953 1261 953 1261 960 1090 c 1,57,58
 953 1051 953 1051 920.5 1047.5 c 128,-1,59
 888 1044 888 1044 884 1079 c 0,0,1
EndSplineSet
EndChar
StartChar: T
Encoding: 84 84 55
Width: 1137
VWidth: 3622
Flags: W
HStem: 1358 80<107.875 228.167 230.828 314 314 402.986 891.732 959.5 959.5 988.273 988.273 1017> 1374.5 88.5<331.912 466.327 466.327 529 646 720.25 720.25 770.423 770.423 842.277 842.277 890.5 890.5 958.576>
VStem: 474 106<34.0946 112.712 112.712 113.531 113.531 282.204 282.204 282.446 282.446 391.5 393.5 553.145> 509.5 86.5<397.521 665 670.5 822.751 822.751 876.427 876.427 1133.76>
Fore
646 1380 m 1,0,1
 633 1318 633 1318 624.5 1202 c 128,-1,2
 616 1086 616 1086 608.5 949 c 128,-1,3
 601 812 601 812 596 665 c 128,-1,4
 591 518 591 518 587.5 391.5 c 128,-1,5
 584 265 584 265 582 174 c 128,-1,6
 580 83 580 83 580 55 c 0,7,8
 580 35 580 35 563.5 26.5 c 128,-1,9
 547 18 547 18 527.5 18 c 128,-1,10
 508 18 508 18 491 26.5 c 128,-1,11
 474 35 474 35 474 55 c 0,12,13
 474 80 474 80 477.5 172.5 c 128,-1,14
 481 265 481 265 484.5 393.5 c 128,-1,15
 488 522 488 522 496 670.5 c 128,-1,16
 504 819 504 819 509.5 958.5 c 128,-1,17
 515 1098 515 1098 520 1210.5 c 128,-1,18
 525 1323 525 1323 529 1376 c 1,19,20
 453 1376 453 1376 404.5 1374.5 c 128,-1,21
 356 1373 356 1373 314 1369.5 c 128,-1,22
 272 1366 272 1366 229.5 1364 c 128,-1,23
 187 1362 187 1362 124 1358 c 0,24,25
 111 1358 111 1358 104 1370.5 c 128,-1,26
 97 1383 97 1383 95.5 1398 c 128,-1,27
 94 1413 94 1413 99 1425.5 c 128,-1,28
 104 1438 104 1438 120 1438 c 0,29,30
 341 1463 341 1463 583.5 1463 c 128,-1,31
 826 1463 826 1463 1014 1449 c 0,32,33
 1051 1445 1051 1445 1047.5 1405.5 c 128,-1,34
 1044 1366 1044 1366 1017 1362 c 0,35,36
 989 1362 989 1362 959.5 1365.5 c 128,-1,37
 930 1369 930 1369 890.5 1372.5 c 128,-1,38
 851 1376 851 1376 793.5 1378 c 128,-1,39
 736 1380 736 1380 646 1380 c 1,0,1
EndSplineSet
EndChar
StartChar: U
Encoding: 85 85 56
Width: 1365
VWidth: 3622
Flags: W
HStem: 7 90<468.32 862.658> 1450 20G<1120.75 1136.25>
VStem: 175 104<473.467 704.134 704.134 1015.68 1015.68 1028.5 1028.5 1233.65 1233.65 1374.16 1374.16 1446.72> 1083 109<17.9902 96.6384 57.3143 462.038 184.577 249.116 523.708 739.5 739.5 1460.72>
Fore
1083 249 m 1,0,1
 1044 145 1044 145 942 78 c 128,-1,2
 840 11 840 11 660 7 c 0,3,4
 518 4 518 4 423.5 54 c 128,-1,5
 329 104 329 104 271.5 182 c 128,-1,6
 214 260 214 260 190 353 c 128,-1,7
 166 446 166 446 166 522 c 0,8,9
 170 732 170 732 171.5 884.5 c 128,-1,10
 173 1037 173 1037 175 1145.5 c 128,-1,11
 177 1254 177 1254 178.5 1320.5 c 128,-1,12
 180 1387 180 1387 180 1427 c 0,13,14
 180 1442 180 1442 195 1450.5 c 128,-1,15
 210 1459 210 1459 228 1457.5 c 128,-1,16
 246 1456 246 1456 262.5 1447 c 128,-1,17
 279 1438 279 1438 279 1424 c 2,18,-1
 265 633 l 2,19,20
 260 547 260 547 275 453 c 128,-1,21
 290 359 290 359 333.5 279.5 c 128,-1,22
 377 200 377 200 458 147 c 128,-1,23
 539 94 539 94 670 97 c 256,24,25
 801 101 801 101 880.5 150.5 c 128,-1,26
 960 200 960 200 1005.5 279.5 c 128,-1,27
 1051 359 1051 359 1067 456.5 c 128,-1,28
 1083 554 1083 554 1083 653 c 2,29,-1
 1083 1434 l 2,30,31
 1083 1452 1083 1452 1098 1461 c 128,-1,32
 1113 1470 1113 1470 1128.5 1470 c 128,-1,33
 1144 1470 1144 1470 1161 1461 c 128,-1,34
 1178 1452 1178 1452 1178 1438 c 2,35,-1
 1192 41 l 2,36,37
 1192 21 1192 21 1177 10.5 c 128,-1,38
 1162 0 1162 0 1144.5 -2 c 128,-1,39
 1127 -4 1127 -4 1110 5 c 128,-1,40
 1093 14 1093 14 1090 44 c 1,41,42
 1093 101 1093 101 1093 149 c 0,43,44
 1093 187 1093 187 1091.5 220 c 128,-1,45
 1090 253 1090 253 1083 249 c 1,0,1
EndSplineSet
EndChar
StartChar: V
Encoding: 86 86 57
Width: 1379
VWidth: 3622
Flags: W
HStem: 2 132<633 734.536> 1450 20G<179.25 197.75>
Fore
633 134 m 1,0,-1
 736 127 l 1,1,-1
 1120 1442 l 2,2,3
 1123 1459 1123 1459 1141 1464.5 c 128,-1,4
 1159 1470 1159 1470 1177.5 1466.5 c 128,-1,5
 1196 1463 1196 1463 1206.5 1450.5 c 128,-1,6
 1217 1438 1217 1438 1213 1424 c 0,7,8
 1120 1079 1120 1079 1040 798 c 0,9,10
 1006 677 1006 677 970 558 c 128,-1,11
 934 439 934 439 905.5 339 c 128,-1,12
 877 239 877 239 853.5 168 c 128,-1,13
 830 97 830 97 819 73 c 0,14,15
 808 41 808 41 770 22.5 c 128,-1,16
 732 4 732 4 689 2 c 128,-1,17
 646 0 646 0 609.5 16 c 128,-1,18
 573 32 573 32 561 73 c 2,19,20
 547 94 547 94 524 163 c 128,-1,21
 501 232 501 232 468 333.5 c 128,-1,22
 435 435 435 435 399 554.5 c 128,-1,23
 363 674 363 674 325 798 c 0,24,25
 239 1083 239 1083 142 1438 c 1,26,27
 142 1452 142 1452 156 1461 c 128,-1,28
 170 1470 170 1470 188.5 1470 c 128,-1,29
 207 1470 207 1470 224.5 1461 c 128,-1,30
 242 1452 242 1452 246 1438 c 2,31,-1
 633 134 l 1,0,-1
EndSplineSet
EndChar
StartChar: W
Encoding: 87 87 58
Width: 1862
VWidth: 3622
Flags: W
Fore
598 138 m 1,0,1
 722 391 722 391 779.5 527 c 128,-1,2
 837 663 837 663 864 724 c 128,-1,3
 891 785 891 785 902 796.5 c 128,-1,4
 913 808 913 808 941 812 c 0,5,6
 968 812 968 812 983.5 797 c 128,-1,7
 999 782 999 782 1033.5 719 c 128,-1,8
 1068 656 1068 656 1132 520 c 128,-1,9
 1196 384 1196 384 1311 142 c 1,10,11
 1348 311 1348 311 1390 515 c 0,12,13
 1431 688 1431 688 1483 923.5 c 128,-1,14
 1535 1159 1535 1159 1608 1434 c 0,15,16
 1611 1452 1611 1452 1628 1457.5 c 128,-1,17
 1645 1463 1645 1463 1662.5 1457.5 c 128,-1,18
 1680 1452 1680 1452 1693.5 1439.5 c 128,-1,19
 1707 1427 1707 1427 1703 1413 c 0,20,21
 1645 1199 1645 1199 1590 975 c 0,22,23
 1542 778 1542 778 1488 539.5 c 128,-1,24
 1434 301 1434 301 1390 62 c 0,25,26
 1383 32 1383 32 1365.5 21.5 c 128,-1,27
 1348 11 1348 11 1326 12.5 c 128,-1,28
 1304 14 1304 14 1284.5 29 c 128,-1,29
 1265 44 1265 44 1258 65 c 1,30,-1
 946 688 l 1,31,32
 916 626 916 626 873 536 c 128,-1,33
 830 446 830 446 786.5 353 c 128,-1,34
 743 260 743 260 705 180.5 c 128,-1,35
 667 101 667 101 653 65 c 0,36,37
 633 11 633 11 586 9 c 128,-1,38
 539 7 539 7 522 51 c 1,39,40
 460 329 460 329 396.5 577.5 c 128,-1,41
 333 826 333 826 283 1010 c 0,42,43
 221 1228 221 1228 163 1413 c 0,44,45
 156 1431 156 1431 166.5 1445 c 128,-1,46
 177 1459 177 1459 193.5 1462.5 c 128,-1,47
 210 1466 210 1466 228 1457.5 c 128,-1,48
 246 1449 246 1449 256 1424 c 0,49,50
 333 1203 333 1203 396.5 974.5 c 128,-1,51
 460 746 460 746 504 561 c 0,52,53
 554 341 554 341 598 138 c 1,0,1
EndSplineSet
EndChar
StartChar: X
Encoding: 88 88 59
Width: 1386
VWidth: 3622
Flags: W
HStem: 1462 20G<1171.25 1189.75>
Fore
612 757 m 1,0,1
 501 920 501 920 378.5 1096 c 128,-1,2
 256 1272 256 1272 149 1434 c 1,3,4
 142 1452 142 1452 149 1465.5 c 128,-1,5
 156 1479 156 1479 170 1484 c 128,-1,6
 184 1489 184 1489 202.5 1487.5 c 128,-1,7
 221 1486 221 1486 232 1475 c 1,8,9
 336 1323 336 1323 454.5 1157.5 c 128,-1,10
 573 992 573 992 677 837 c 1,11,12
 794 989 794 989 915.5 1151.5 c 128,-1,13
 1037 1314 1037 1314 1151 1466 c 0,14,15
 1162 1482 1162 1482 1180.5 1482 c 128,-1,16
 1199 1482 1199 1482 1213.5 1472.5 c 128,-1,17
 1228 1463 1228 1463 1235 1448.5 c 128,-1,18
 1242 1434 1242 1434 1231 1420 c 2,19,-1
 739 757 l 1,20,-1
 1247 62 l 2,21,22
 1254 51 1254 51 1244.5 39.5 c 128,-1,23
 1235 28 1235 28 1219 23 c 128,-1,24
 1203 18 1203 18 1182.5 18 c 128,-1,25
 1162 18 1162 18 1151 28 c 1,26,-1
 674 681 l 1,27,-1
 225 44 l 2,28,29
 210 28 210 28 191.5 26.5 c 128,-1,30
 173 25 173 25 157.5 34.5 c 128,-1,31
 142 44 142 44 134.5 56.5 c 128,-1,32
 127 69 127 69 138 80 c 1,33,-1
 134 80 l 1,34,-1
 612 757 l 1,0,1
EndSplineSet
EndChar
StartChar: Y
Encoding: 89 89 60
Width: 1361
VWidth: 3622
Flags: W
HStem: 11 21G<675.75 693.25>
VStem: 156 97<1333.23 1440.18> 626 110<30.6613 370 370 685>
Fore
736 55 m 2,0,1
 736 32 736 32 719 21.5 c 128,-1,2
 702 11 702 11 684.5 11 c 128,-1,3
 667 11 667 11 650 19.5 c 128,-1,4
 633 28 633 28 633 48 c 2,5,-1
 626 688 l 1,6,7
 577 702 577 702 508 791.5 c 128,-1,8
 439 881 439 881 370 997 c 128,-1,9
 301 1113 301 1113 242.5 1234 c 128,-1,10
 184 1355 184 1355 156 1442 c 0,11,12
 152 1456 152 1456 164.5 1465.5 c 128,-1,13
 177 1475 177 1475 195.5 1477 c 128,-1,14
 214 1479 214 1479 230 1472.5 c 128,-1,15
 246 1466 246 1466 253 1452 c 1,16,17
 276 1376 276 1376 330 1260 c 128,-1,18
 384 1144 384 1144 446 1033.5 c 128,-1,19
 508 923 508 923 570.5 845.5 c 128,-1,20
 633 768 633 768 677 768 c 0,21,22
 718 768 718 768 774 838.5 c 128,-1,23
 830 909 830 909 890 1014.5 c 128,-1,24
 950 1120 950 1120 1005.5 1237.5 c 128,-1,25
 1061 1355 1061 1355 1106 1449 c 0,26,27
 1113 1463 1113 1463 1130.5 1469 c 128,-1,28
 1148 1475 1148 1475 1166.5 1470.5 c 128,-1,29
 1185 1466 1185 1466 1197.5 1454 c 128,-1,30
 1210 1442 1210 1442 1203 1424 c 0,31,32
 1151 1314 1151 1314 1088.5 1187.5 c 128,-1,33
 1026 1061 1026 1061 960.5 950.5 c 128,-1,34
 895 840 895 840 831.5 764 c 128,-1,35
 768 688 768 688 725 685 c 1,36,-1
 736 55 l 2,0,1
EndSplineSet
EndChar
StartChar: Z
Encoding: 90 90 61
Width: 1358
VWidth: 3622
Flags: W
HStem: 44 73<187 279.935 279.935 281.94 319.169 453.22 453.22 464.5 536 610.698> 60 74<537.936 581.481 581.481 714.089 647.785 897.023 865.269 928.777> 1347.5 65.5<269.304 413 483.5 500.879 500.879 603.534 603.534 713 658.267 936.606>
Fore
187 117 m 0,0,1
 200 117 200 117 224.5 117 c 128,-1,2
 249 117 249 117 283 120 c 0,3,4
 356 124 356 124 464.5 129 c 128,-1,5
 573 134 573 134 699 134 c 0,6,7
 826 134 826 134 952.5 125.5 c 128,-1,8
 1079 117 1079 117 1196 97 c 0,9,10
 1224 90 1224 90 1222 59 c 128,-1,11
 1220 28 1220 28 1185 32 c 0,12,13
 1054 51 1054 51 956 56.5 c 128,-1,14
 858 62 858 62 775 62 c 0,15,16
 709 62 709 62 653.5 60 c 128,-1,17
 598 58 598 58 536 55 c 0,18,19
 460 51 460 51 375 46 c 128,-1,20
 290 41 290 41 177 44 c 0,21,22
 163 44 163 44 143.5 47.5 c 128,-1,23
 124 51 124 51 110.5 62 c 128,-1,24
 97 73 97 73 93.5 90.5 c 128,-1,25
 90 108 90 108 104 134 c 0,26,27
 142 187 142 187 203.5 266 c 128,-1,28
 265 345 265 345 343 431.5 c 128,-1,29
 421 518 421 518 506 608.5 c 128,-1,30
 591 699 591 699 674 782 c 0,31,32
 746 858 746 858 818.5 936 c 128,-1,33
 891 1014 891 1014 960 1090 c 128,-1,34
 1029 1166 1029 1166 1086.5 1236.5 c 128,-1,35
 1144 1307 1144 1307 1189 1369 c 1,36,37
 1106 1362 1106 1362 1014.5 1353 c 128,-1,38
 923 1344 923 1344 819 1344 c 0,39,40
 713 1344 713 1344 607 1347.5 c 128,-1,41
 501 1351 501 1351 413 1356.5 c 128,-1,42
 325 1362 325 1362 267.5 1369 c 128,-1,43
 210 1376 210 1376 203 1387 c 1,44,45
 163 1427 163 1427 181.5 1443 c 128,-1,46
 200 1459 200 1459 246 1452 c 0,47,48
 380 1434 380 1434 483.5 1423.5 c 128,-1,49
 587 1413 587 1413 688 1413 c 0,50,51
 782 1413 782 1413 882 1420 c 128,-1,52
 982 1427 982 1427 1106 1434 c 2,53,-1
 1217 1445 l 2,54,55
 1247 1449 1247 1449 1277 1426 c 128,-1,56
 1307 1403 1307 1403 1289 1362 c 1,57,58
 1251 1304 1251 1304 1176.5 1213.5 c 128,-1,59
 1102 1123 1102 1123 1005.5 1016 c 128,-1,60
 909 909 909 909 804 797 c 128,-1,61
 699 685 699 685 601 580 c 0,62,63
 518 493 518 493 438.5 409 c 128,-1,64
 359 325 359 325 299 260.5 c 128,-1,65
 239 196 239 196 208 156.5 c 128,-1,66
 177 117 177 117 187 117 c 0,0,1
EndSplineSet
EndChar
StartChar: bracketleft
Encoding: 91 91 62
Width: 590
VWidth: 3622
Flags: W
HStem: -323.5 74.5<214.361 269.335 269.335 305.427 305.427 415.747> 1463 81<203.439 280.496 280.496 320.761 320.761 356.5 356.5 430.056 430.056 446.553 446.553 515.469>
VStem: 111 92<872.952 1463> 131 83<-242 52.9011 52.9011 496.131 496.131 588.381 588.381 1130.6>
Fore
488 1459 m 0,0,1
 409 1466 409 1466 356.5 1468 c 128,-1,2
 304 1470 304 1470 203 1463 c 1,3,4
 214 1166 214 1166 217.5 863.5 c 128,-1,5
 221 561 221 561 221 315 c 0,6,7
 221 25 221 25 214 -242 c 1,8,9
 272 -249 272 -249 324.5 -249 c 128,-1,10
 377 -249 377 -249 417 -246 c 0,11,12
 460 -242 460 -242 501 -235 c 0,13,14
 539 -228 539 -228 543 -266 c 128,-1,15
 547 -304 547 -304 504 -311 c 0,16,17
 435 -318 435 -318 370 -322 c 0,18,19
 311 -325 311 -325 240.5 -323.5 c 128,-1,20
 170 -322 170 -322 108 -308 c 1,21,22
 124 -80 124 -80 131 207 c 0,23,24
 138 453 138 453 136 788 c 128,-1,25
 134 1123 134 1123 111 1535 c 1,26,27
 193 1542 193 1542 261 1544 c 128,-1,28
 329 1546 329 1546 380 1542 c 0,29,30
 442 1539 442 1539 488 1532 c 1,31,32
 511 1532 511 1532 521.5 1519.5 c 128,-1,33
 532 1507 532 1507 532 1493 c 128,-1,34
 532 1479 532 1479 521.5 1469 c 128,-1,35
 511 1459 511 1459 488 1459 c 0,0,1
EndSplineSet
EndChar
StartChar: backslash
Encoding: 92 92 63
Width: 1009
VWidth: 3622
Flags: W
VStem: 152 668.5<48.5 1870 1870 3802.92>
Fore
815 90 m 2,0,1
 826 65 826 65 820.5 48.5 c 128,-1,2
 815 32 815 32 800 25 c 128,-1,3
 785 18 785 18 769.5 25 c 128,-1,4
 754 32 754 32 746 58 c 2,5,-1
 152 1870 l 2,6,7
 145 1891 145 1891 152 1907 c 128,-1,8
 159 1923 159 1923 176 1927.5 c 128,-1,9
 193 1932 193 1932 209 1922 c 128,-1,10
 225 1912 225 1912 232 1887 c 2,11,-1
 815 90 l 2,0,1
EndSplineSet
EndChar
StartChar: bracketright
Encoding: 93 93 64
Width: 590
VWidth: 3622
Flags: W
HStem: -320 74<24.6185 65 69 102.345 102.345 121.512 121.512 197.604 197.604 262.3 262.3 299.573 299.573 355.044> 1468 76<52.9062 121.647 121.647 138.062 138.062 246.269 246.269 288.262 288.262 365.379>
VStem: 356 79<-238.787 -25.7725 -25.7725 495.039 495.039 588.381 588.381 1230.13> 366 90<872.952 1463>
Fore
80 1459 m 0,0,1
 58 1459 58 1459 46.5 1469 c 128,-1,2
 35 1479 35 1479 35 1493 c 128,-1,3
 35 1507 35 1507 46.5 1519.5 c 128,-1,4
 58 1532 58 1532 80 1532 c 1,5,6
 127 1539 127 1539 187 1542 c 0,7,8
 239 1546 239 1546 306 1544 c 128,-1,9
 373 1542 373 1542 456 1535 c 1,10,11
 435 1123 435 1123 431.5 786 c 128,-1,12
 428 449 428 449 435 207 c 0,13,14
 442 -76 442 -76 460 -304 c 1,15,16
 394 -318 394 -318 325 -320 c 128,-1,17
 256 -322 256 -322 200 -318 c 0,18,19
 134 -315 134 -315 65 -308 c 0,20,21
 21 -301 21 -301 24.5 -263 c 128,-1,22
 28 -225 28 -225 69 -232 c 0,23,24
 108 -239 108 -239 152 -242 c 0,25,26
 193 -246 193 -246 243.5 -246 c 128,-1,27
 294 -246 294 -246 356 -239 c 1,28,29
 348 28 348 28 348 315 c 0,30,31
 348 561 348 561 350 863.5 c 128,-1,32
 352 1166 352 1166 366 1463 c 1,33,34
 265 1470 265 1470 212 1468 c 128,-1,35
 159 1466 159 1466 80 1459 c 0,0,1
EndSplineSet
EndChar
StartChar: asciicircum
Encoding: 94 94 65
Width: 1268
VWidth: 3622
Flags: W
HStem: 1373 86<591.065 689.244>
VStem: 180 89<449.836 499.957>
Fore
1014 474 m 0,0,1
 1006 488 1006 488 985 560.5 c 128,-1,2
 964 633 964 633 931.5 733 c 128,-1,3
 899 833 899 833 859 945.5 c 128,-1,4
 819 1058 819 1058 779 1152.5 c 128,-1,5
 739 1247 739 1247 701 1310 c 128,-1,6
 663 1373 663 1373 637 1373 c 0,7,8
 616 1373 616 1373 581.5 1313.5 c 128,-1,9
 547 1254 547 1254 509 1159.5 c 128,-1,10
 471 1065 471 1065 429 954.5 c 128,-1,11
 387 844 387 844 352.5 745 c 128,-1,12
 318 646 318 646 295 569.5 c 128,-1,13
 272 493 272 493 269 474 c 0,14,15
 265 456 265 456 248.5 447.5 c 128,-1,16
 232 439 232 439 216 439 c 128,-1,17
 200 439 200 439 188.5 447.5 c 128,-1,18
 177 456 177 456 180 478 c 1,19,20
 184 488 184 488 206 567 c 128,-1,21
 228 646 228 646 266 753.5 c 128,-1,22
 304 861 304 861 349 987 c 128,-1,23
 394 1113 394 1113 445.5 1218 c 128,-1,24
 497 1323 497 1323 545.5 1391 c 128,-1,25
 594 1459 594 1459 637 1459 c 0,26,27
 677 1459 677 1459 719 1407 c 128,-1,28
 761 1355 761 1355 802.5 1273.5 c 128,-1,29
 844 1192 844 1192 883.5 1090.5 c 128,-1,30
 923 989 923 989 959.5 887 c 128,-1,31
 996 785 996 785 1025 696.5 c 128,-1,32
 1054 608 1054 608 1072 550 c 0,33,34
 1086 501 1086 501 1082.5 475 c 128,-1,35
 1079 449 1079 449 1066.5 442 c 128,-1,36
 1054 435 1054 435 1038 444 c 128,-1,37
 1022 453 1022 453 1014 474 c 0,0,1
EndSplineSet
EndChar
StartChar: underscore
Encoding: 95 95 66
Width: 1814
VWidth: 3622
Flags: W
HStem: -33.5 81.5<25.1562 189.4 189.4 248.527 248.527 443.792 443.792 600.557 522.175 725.185 641.454 808.915 808.915 851.416 851.416 978.539 978.539 1127.2 1127.2 1519.34 1519.34 1534 1534 1749>
Fore
1753 41 m 0,0,1
 1783 41 1783 41 1784.5 4.5 c 128,-1,2
 1786 -32 1786 -32 1749 -35 c 0,3,4
 1479 -32 1479 -32 1322.5 -32 c 128,-1,5
 1166 -32 1166 -32 1065 -32 c 128,-1,6
 964 -32 964 -32 893 -33.5 c 128,-1,7
 822 -35 822 -35 724 -35 c 128,-1,8
 626 -35 626 -35 475.5 -33.5 c 128,-1,9
 325 -32 325 -32 65 -25 c 0,10,11
 25 -21 25 -21 25 13.5 c 128,-1,12
 25 48 25 48 65 48 c 0,13,14
 228 41 228 41 340.5 38 c 128,-1,15
 453 35 453 35 546.5 35 c 128,-1,16
 640 35 640 35 736.5 38 c 128,-1,17
 833 41 833 41 967.5 42.5 c 128,-1,18
 1102 44 1102 44 1288.5 44 c 128,-1,19
 1475 44 1475 44 1753 41 c 0,0,1
EndSplineSet
EndChar
StartChar: grave
Encoding: 96 96 67
Width: 652
VWidth: 3622
Flags: W
HStem: 1019.5 433<138 536 138 138>
VStem: 92 444<1072 1422 1422 1422>
Fore
536 1072 m 0,0,1
 561 1047 561 1047 536 1019.5 c 128,-1,2
 511 992 511 992 474 1026 c 2,3,-1
 111 1383 l 2,4,5
 90 1406 90 1406 92 1422 c 128,-1,6
 94 1438 94 1438 107 1447 c 128,-1,7
 120 1456 120 1456 138 1452.5 c 128,-1,8
 156 1449 156 1449 170 1434 c 256,9,10
 184 1420 184 1420 208 1398 c 128,-1,11
 232 1376 232 1376 271.5 1334.5 c 128,-1,12
 311 1293 311 1293 376.5 1229.5 c 128,-1,13
 442 1166 442 1166 536 1072 c 0,0,1
EndSplineSet
EndChar
StartChar: a
Encoding: 97 97 68
Width: 1202
VWidth: 3622
Flags: W
HStem: -14 83<377.749 762.737> 7 73<1057.15 1106> 950 72<405.46 687.415>
VStem: 111 85<416.636 588.131> 909 90<300.525 423.277 423.277 433.743 433.743 702.444 702.444 784.309 851 937.016> 923 110<884.984 991.068>
Fore
902 663 m 2,0,1
 891 732 891 732 858.5 786 c 128,-1,2
 826 840 826 840 779 876.5 c 128,-1,3
 732 913 732 913 679 931.5 c 128,-1,4
 626 950 626 950 577 950 c 0,5,6
 467 950 467 950 392.5 897 c 128,-1,7
 318 844 318 844 275 773 c 128,-1,8
 232 702 232 702 214 629.5 c 128,-1,9
 196 557 196 557 196 518 c 0,10,11
 196 449 196 449 210.5 371.5 c 128,-1,12
 225 294 225 294 264.5 226.5 c 128,-1,13
 304 159 304 159 376.5 114 c 128,-1,14
 449 69 449 69 564 69 c 0,15,16
 677 69 677 69 767.5 116 c 128,-1,17
 858 163 858 163 888 260 c 0,18,19
 899 301 899 301 904 351.5 c 128,-1,20
 909 402 909 402 909 518 c 2,21,-1
 902 663 l 2,0,1
1120 7 m 1,22,23
 1017 -4 1017 -4 972 23.5 c 128,-1,24
 927 51 927 51 916 134 c 1,25,26
 865 51 865 51 775 18.5 c 128,-1,27
 685 -14 685 -14 570 -14 c 0,28,29
 421 -14 421 -14 331.5 40 c 128,-1,30
 242 94 242 94 193.5 175 c 128,-1,31
 145 256 145 256 128 349 c 128,-1,32
 111 442 111 442 111 522 c 0,33,34
 111 580 111 580 133.5 667 c 128,-1,35
 156 754 156 754 208 831.5 c 128,-1,36
 260 909 260 909 349.5 965.5 c 128,-1,37
 439 1022 439 1022 573 1022 c 0,38,39
 677 1022 677 1022 757 984 c 128,-1,40
 837 946 837 946 913 851 c 1,41,-1
 923 971 l 2,42,43
 927 992 927 992 945.5 1001 c 128,-1,44
 964 1010 964 1010 981.5 1008 c 128,-1,45
 999 1006 999 1006 1016 997.5 c 128,-1,46
 1033 989 1033 989 1033 978 c 1,47,48
 1017 927 1017 927 1010 813 c 128,-1,49
 1003 699 1003 699 999 577 c 0,50,51
 996 432 996 432 996 269 c 0,52,53
 996 235 996 235 996 202.5 c 128,-1,54
 996 170 996 170 1005 143.5 c 128,-1,55
 1014 117 1014 117 1036 98.5 c 128,-1,56
 1058 80 1058 80 1106 80 c 1,57,58
 1144 65 1144 65 1137 35 c 0,59,60
 1134 21 1134 21 1120 7 c 1,22,23
EndSplineSet
Substitution2: "Single Substitution lookup 22 subtable" uni0E38
Substitution2: "Single Substitution lookup 22 subtable" uni0E38
EndChar
StartChar: b
Encoding: 98 98 69
Width: 1202
VWidth: 3622
Flags: W
HStem: -14 87<512.742 669.122> 950 90<424.48 808.531>
VStem: 62 87<1325.75 1838.72> 97 90<345.441 443.362 443.362 493 608 620.439 620.439 750 891.349 1040 1123 1244.05> 1017 89<292.09 744.857>
Fore
193 394 m 0,0,1
 193 318 193 318 231 257 c 128,-1,2
 269 196 269 196 324.5 156.5 c 128,-1,3
 380 117 380 117 451 95 c 128,-1,4
 522 73 522 73 591 73 c 256,5,6
 660 73 660 73 736 92 c 128,-1,7
 812 111 812 111 873 160.5 c 128,-1,8
 934 210 934 210 975.5 293.5 c 128,-1,9
 1017 377 1017 377 1017 504 c 0,10,11
 1017 743 1017 743 899.5 846.5 c 128,-1,12
 782 950 782 950 580 950 c 0,13,14
 474 950 474 950 361.5 902 c 128,-1,15
 249 854 249 854 187 750 c 1,16,17
 180 587 180 587 187 493 c 0,18,19
 187 439 187 439 193 394 c 0,0,1
187 884 m 1,20,21
 283 989 283 989 384 1014.5 c 128,-1,22
 485 1040 485 1040 580 1040 c 0,23,24
 812 1040 812 1040 959 911 c 128,-1,25
 1106 782 1106 782 1106 504 c 0,26,27
 1106 345 1106 345 1049 245 c 128,-1,28
 992 145 992 145 912.5 88.5 c 128,-1,29
 833 32 833 32 744.5 9 c 128,-1,30
 656 -14 656 -14 591 -14 c 0,31,32
 394 -21 394 -21 170 180 c 1,33,-1
 166 145 l 1,34,35
 159 127 159 127 148.5 110.5 c 128,-1,36
 138 94 138 94 127 80 c 1,37,38
 111 65 111 65 101 48 c 1,39,40
 83 28 83 28 63.5 21 c 128,-1,41
 44 14 44 14 27.5 19.5 c 128,-1,42
 11 25 11 25 5.5 38 c 128,-1,43
 0 51 0 51 11 73 c 1,44,45
 28 87 28 87 44 104 c 0,46,47
 76 142 76 142 80 180 c 0,48,49
 94 363 94 363 97 608 c 0,50,51
 101 819 101 819 95.5 1123 c 128,-1,52
 90 1427 90 1427 62 1822 c 1,53,54
 65 1840 65 1840 79.5 1847.5 c 128,-1,55
 94 1855 94 1855 110.5 1855 c 128,-1,56
 127 1855 127 1855 138 1843.5 c 128,-1,57
 149 1832 149 1832 149 1818 c 0,58,59
 170 1503 170 1503 177 1320 c 128,-1,60
 184 1137 184 1137 187 1040 c 0,61,62
 193 923 193 923 187 884 c 1,20,21
EndSplineSet
Substitution2: "Single Substitution lookup 22 subtable" uni0E39
Substitution2: "Single Substitution lookup 22 subtable" uni0E39
EndChar
StartChar: c
Encoding: 99 99 70
Width: 1086
VWidth: 3622
Flags: W
HStem: 4 86<369.976 764.4> 978 87<392.461 723.12>
VStem: 69 87<371.988 648.18>
Fore
923 778 m 1,0,-1
 923 775 l 1,1,2
 874 881 874 881 784.5 929.5 c 128,-1,3
 695 978 695 978 587 978 c 0,4,5
 478 978 478 978 396.5 938.5 c 128,-1,6
 315 899 315 899 261 831.5 c 128,-1,7
 207 764 207 764 181.5 679 c 128,-1,8
 156 594 156 594 156 508 c 0,9,10
 156 425 156 425 179.5 348.5 c 128,-1,11
 203 272 203 272 252 214 c 128,-1,12
 301 156 301 156 380.5 123 c 128,-1,13
 460 90 460 90 573 90 c 0,14,15
 688 90 688 90 760.5 128 c 128,-1,16
 833 166 833 166 876.5 215.5 c 128,-1,17
 920 265 920 265 936.5 314 c 128,-1,18
 953 363 953 363 960 380 c 0,19,20
 975 432 975 432 1013 428.5 c 128,-1,21
 1051 425 1051 425 1051 380 c 0,22,23
 1051 341 1051 341 1025 277.5 c 128,-1,24
 999 214 999 214 943.5 152 c 128,-1,25
 888 90 888 90 797 47 c 128,-1,26
 706 4 706 4 573 4 c 0,27,28
 435 4 435 4 338.5 47 c 128,-1,29
 242 90 242 90 183 161 c 128,-1,30
 124 232 124 232 96.5 322 c 128,-1,31
 69 412 69 412 69 508 c 0,32,33
 69 605 69 605 100 703 c 128,-1,34
 131 801 131 801 192 882.5 c 128,-1,35
 253 964 253 964 351 1014.5 c 128,-1,36
 449 1065 449 1065 587 1065 c 0,37,38
 656 1065 656 1065 728.5 1045.5 c 128,-1,39
 801 1026 801 1026 862 988 c 128,-1,40
 923 950 923 950 966.5 895 c 128,-1,41
 1010 840 1010 840 1022 768 c 0,42,43
 1026 754 1026 754 1011 745 c 128,-1,44
 996 736 996 736 978 736 c 128,-1,45
 960 736 960 736 943.5 746.5 c 128,-1,46
 927 757 927 757 923 778 c 1,0,-1
EndSplineSet
Substitution2: "Single Substitution lookup 22 subtable" uni0E3A
Substitution2: "Single Substitution lookup 22 subtable" uni0E3A
EndChar
StartChar: d
Encoding: 100 100 71
Width: 1202
VWidth: 3622
Flags: W
HStem: -11 87<534.845 680.781> 950 90<523.869 800.814>
VStem: 90 87<301.463 713.708> 996 94<260.848 443.362 443.362 547.723 547.723 676.208 676.208 750 891.349 1128.54 1128.54 1320 1320 1808.19>
Fore
996 394 m 0,0,1
 996 439 996 439 999 493 c 0,2,3
 999 539 999 539 1001 603 c 128,-1,4
 1003 667 1003 667 999 750 c 1,5,6
 937 854 937 854 825 902 c 128,-1,7
 713 950 713 950 608 950 c 0,8,9
 525 950 525 950 447.5 924.5 c 128,-1,10
 370 899 370 899 309.5 844 c 128,-1,11
 249 789 249 789 213 706 c 128,-1,12
 177 623 177 623 177 504 c 0,13,14
 177 377 177 377 224.5 295.5 c 128,-1,15
 272 214 272 214 338.5 165.5 c 128,-1,16
 405 117 405 117 477.5 96.5 c 128,-1,17
 550 76 550 76 601 76 c 0,18,19
 670 76 670 76 739 96.5 c 128,-1,20
 808 117 808 117 865.5 158.5 c 128,-1,21
 923 200 923 200 959.5 259 c 128,-1,22
 996 318 996 318 996 394 c 0,0,1
999 884 m 1,23,24
 992 923 992 923 996 1040 c 0,25,26
 999 1137 999 1137 1008 1320 c 128,-1,27
 1017 1503 1017 1503 1040 1818 c 0,28,29
 1040 1832 1040 1832 1050.5 1843.5 c 128,-1,30
 1061 1855 1061 1855 1077 1855 c 128,-1,31
 1093 1855 1093 1855 1108 1847.5 c 128,-1,32
 1123 1840 1123 1840 1127 1822 c 1,33,34
 1098 1427 1098 1427 1092 1123 c 128,-1,35
 1086 819 1086 819 1090 608 c 0,36,37
 1093 363 1093 363 1109 180 c 0,38,39
 1109 159 1109 159 1119.5 141.5 c 128,-1,40
 1130 124 1130 124 1144 104 c 0,41,42
 1159 87 1159 87 1178 73 c 1,43,44
 1189 51 1189 51 1183.5 38 c 128,-1,45
 1178 25 1178 25 1161 19.5 c 128,-1,46
 1144 14 1144 14 1123 21 c 128,-1,47
 1102 28 1102 28 1086 48 c 0,48,49
 1072 65 1072 65 1058 80 c 0,50,51
 1029 111 1029 111 1022 145 c 2,52,-1
 1017 180 l 1,53,54
 909 83 909 83 802 39.5 c 128,-1,55
 695 -4 695 -4 601 -11 c 0,56,57
 539 -14 539 -14 452.5 7 c 128,-1,58
 366 28 366 28 286.5 86.5 c 128,-1,59
 207 145 207 145 148.5 245 c 128,-1,60
 90 345 90 345 90 504 c 0,61,62
 90 646 90 646 135 746.5 c 128,-1,63
 180 847 180 847 252.5 914.5 c 128,-1,64
 325 982 325 982 418 1013 c 128,-1,65
 511 1044 511 1044 608 1040 c 0,66,67
 702 1037 702 1037 804 1013 c 128,-1,68
 906 989 906 989 999 884 c 1,23,24
EndSplineSet
EndChar
StartChar: e
Encoding: 101 101 72
Width: 1195
VWidth: 3622
Flags: W
HStem: 0 90<392.539 685.499> 541.5 78.5<186.594 296 296 380.269 380.269 559.181 559.181 741.035 741.035 805.185 805.185 954.431> 978 87<429.189 798.125>
VStem: 85 95<340.485 518> 1006 80<628.377 738.884>
Fore
180 518 m 1,0,1
 184 304 184 304 300 197 c 128,-1,2
 416 90 416 90 608 90 c 0,3,4
 658 90 658 90 712 104.5 c 128,-1,5
 766 119 766 119 816.5 147 c 128,-1,6
 867 175 867 175 910 218.5 c 128,-1,7
 953 262 953 262 982 318 c 1,8,9
 992 331 992 331 1006 331 c 0,10,11
 1024 331 1024 331 1039 316.5 c 128,-1,12
 1054 302 1054 302 1054 279 c 0,13,14
 1054 260 1054 260 1044 242 c 0,15,16
 1014 187 1014 187 967 142 c 128,-1,17
 920 97 920 97 862.5 65.5 c 128,-1,18
 805 34 805 34 739.5 17 c 128,-1,19
 674 0 674 0 608 0 c 0,20,21
 472 0 472 0 373 46 c 128,-1,22
 274 92 274 92 210.5 167 c 128,-1,23
 147 242 147 242 116 337.5 c 128,-1,24
 85 433 85 433 85 532 c 256,25,26
 85 631 85 631 119.5 726.5 c 128,-1,27
 154 822 154 822 220.5 897.5 c 128,-1,28
 287 973 287 973 384 1019 c 128,-1,29
 481 1065 481 1065 605 1065 c 0,30,31
 716 1065 716 1065 805.5 1028 c 128,-1,32
 895 991 895 991 957 934 c 128,-1,33
 1019 877 1019 877 1052.5 807.5 c 128,-1,34
 1086 738 1086 738 1086 674 c 256,35,36
 1086 610 1086 610 1074.5 577.5 c 128,-1,37
 1063 545 1063 545 1028 545 c 0,38,39
 814 545 814 545 602.5 541.5 c 128,-1,40
 391 538 391 538 180 518 c 1,0,1
180 608 m 1,41,42
 219 612 219 612 296 614 c 128,-1,43
 373 616 373 616 465 617.5 c 128,-1,44
 557 619 557 619 653.5 620 c 128,-1,45
 750 621 750 621 828 622.5 c 128,-1,46
 906 624 906 624 956 627.5 c 128,-1,47
 1006 631 1006 631 1006 637 c 0,48,49
 1006 674 1006 674 987 731.5 c 128,-1,50
 968 789 968 789 921 844 c 128,-1,51
 874 899 874 899 796 938.5 c 128,-1,52
 718 978 718 978 601 978 c 0,53,54
 518 978 518 978 447.5 950.5 c 128,-1,55
 377 923 377 923 323 873.5 c 128,-1,56
 269 824 269 824 232 756 c 128,-1,57
 195 688 195 688 180 608 c 1,41,42
EndSplineSet
EndChar
StartChar: f
Encoding: 102 102 73
Width: 652
VWidth: 3622
Flags: W
HStem: 754 90<144.115 152 152 180.034 180.034 207 308 402.242 402.242 422.25 422.25 453.781 453.781 522.961> 1452 87<397.082 534.833 530.427 539.24 539.24 563.5 598 607.951>
VStem: 11 743<771 1235 1840.49 2107.48> 207 97<547.848 754 844 950.883 950.883 973.008 973.008 1209.68> 232 93<13.6582 241.152 1104.49 1371.48> 656 98<1228 1336.1>
Fore
41 815 m 2,0,-1
 97 830 l 2,1,2
 124 837 124 837 152 838.5 c 128,-1,3
 180 840 180 840 210 840 c 1,4,5
 214 937 214 937 212 1059.5 c 128,-1,6
 210 1182 210 1182 231.5 1288 c 128,-1,7
 253 1394 253 1394 311.5 1466.5 c 128,-1,8
 370 1539 370 1539 497 1539 c 0,9,10
 550 1539 550 1539 598 1528.5 c 128,-1,11
 646 1518 646 1518 679.5 1485 c 128,-1,12
 713 1452 713 1452 733.5 1393 c 128,-1,13
 754 1334 754 1334 754 1235 c 0,14,15
 754 1189 754 1189 709 1189 c 0,16,17
 692 1189 692 1189 676 1199.5 c 128,-1,18
 660 1210 660 1210 656 1228 c 0,19,20
 649 1314 649 1314 637.5 1360 c 128,-1,21
 626 1406 626 1406 608.5 1425.5 c 128,-1,22
 591 1445 591 1445 563.5 1448.5 c 128,-1,23
 536 1452 536 1452 497 1452 c 0,24,25
 435 1452 435 1452 397 1410.5 c 128,-1,26
 359 1369 359 1369 338.5 1291 c 128,-1,27
 318 1213 318 1213 313 1101 c 128,-1,28
 308 989 308 989 308 844 c 1,29,30
 409 844 409 844 467 835 c 128,-1,31
 525 826 525 826 525 785 c 0,32,33
 525 754 525 754 488 754 c 0,34,35
 439 754 439 754 420.5 757.5 c 128,-1,36
 402 761 402 761 384 761 c 2,37,-1
 304 761 l 1,38,-1
 325 44 l 1,39,40
 315 0 315 0 276 0 c 0,41,42
 256 0 256 0 244 9 c 128,-1,43
 232 18 232 18 232 35 c 2,44,-1
 207 754 l 1,45,46
 163 750 163 750 143.5 748 c 128,-1,47
 124 746 124 746 112.5 744.5 c 128,-1,48
 101 743 101 743 88.5 741 c 128,-1,49
 76 739 76 739 48 736 c 0,50,51
 11 736 11 736 11 771 c 0,52,53
 11 805 11 805 41 815 c 2,0,-1
EndSplineSet
EndChar
StartChar: g
Encoding: 103 103 74
Width: 1116
VWidth: 3622
Flags: W
HStem: 83 97<387.998 595.228> 1026 94<360.257 655.991>
VStem: 55 90<413.529 779.89> 156 90<-317.144 -218 -218 -184.365> 950 83<-178.904 159.506>
Fore
822 888 m 1,0,1
 775 960 775 960 695.5 993 c 128,-1,2
 616 1026 616 1026 522 1026 c 0,3,4
 439 1026 439 1026 368 991.5 c 128,-1,5
 297 957 297 957 248.5 900.5 c 128,-1,6
 200 844 200 844 172.5 768 c 128,-1,7
 145 692 145 692 145 612 c 0,8,9
 149 488 149 488 181.5 405 c 128,-1,10
 214 322 214 322 266 273.5 c 128,-1,11
 318 225 318 225 383.5 202.5 c 128,-1,12
 449 180 449 180 522 180 c 0,13,14
 591 180 591 180 660 200.5 c 128,-1,15
 729 221 729 221 779.5 254 c 128,-1,16
 830 287 830 287 859 328.5 c 128,-1,17
 888 370 888 370 884 412 c 0,18,19
 881 446 881 446 875.5 498 c 128,-1,20
 870 550 870 550 862 615.5 c 128,-1,21
 854 681 854 681 845.5 751.5 c 128,-1,22
 837 822 837 822 822 888 c 1,0,1
916 256 m 1,23,24
 874 203 874 203 819 168.5 c 128,-1,25
 764 134 764 134 706.5 114 c 128,-1,26
 649 94 649 94 590.5 88.5 c 128,-1,27
 532 83 532 83 485 83 c 0,28,29
 384 83 384 83 302.5 128 c 128,-1,30
 221 173 221 173 166 247.5 c 128,-1,31
 111 322 111 322 83 416.5 c 128,-1,32
 55 511 55 511 55 612 c 0,33,34
 55 706 55 706 87.5 797 c 128,-1,35
 120 888 120 888 179.5 960.5 c 128,-1,36
 239 1033 239 1033 325.5 1076.5 c 128,-1,37
 412 1120 412 1120 522 1120 c 0,38,39
 594 1120 594 1120 677.5 1103 c 128,-1,40
 761 1086 761 1086 826 1014 c 1,41,-1
 861 1137 l 2,42,43
 870 1166 870 1166 889.5 1175.5 c 128,-1,44
 909 1185 909 1185 925 1179.5 c 128,-1,45
 941 1174 941 1174 950.5 1157.5 c 128,-1,46
 960 1141 960 1141 950 1120 c 1,47,-1
 913 999 l 1,48,49
 916 888 916 888 936.5 722.5 c 128,-1,50
 957 557 957 557 978 401.5 c 128,-1,51
 999 246 999 246 1016 133.5 c 128,-1,52
 1033 21 1033 21 1033 14 c 0,53,54
 1033 -83 1033 -83 1005.5 -177.5 c 128,-1,55
 978 -272 978 -272 919.5 -346.5 c 128,-1,56
 861 -421 861 -421 776.5 -468 c 128,-1,57
 692 -515 692 -515 580 -518 c 0,58,59
 485 -522 485 -522 410.5 -496.5 c 128,-1,60
 336 -471 336 -471 282 -429 c 128,-1,61
 228 -387 228 -387 195.5 -333 c 128,-1,62
 163 -279 163 -279 156 -218 c 0,63,64
 152 -196 152 -196 166 -181 c 128,-1,65
 180 -166 180 -166 197 -161 c 128,-1,66
 214 -156 214 -156 230 -161 c 128,-1,67
 246 -166 246 -166 246 -187 c 0,68,69
 256 -311 256 -311 352.5 -378.5 c 128,-1,70
 449 -446 449 -446 580 -439 c 0,71,72
 706 -432 706 -432 788 -361 c 128,-1,73
 870 -290 870 -290 910 -186.5 c 128,-1,74
 950 -83 950 -83 950 34.5 c 128,-1,75
 950 152 950 152 916 256 c 1,23,24
EndSplineSet
EndChar
StartChar: h
Encoding: 104 104 75
Width: 1147
VWidth: 3622
Flags: W
HStem: 975 86<513.591 827.663>
VStem: 221 83<13.125 178.239 178.239 299.089 299.089 339 554.5 644.102> 269 87<1510.62 1665.19> 985 83<13.25 246.196 246.196 256.319 256.319 449.5 485.5 736.814>
Fore
308 785 m 1,0,1
 315 822 315 822 340.5 871 c 128,-1,2
 366 920 366 920 411 963 c 128,-1,3
 456 1006 456 1006 521.5 1033.5 c 128,-1,4
 587 1061 587 1061 674 1061 c 0,5,6
 819 1058 819 1058 898.5 996 c 128,-1,7
 978 934 978 934 1016 807.5 c 128,-1,8
 1054 681 1054 681 1061 485.5 c 128,-1,9
 1068 290 1068 290 1068 25 c 0,10,11
 1068 11 1068 11 1056 2 c 128,-1,12
 1044 -7 1044 -7 1027 -5.5 c 128,-1,13
 1010 -4 1010 -4 997.5 7 c 128,-1,14
 985 18 985 18 985 41 c 0,15,16
 985 276 985 276 978 449.5 c 128,-1,17
 971 623 971 623 940 740.5 c 128,-1,18
 909 858 909 858 845.5 916.5 c 128,-1,19
 782 975 782 975 674 975 c 0,20,21
 525 975 525 975 449 882 c 128,-1,22
 373 789 373 789 340.5 648.5 c 128,-1,23
 308 508 308 508 306 339 c 128,-1,24
 304 170 304 170 304 18 c 0,25,26
 304 4 304 4 291.5 0 c 128,-1,27
 279 -4 279 -4 264 -2 c 128,-1,28
 249 0 249 0 237 7 c 128,-1,29
 225 14 225 14 221 21 c 1,30,31
 207 272 207 272 212.5 554.5 c 128,-1,32
 218 837 218 837 232 1083 c 0,33,34
 246 1369 246 1369 269 1652 c 0,35,36
 269 1673 269 1673 283 1680 c 128,-1,37
 297 1687 297 1687 313 1683.5 c 128,-1,38
 329 1680 329 1680 344 1669.5 c 128,-1,39
 359 1659 359 1659 356 1638 c 2,40,-1
 308 785 l 1,0,1
EndSplineSet
EndChar
StartChar: i
Encoding: 105 105 76
Width: 590
VWidth: 3622
Flags: W
HStem: 1027 20G<323.25 339.75>
VStem: 269 90<24.8312 380.56> 290 87<680.44 1028.72>
Fore
432 1507 m 0,0,1
 488 1475 488 1475 504 1411.5 c 128,-1,2
 520 1348 520 1348 488 1291 c 0,3,4
 458 1236 458 1236 396 1218.5 c 128,-1,5
 334 1201 334 1201 279 1233 c 0,6,7
 218 1268 218 1268 202 1328.5 c 128,-1,8
 186 1389 186 1389 218 1443 c 0,9,10
 249 1500 249 1500 312 1521 c 128,-1,11
 375 1542 375 1542 432 1507 c 0,0,1
359 58 m 2,12,13
 356 32 356 32 342.5 21.5 c 128,-1,14
 329 11 329 11 315 12.5 c 128,-1,15
 301 14 301 14 286.5 24.5 c 128,-1,16
 272 35 272 35 269 58 c 1,17,-1
 290 1003 l 2,18,19
 290 1026 290 1026 302.5 1036.5 c 128,-1,20
 315 1047 315 1047 331.5 1047 c 128,-1,21
 348 1047 348 1047 362.5 1036.5 c 128,-1,22
 377 1026 377 1026 377 1003 c 2,23,-1
 359 58 l 2,12,13
EndSplineSet
EndChar
StartChar: j
Encoding: 106 106 77
Width: 590
VWidth: 3622
Flags: W
VStem: -196 99<-337.429 -210> 301 90<-219.973 423.922> 318 91<616.078 1017.29>
Fore
391 48 m 2,0,1
 394 -111 394 -111 356 -223.5 c 128,-1,2
 318 -336 318 -336 255.5 -399.5 c 128,-1,3
 193 -463 193 -463 118.5 -483.5 c 128,-1,4
 44 -504 44 -504 -23 -478.5 c 128,-1,5
 -90 -453 -90 -453 -138.5 -385.5 c 128,-1,6
 -187 -318 -187 -318 -196 -210 c 1,7,8
 -187 -159 -187 -159 -147.5 -164.5 c 128,-1,9
 -108 -170 -108 -170 -97 -214 c 0,10,11
 -80 -329 -80 -329 -14.5 -369 c 128,-1,12
 51 -409 51 -409 122 -377 c 128,-1,13
 193 -345 193 -345 248.5 -239.5 c 128,-1,14
 304 -134 304 -134 301 48 c 2,15,-1
 318 992 l 2,16,17
 318 1014 318 1014 333 1025.5 c 128,-1,18
 348 1037 348 1037 364 1037 c 128,-1,19
 380 1037 380 1037 394.5 1025.5 c 128,-1,20
 409 1014 409 1014 409 992 c 2,21,-1
 391 48 l 2,0,1
460 1511 m 0,22,23
 515 1479 515 1479 531 1415 c 128,-1,24
 547 1351 547 1351 515 1295 c 0,25,26
 485 1240 485 1240 423 1222.5 c 128,-1,27
 361 1205 361 1205 308 1236 c 0,28,29
 244 1272 244 1272 228 1332 c 128,-1,30
 212 1392 212 1392 244 1447 c 0,31,32
 276 1503 276 1503 339 1524.5 c 128,-1,33
 402 1546 402 1546 460 1511 c 0,22,23
EndSplineSet
EndChar
StartChar: k
Encoding: 107 107 78
Width: 1093
VWidth: 3622
Flags: W
VStem: 241 76<32 479 683 1596.33>
Fore
345 591 m 1,0,-1
 1026 65 l 1,1,2
 1037 30 1037 30 1015.5 15 c 128,-1,3
 994 0 994 0 964 4 c 1,4,5
 872 73 872 73 790.5 134.5 c 128,-1,6
 709 196 709 196 631.5 254.5 c 128,-1,7
 554 313 554 313 476 369 c 128,-1,8
 398 425 398 425 317 479 c 1,9,-1
 313 32 l 1,10,11
 310 25 310 25 303.5 15 c 128,-1,12
 297 5 297 5 287.5 -1 c 128,-1,13
 278 -7 278 -7 266.5 -5.5 c 128,-1,14
 255 -4 255 -4 241 16 c 1,15,-1
 244 1580 l 2,16,17
 244 1603 244 1603 254.5 1614.5 c 128,-1,18
 265 1626 265 1626 279.5 1623 c 128,-1,19
 294 1620 294 1620 305.5 1604 c 128,-1,20
 317 1588 317 1588 317 1558 c 2,21,-1
 322 683 l 1,22,23
 463 771 463 771 565 837.5 c 128,-1,24
 667 904 667 904 737.5 952.5 c 128,-1,25
 808 1001 808 1001 855 1034 c 128,-1,26
 902 1067 902 1067 934 1088 c 1,27,28
 996 1113 996 1113 1017 1092.5 c 128,-1,29
 1038 1072 1038 1072 1010 1035 c 1,30,-1
 345 591 l 1,0,-1
EndSplineSet
EndChar
StartChar: l
Encoding: 108 108 79
Width: 497
VWidth: 3622
Flags: W
HStem: 1766 20G<218 234>
VStem: 193 76<40.8939 902 902 902 902 1766.38>
Fore
279 62 m 1,0,1
 276 41 276 41 262.5 29.5 c 128,-1,2
 249 18 249 18 233.5 18 c 128,-1,3
 218 18 218 18 205.5 29.5 c 128,-1,4
 193 41 193 41 193 62 c 2,5,-1
 180 1742 l 1,6,7
 184 1763 184 1763 197 1774.5 c 128,-1,8
 210 1786 210 1786 226 1786 c 128,-1,9
 242 1786 242 1786 255.5 1774.5 c 128,-1,10
 269 1763 269 1763 269 1742 c 2,11,-1
 279 62 l 1,0,1
EndSplineSet
EndChar
StartChar: m
Encoding: 109 109 80
Width: 1662
VWidth: 3622
Flags: W
HStem: 996 72<487.595 683.253 1045.13 1277.04>
VStem: 200 94<21.9607 41 41 102.829 102.829 288.766 709 874 874 908.438> 824 85<4.00757 84.0771 84.0771 90.9271 90.9271 232.631 232.631 243.389 243.389 449.218> 1399 71<25 99.8694 99.8694 224.365 224.365 277.815 277.815 489.212 489.212 661.061>
Fore
294 709 m 1,0,1
 315 826 315 826 342.5 897 c 128,-1,2
 370 968 370 968 404.5 1006 c 128,-1,3
 439 1044 439 1044 482 1056 c 128,-1,4
 525 1068 525 1068 580 1068 c 0,5,6
 709 1068 709 1068 780 961 c 128,-1,7
 851 854 851 854 865 692 c 1,8,9
 888 854 888 854 943.5 964.5 c 128,-1,10
 999 1075 999 1075 1137 1075 c 0,11,12
 1289 1075 1289 1075 1360 987 c 128,-1,13
 1431 899 1431 899 1456.5 752 c 128,-1,14
 1482 605 1482 605 1476 416.5 c 128,-1,15
 1470 228 1470 228 1470 32 c 0,16,17
 1470 4 1470 4 1438 0 c 128,-1,18
 1406 -4 1406 -4 1399 25 c 0,19,20
 1390 80 1390 80 1394.5 176 c 128,-1,21
 1399 272 1399 272 1401 380 c 128,-1,22
 1403 488 1403 488 1396.5 598.5 c 128,-1,23
 1390 709 1390 709 1365.5 800 c 128,-1,24
 1341 891 1341 891 1286 948.5 c 128,-1,25
 1231 1006 1231 1006 1141 1006 c 0,26,27
 1075 1006 1075 1006 1033.5 941.5 c 128,-1,28
 992 877 992 877 964.5 777 c 128,-1,29
 937 677 937 677 926.5 556 c 128,-1,30
 916 435 916 435 911 328 c 128,-1,31
 906 221 906 221 907.5 138 c 128,-1,32
 909 55 909 55 909 32 c 1,33,34
 902 4 902 4 864 4 c 128,-1,35
 826 4 826 4 826 35 c 0,36,37
 822 65 822 65 824 148.5 c 128,-1,38
 826 232 826 232 824 339 c 128,-1,39
 822 446 822 446 813.5 561.5 c 128,-1,40
 805 677 805 677 777.5 775.5 c 128,-1,41
 750 874 750 874 699.5 935 c 128,-1,42
 649 996 649 996 570 996 c 0,43,44
 501 996 501 996 456.5 936.5 c 128,-1,45
 412 877 412 877 384 786 c 128,-1,46
 356 695 356 695 339 583 c 128,-1,47
 322 471 322 471 315 365.5 c 128,-1,48
 308 260 308 260 304.5 171.5 c 128,-1,49
 301 83 301 83 297 41 c 0,50,51
 297 21 297 21 283 14 c 128,-1,52
 269 7 269 7 252 7 c 128,-1,53
 235 7 235 7 222.5 16 c 128,-1,54
 210 25 210 25 210 41 c 2,55,-1
 200 874 l 2,56,57
 200 891 200 891 193 909 c 0,58,59
 180 946 180 946 142 989 c 0,60,61
 131 1003 131 1003 136.5 1018 c 128,-1,62
 142 1033 142 1033 156 1040 c 128,-1,63
 170 1047 170 1047 190 1045.5 c 128,-1,64
 210 1044 210 1044 228 1026 c 0,65,66
 256 989 256 989 276 937 c 0,67,68
 287 909 287 909 294 881 c 1,69,-1
 294 709 l 1,0,1
EndSplineSet
EndChar
StartChar: n
Encoding: 110 110 81
Width: 1123
VWidth: 3622
Flags: W
HStem: 982 72<505.33 759.795>
VStem: 193 86<706 858 858 880.607> 214 90<21.8361 108.081 108.081 324.48> 881 79<16.0676 696.566>
Fore
279 706 m 1,0,1
 297 815 297 815 328 884 c 128,-1,2
 359 953 359 953 402.5 991 c 128,-1,3
 446 1029 446 1029 500 1041.5 c 128,-1,4
 554 1054 554 1054 616 1054 c 0,5,6
 801 1054 801 1054 880.5 940 c 128,-1,7
 960 826 960 826 960 564 c 2,8,-1
 960 41 l 1,9,10
 953 18 953 18 917 16 c 128,-1,11
 881 14 881 14 881 41 c 2,12,-1
 877 570 l 2,13,14
 874 653 874 653 867.5 727 c 128,-1,15
 861 801 861 801 834.5 857 c 128,-1,16
 808 913 808 913 755 947.5 c 128,-1,17
 702 982 702 982 608 982 c 0,18,19
 525 982 525 982 471 926 c 128,-1,20
 417 870 417 870 384.5 779 c 128,-1,21
 352 688 352 688 337 579.5 c 128,-1,22
 322 471 322 471 315 365.5 c 128,-1,23
 308 260 308 260 308 173.5 c 128,-1,24
 308 87 308 87 304 44 c 0,25,26
 304 25 304 25 290 14.5 c 128,-1,27
 276 4 276 4 259 4 c 128,-1,28
 242 4 242 4 228 14.5 c 128,-1,29
 214 25 214 25 214 48 c 2,30,-1
 193 858 l 1,31,32
 187 877 187 877 180 899 c 0,33,34
 173 916 173 916 161 938 c 128,-1,35
 149 960 149 960 127 985 c 0,36,37
 117 999 117 999 122 1014 c 128,-1,38
 127 1029 127 1029 141.5 1036.5 c 128,-1,39
 156 1044 156 1044 176 1042 c 128,-1,40
 196 1040 196 1040 214 1022 c 0,41,42
 242 985 242 985 260 934 c 0,43,44
 272 906 272 906 279 877 c 1,45,-1
 279 706 l 1,0,1
EndSplineSet
EndChar
StartChar: o
Encoding: 111 111 82
Width: 1202
VWidth: 3622
Flags: W
HStem: 0 90<497.16 742.722> 992 80<380.408 776.811>
VStem: 73 86<296.402 756.442> 1037 86<293.833 723.159>
Fore
1123 515 m 0,0,1
 1123 373 1123 373 1081.5 275 c 128,-1,2
 1040 177 1040 177 967.5 116 c 128,-1,3
 895 55 895 55 797 27.5 c 128,-1,4
 699 0 699 0 587 0 c 0,5,6
 504 0 504 0 413 24 c 128,-1,7
 322 48 322 48 246 105.5 c 128,-1,8
 170 163 170 163 121.5 257.5 c 128,-1,9
 73 352 73 352 73 493 c 0,10,11
 73 764 73 764 207 918 c 128,-1,12
 341 1072 341 1072 601 1072 c 0,13,14
 702 1072 702 1072 796.5 1037.5 c 128,-1,15
 891 1003 891 1003 964 932 c 128,-1,16
 1037 861 1037 861 1080 757 c 128,-1,17
 1123 653 1123 653 1123 515 c 0,0,1
1037 485 m 0,18,19
 1037 619 1037 619 1000.5 715.5 c 128,-1,20
 964 812 964 812 902 873 c 128,-1,21
 840 934 840 934 762.5 963 c 128,-1,22
 685 992 685 992 601 992 c 0,23,24
 387 992 387 992 273 869 c 128,-1,25
 159 746 159 746 159 493 c 0,26,27
 159 377 159 377 199 299 c 128,-1,28
 239 221 239 221 301 174 c 128,-1,29
 363 127 363 127 439 108.5 c 128,-1,30
 515 90 515 90 587 90 c 0,31,32
 681 90 681 90 762.5 110.5 c 128,-1,33
 844 131 844 131 904 178 c 128,-1,34
 964 225 964 225 1000.5 301 c 128,-1,35
 1037 377 1037 377 1037 485 c 0,18,19
EndSplineSet
EndChar
StartChar: p
Encoding: 112 112 83
Width: 1247
VWidth: 3622
Flags: W
HStem: -467 21G<145 161> 4 90<527.525 825.515> 982 86<475.692 691.443>
VStem: 111.5 81.5<-435 -300.123 865 872> 133 81<-175.675 -10.5424 -10.5424 148.811 288.749 440.85 440.85 496.377 496.377 615.546 615.546 630 630 788.09> 1047 87<313.297 752.444>
Fore
218 653 m 0,0,1
 214 617 214 617 214 578 c 128,-1,2
 214 539 214 539 214 488 c 0,3,4
 214 444 214 444 215 393.5 c 128,-1,5
 216 343 216 343 221 287 c 1,6,7
 253 235 253 235 299 199 c 128,-1,8
 345 163 345 163 398 140 c 128,-1,9
 451 117 451 117 507.5 105.5 c 128,-1,10
 564 94 564 94 616 94 c 0,11,12
 821 101 821 101 934 211.5 c 128,-1,13
 1047 322 1047 322 1047 557 c 0,14,15
 1044 685 1044 685 1001.5 767 c 128,-1,16
 959 849 959 849 895 897 c 128,-1,17
 831 945 831 945 755 963.5 c 128,-1,18
 679 982 679 982 608 982 c 0,19,20
 541 982 541 982 471.5 959 c 128,-1,21
 402 936 402 936 345 893.5 c 128,-1,22
 288 851 288 851 253 790 c 128,-1,23
 218 729 218 729 218 653 c 0,0,1
225 152 m 1,24,25
 219 101 219 101 217.5 48.5 c 128,-1,26
 216 -4 216 -4 213 -70 c 128,-1,27
 210 -136 210 -136 206.5 -223.5 c 128,-1,28
 203 -311 203 -311 196 -432 c 0,29,30
 196 -449 196 -449 183 -458 c 128,-1,31
 170 -467 170 -467 152 -467 c 0,32,33
 138 -467 138 -467 124.5 -459 c 128,-1,34
 111 -451 111 -451 108 -435 c 1,35,36
 122 -173 122 -173 127.5 21.5 c 128,-1,37
 133 216 133 216 133 361 c 0,38,39
 133 524 133 524 128.5 630 c 128,-1,40
 124 736 124 736 111.5 804 c 128,-1,41
 99 872 99 872 79.5 909 c 128,-1,42
 60 946 60 946 28 971 c 1,43,44
 21 983 21 983 21 994 c 0,45,46
 21 1024 21 1024 60 1024 c 0,47,48
 87 1024 87 1024 126.5 990.5 c 128,-1,49
 166 957 166 957 187 902 c 1,50,-1
 193 865 l 1,51,52
 294 964 294 964 398 1016 c 128,-1,53
 502 1068 502 1068 596 1068 c 0,54,55
 637 1068 637 1068 693.5 1060 c 128,-1,56
 750 1052 750 1052 809 1032 c 128,-1,57
 868 1012 868 1012 926.5 975.5 c 128,-1,58
 985 939 985 939 1031 881.5 c 128,-1,59
 1077 824 1077 824 1105.5 743 c 128,-1,60
 1134 662 1134 662 1134 550 c 0,61,62
 1134 414 1134 414 1096 311.5 c 128,-1,63
 1058 209 1058 209 990 141 c 128,-1,64
 922 73 922 73 827 38.5 c 128,-1,65
 732 4 732 4 619 4 c 0,66,67
 571 4 571 4 521.5 7.5 c 128,-1,68
 472 11 472 11 422.5 26 c 128,-1,69
 373 41 373 41 322.5 71 c 128,-1,70
 272 101 272 101 225 152 c 1,24,25
EndSplineSet
EndChar
StartChar: q
Encoding: 113 113 84
Width: 1278
VWidth: 3622
Flags: W
HStem: 2 90<390.615 654.669 647.064 662.273 662.273 789.172> 980 85<499.253 720.885>
VStem: 74 87<300.407 728.046> 964 87<-477.463 -422.515 -422.515 -341.969 -341.969 -83.7006 -83.7006 131>
Fore
996 630 m 2,0,-1
 996 642 l 2,1,2
 996 727 996 727 957 790 c 128,-1,3
 918 853 918 853 857 895 c 128,-1,4
 796 937 796 937 721 958.5 c 128,-1,5
 646 980 646 980 575 980 c 256,6,7
 504 980 504 980 430.5 958.5 c 128,-1,8
 357 937 357 937 297 884 c 128,-1,9
 237 831 237 831 199 742.5 c 128,-1,10
 161 654 161 654 161 522 c 0,11,12
 161 308 161 308 279.5 200 c 128,-1,13
 398 92 398 92 605 92 c 0,14,15
 654 92 654 92 707.5 102.5 c 128,-1,16
 761 113 761 113 809.5 134.5 c 128,-1,17
 858 156 858 156 900.5 188.5 c 128,-1,18
 943 221 943 221 975 265 c 1,19,20
 996 515 996 515 996 630 c 2,0,-1
964 131 m 1,21,22
 920 88 920 88 876.5 62.5 c 128,-1,23
 833 37 833 37 790.5 24 c 128,-1,24
 748 11 748 11 705.5 6.5 c 128,-1,25
 663 2 663 2 619 2 c 0,26,27
 502 2 502 2 402 33 c 128,-1,28
 302 64 302 64 229.5 128.5 c 128,-1,29
 157 193 157 193 115.5 291 c 128,-1,30
 74 389 74 389 74 522 c 0,31,32
 74 635 74 635 100 719 c 128,-1,33
 126 803 126 803 167.5 863 c 128,-1,34
 209 923 209 923 263 962 c 128,-1,35
 317 1001 317 1001 375 1024 c 128,-1,36
 433 1047 433 1047 491.5 1056 c 128,-1,37
 550 1065 550 1065 598 1065 c 0,38,39
 702 1065 702 1065 809 1012.5 c 128,-1,40
 916 960 916 960 1033 844 c 1,41,-1
 1037 877 l 1,42,43
 1045 900 1045 900 1061 922.5 c 128,-1,44
 1077 945 1077 945 1095 960.5 c 128,-1,45
 1113 976 1113 976 1130.5 986 c 128,-1,46
 1148 996 1148 996 1162 996 c 0,47,48
 1182 996 1182 996 1195 987 c 128,-1,49
 1208 978 1208 978 1208 964 c 256,50,51
 1208 950 1208 950 1196.5 936.5 c 128,-1,52
 1185 923 1185 923 1171 909 c 128,-1,53
 1157 895 1157 895 1142.5 877.5 c 128,-1,54
 1128 860 1128 860 1123 837 c 0,55,56
 1109 784 1109 784 1096 701.5 c 128,-1,57
 1083 619 1083 619 1072 487.5 c 128,-1,58
 1061 356 1061 356 1055 163 c 128,-1,59
 1049 -30 1049 -30 1049 -302 c 0,60,61
 1049 -341 1049 -341 1050 -382 c 128,-1,62
 1051 -423 1051 -423 1051 -463 c 1,63,64
 1047 -479 1047 -479 1035.5 -486 c 128,-1,65
 1024 -493 1024 -493 1010 -493 c 0,66,67
 992 -493 992 -493 978 -483.5 c 128,-1,68
 964 -474 964 -474 964 -460 c 2,69,-1
 964 -453 l 1,70,-1
 964 131 l 1,21,22
EndSplineSet
EndChar
StartChar: r
Encoding: 114 114 85
Width: 850
VWidth: 3622
Flags: W
HStem: 975 86<412.954 601.334>
VStem: 73 91.5<664.736 980.069 980.069 1054> 112 96.5<4.08789 70.2385 70.2385 98.4155 98.4155 176.6 176.6 315.659 315.659 336.135> 695 83<719.863 822.081 817.691 826.471 826.471 849.5>
Fore
159 1054 m 1,0,1
 159 998 159 998 164.5 905 c 128,-1,2
 170 812 170 812 180 660 c 1,3,4
 180 771 180 771 213 848 c 128,-1,5
 246 925 246 925 293.5 972 c 128,-1,6
 341 1019 341 1019 397 1040 c 128,-1,7
 453 1061 453 1061 501 1061 c 0,8,9
 585 1058 585 1058 639 1032 c 128,-1,10
 693 1006 693 1006 724 966.5 c 128,-1,11
 755 927 755 927 766.5 877.5 c 128,-1,12
 778 828 778 828 778 778 c 0,13,14
 778 741 778 741 768.5 705 c 128,-1,15
 759 669 759 669 739.5 640.5 c 128,-1,16
 720 612 720 612 691.5 594.5 c 128,-1,17
 663 577 663 577 628 577 c 0,18,19
 596 577 596 577 565 583 c 128,-1,20
 534 589 534 589 534 607 c 0,21,22
 534 631 534 631 545.5 642.5 c 128,-1,23
 557 654 557 654 575.5 659.5 c 128,-1,24
 594 665 594 665 614.5 668.5 c 128,-1,25
 635 672 635 672 653.5 682 c 128,-1,26
 672 692 672 692 683.5 714 c 128,-1,27
 695 736 695 736 695 778 c 0,28,29
 695 815 695 815 686 849.5 c 128,-1,30
 677 884 677 884 655 912.5 c 128,-1,31
 633 941 633 941 595 958 c 128,-1,32
 557 975 557 975 501 975 c 0,33,34
 423 975 423 975 371.5 919 c 128,-1,35
 320 863 320 863 288 775.5 c 128,-1,36
 256 688 256 688 240.5 579.5 c 128,-1,37
 225 471 225 471 217.5 365.5 c 128,-1,38
 210 260 210 260 208.5 170 c 128,-1,39
 207 80 207 80 203 28 c 0,40,41
 203 7 203 7 189 -3.5 c 128,-1,42
 175 -14 175 -14 157 -14 c 256,43,44
 140 -14 140 -14 125.5 -3.5 c 128,-1,45
 111 7 111 7 111 28 c 0,46,47
 111 62 111 62 112 113 c 128,-1,48
 113 164 113 164 113 241 c 0,49,50
 113 363 113 363 106 559 c 128,-1,51
 99 755 99 755 73 1051 c 0,52,53
 73 1070 73 1070 84.5 1080 c 128,-1,54
 96 1090 96 1090 110 1090 c 0,55,56
 126 1090 126 1090 141 1080 c 128,-1,57
 156 1070 156 1070 159 1054 c 1,0,1
EndSplineSet
EndChar
StartChar: s
Encoding: 115 115 86
Width: 840
VWidth: 3622
Flags: W
HStem: -4 87<348.591 509.302> 989 86<267.414 486.414>
VStem: 73 86<687.528 816.187 814.512 817.862 817.862 840.5 867.5 905.484> 663 87<209.662 378.999 761 795.818>
Fore
663 761 m 1,0,1
 663 762 663 762 663 773.5 c 128,-1,2
 663 785 663 785 659.5 802 c 128,-1,3
 656 819 656 819 649 839.5 c 128,-1,4
 642 860 642 860 630 879 c 0,5,6
 605 920 605 920 549 954.5 c 128,-1,7
 493 989 493 989 387 989 c 0,8,9
 311 989 311 989 266 964 c 128,-1,10
 221 939 221 939 197 906.5 c 128,-1,11
 173 874 173 874 166 840.5 c 128,-1,12
 159 807 159 807 159 789 c 0,13,14
 159 723 159 723 204 686 c 128,-1,15
 249 649 249 649 316.5 622.5 c 128,-1,16
 384 596 384 596 461.5 572 c 128,-1,17
 539 548 539 548 606.5 511 c 128,-1,18
 674 474 674 474 719 414 c 128,-1,19
 764 354 764 354 764 256 c 0,20,21
 764 210 764 210 743 163.5 c 128,-1,22
 722 117 722 117 679.5 79.5 c 128,-1,23
 637 42 637 42 574 19 c 128,-1,24
 511 -4 511 -4 428 -4 c 0,25,26
 350 -4 350 -4 284.5 21 c 128,-1,27
 219 46 219 46 169 86.5 c 128,-1,28
 119 127 119 127 87 177.5 c 128,-1,29
 55 228 55 228 44 279 c 1,30,31
 62 313 62 313 79 317.5 c 128,-1,32
 96 322 96 322 113.5 307 c 128,-1,33
 131 292 131 292 149.5 262 c 128,-1,34
 168 232 168 232 189 200 c 0,35,36
 203 179 203 179 222.5 157.5 c 128,-1,37
 242 136 242 136 269.5 119.5 c 128,-1,38
 297 103 297 103 336 93 c 128,-1,39
 375 83 375 83 428 83 c 0,40,41
 499 83 499 83 546.5 101.5 c 128,-1,42
 594 120 594 120 623.5 146.5 c 128,-1,43
 653 173 653 173 665 203 c 128,-1,44
 677 233 677 233 677 256 c 0,45,46
 677 334 677 334 632 380 c 128,-1,47
 587 426 587 426 520 456 c 128,-1,48
 453 486 453 486 375 509 c 128,-1,49
 297 532 297 532 230 565 c 128,-1,50
 163 598 163 598 118 650 c 128,-1,51
 73 702 73 702 73 789 c 0,52,53
 73 819 73 819 85 867.5 c 128,-1,54
 97 916 97 916 131.5 962 c 128,-1,55
 166 1008 166 1008 227 1041.5 c 128,-1,56
 288 1075 288 1075 387 1075 c 0,57,58
 472 1077 472 1077 539.5 1055 c 128,-1,59
 607 1033 607 1033 653.5 992.5 c 128,-1,60
 700 952 700 952 725 895 c 128,-1,61
 750 838 750 838 750 771 c 0,62,63
 750 734 750 734 709 731 c 0,64,65
 672 729 672 729 663 764 c 1,66,-1
 663 761 l 1,0,1
EndSplineSet
EndChar
StartChar: t
Encoding: 116 116 87
Width: 742
VWidth: 3622
Flags: W
HStem: 27 93<405.701 581.68> 829 91<336.785 440.788 440.788 473.943>
VStem: 35 678<256 914 892.995 940.536> 239.5 96.5<391.821 598.808 598.808 637.665 637.665 700.5 700.5 764.244 764.244 826> 285.5 98.5<1359.65 1387.79 1387.79 1443.37 1443.37 1506.65> 619 94<200.027 271.085>
Fore
246 930 m 1,0,1
 260 1033 260 1033 265.5 1131 c 128,-1,2
 271 1229 271 1229 275 1309 c 128,-1,3
 279 1389 279 1389 285.5 1442.5 c 128,-1,4
 292 1496 292 1496 308 1507 c 1,5,6
 329 1514 329 1514 352 1514 c 0,7,8
 384 1514 384 1514 384 1475 c 1,9,10
 379 1447 379 1447 373.5 1408 c 128,-1,11
 368 1369 368 1369 362.5 1305.5 c 128,-1,12
 357 1242 357 1242 351 1148 c 128,-1,13
 345 1054 345 1054 336 920 c 1,14,15
 426 920 426 920 475.5 914.5 c 128,-1,16
 525 909 525 909 548 900 c 128,-1,17
 571 891 571 891 575.5 880.5 c 128,-1,18
 580 870 580 870 580 861 c 1,19,20
 577 844 577 844 547.5 837 c 128,-1,21
 518 830 518 830 480 829 c 128,-1,22
 442 828 442 828 401.5 829 c 128,-1,23
 361 830 361 830 336 826 c 1,24,-1
 336 739 l 2,25,26
 336 577 336 577 339.5 460 c 128,-1,27
 343 343 343 343 359 268 c 128,-1,28
 375 193 375 193 408.5 156.5 c 128,-1,29
 442 120 442 120 501 120 c 0,30,31
 557 120 557 120 582.5 165 c 128,-1,32
 608 210 608 210 619 279 c 0,33,34
 624 320 624 320 654 320 c 0,35,36
 674 320 674 320 691.5 303.5 c 128,-1,37
 709 287 709 287 713 256 c 1,38,39
 693 140 693 140 646.5 83.5 c 128,-1,40
 600 27 600 27 490 27 c 0,41,42
 416 27 416 27 367 65 c 128,-1,43
 318 103 318 103 289 173.5 c 128,-1,44
 260 244 260 244 248.5 346 c 128,-1,45
 237 448 237 448 237 575 c 0,46,47
 237 635 237 635 239.5 700.5 c 128,-1,48
 242 766 242 766 246 837 c 1,49,50
 205 847 205 847 168 853.5 c 128,-1,51
 131 860 131 860 101 868 c 128,-1,52
 71 876 71 876 53 886.5 c 128,-1,53
 35 897 35 897 35 914 c 0,54,55
 35 937 35 937 56.5 946 c 128,-1,56
 78 955 78 955 106 955 c 0,57,58
 126 955 126 955 148 951.5 c 128,-1,59
 170 948 170 948 189.5 944.5 c 128,-1,60
 209 941 209 941 224 936.5 c 128,-1,61
 239 932 239 932 246 930 c 1,0,1
EndSplineSet
EndChar
StartChar: u
Encoding: 117 117 88
Width: 1101
VWidth: 3622
Flags: W
HStem: 4 72<350.182 588.749> 1034 20G<837.5 854>
VStem: 145 83<368.281 1017> 801 90<746.087 787.761 787.761 948.888 948.888 1035.26> 837 76<162.07 337.864>
Fore
845 357 m 1,0,1
 828 246 828 246 795 177 c 128,-1,2
 762 108 762 108 716 69 c 128,-1,3
 670 30 670 30 612.5 16 c 128,-1,4
 555 2 555 2 488 4 c 0,5,6
 396 5 396 5 330.5 33.5 c 128,-1,7
 265 62 265 62 224.5 120.5 c 128,-1,8
 184 179 184 179 164.5 271 c 128,-1,9
 145 363 145 363 145 493 c 2,10,-1
 145 1017 l 1,11,12
 154 1042 154 1042 193 1042 c 0,13,14
 225 1042 225 1042 225 1017 c 2,15,-1
 228 488 l 2,16,17
 232 405 232 405 238 330.5 c 128,-1,18
 244 256 244 256 269.5 199.5 c 128,-1,19
 295 143 295 143 348.5 109.5 c 128,-1,20
 402 76 402 76 497 76 c 256,21,22
 593 76 593 76 652 133.5 c 128,-1,23
 711 191 711 191 744 280.5 c 128,-1,24
 777 370 777 370 788 479.5 c 128,-1,25
 799 589 799 589 801 692.5 c 128,-1,26
 803 796 803 796 800.5 882.5 c 128,-1,27
 798 969 798 969 801 1014 c 0,28,29
 801 1033 801 1033 815.5 1043.5 c 128,-1,30
 830 1054 830 1054 845 1054 c 0,31,32
 863 1054 863 1054 876.5 1043.5 c 128,-1,33
 890 1033 890 1033 891 1010 c 2,34,-1
 913 200 l 2,35,36
 913 172 913 172 930.5 136.5 c 128,-1,37
 948 101 948 101 978 73 c 1,38,39
 983 62 983 62 983 51 c 0,40,41
 983 35 983 35 971 24.5 c 128,-1,42
 959 14 959 14 939 14 c 0,43,44
 916 14 916 14 900 27.5 c 128,-1,45
 884 41 884 41 872.5 64 c 128,-1,46
 861 87 861 87 852.5 115 c 128,-1,47
 844 143 844 143 837 173 c 1,48,-1
 845 357 l 1,0,1
EndSplineSet
EndChar
StartChar: v
Encoding: 118 118 89
Width: 1050
VWidth: 3622
Flags: W
HStem: 21 87<487.009 581.01> 1050 20G<926 943>
VStem: 122 846<1017 1022 999 1017 1274.26 1498.46>
Fore
210 1003 m 0,0,1
 218 987 218 987 237 915.5 c 128,-1,2
 256 844 256 844 283.5 744 c 128,-1,3
 311 644 311 644 344 532.5 c 128,-1,4
 377 421 377 421 411.5 326.5 c 128,-1,5
 446 232 446 232 477.5 170 c 128,-1,6
 509 108 509 108 536 108 c 0,7,8
 559 108 559 108 590 169 c 128,-1,9
 621 230 621 230 655.5 323 c 128,-1,10
 690 416 690 416 724.5 527.5 c 128,-1,11
 759 639 759 639 789 738.5 c 128,-1,12
 819 838 819 838 840 912.5 c 128,-1,13
 861 987 861 987 870 1006 c 0,14,15
 879 1033 879 1033 897.5 1051.5 c 128,-1,16
 916 1070 916 1070 936 1070 c 0,17,18
 950 1070 950 1070 959 1057.5 c 128,-1,19
 968 1045 968 1045 968 1017 c 1,20,21
 964 1008 964 1008 951.5 961 c 128,-1,22
 939 914 939 914 919 842.5 c 128,-1,23
 899 771 899 771 871.5 682.5 c 128,-1,24
 844 594 844 594 812 503 c 128,-1,25
 780 412 780 412 744.5 325.5 c 128,-1,26
 709 239 709 239 674 171 c 128,-1,27
 639 103 639 103 603.5 62 c 128,-1,28
 568 21 568 21 536 21 c 0,29,30
 495 21 495 21 452.5 79.5 c 128,-1,31
 410 138 410 138 370.5 228 c 128,-1,32
 331 318 331 318 293.5 427 c 128,-1,33
 256 536 256 536 225.5 637 c 128,-1,34
 195 738 195 738 172 817.5 c 128,-1,35
 149 897 149 897 138 927 c 0,36,37
 129 950 129 950 125.5 967.5 c 128,-1,38
 122 985 122 985 122 999 c 0,39,40
 122 1022 122 1022 131 1031 c 128,-1,41
 140 1040 140 1040 152 1040 c 0,42,43
 166 1040 166 1040 183 1030.5 c 128,-1,44
 200 1021 200 1021 210 1003 c 0,0,1
EndSplineSet
EndChar
StartChar: w
Encoding: 119 119 90
Width: 1623
VWidth: 3622
Flags: W
HStem: 7 90<459.073 556.047> 7 110<1115.2 1214.17> 1050 20G<210.5 224.5 1417 1431>
VStem: 173 76<608.537 1041.32> 1390 85<801.946 1038.34>
Fore
1475 1033 m 1,0,1
 1450 746 1450 746 1415 550 c 128,-1,2
 1380 354 1380 354 1339 232.5 c 128,-1,3
 1298 111 1298 111 1256.5 59 c 128,-1,4
 1215 7 1215 7 1180 7 c 0,5,6
 1146 7 1146 7 1095.5 57.5 c 128,-1,7
 1045 108 1045 108 994 198 c 128,-1,8
 943 288 943 288 896 412 c 128,-1,9
 849 536 849 536 822 681 c 1,10,11
 785 536 785 536 747 413 c 128,-1,12
 709 290 709 290 669.5 200 c 128,-1,13
 630 110 630 110 589 58.5 c 128,-1,14
 548 7 548 7 508 7 c 0,15,16
 462 7 462 7 412.5 55.5 c 128,-1,17
 363 104 363 104 317.5 223.5 c 128,-1,18
 272 343 272 343 234 545.5 c 128,-1,19
 196 748 196 748 173 1054 c 1,20,21
 182 1061 182 1061 193.5 1065.5 c 128,-1,22
 205 1070 205 1070 216 1070 c 0,23,24
 233 1070 233 1070 249 1047 c 1,25,26
 276 792 276 792 312 612 c 128,-1,27
 348 432 348 432 384.5 317.5 c 128,-1,28
 421 203 421 203 453.5 150 c 128,-1,29
 486 97 486 97 508 97 c 256,30,31
 529 97 529 97 554.5 135 c 128,-1,32
 580 173 580 173 606.5 236 c 128,-1,33
 633 299 633 299 659.5 377.5 c 128,-1,34
 686 456 686 456 709 538.5 c 128,-1,35
 732 621 732 621 751.5 699 c 128,-1,36
 771 777 771 777 782 837 c 0,37,38
 789 865 789 865 821 865 c 0,39,40
 856 865 856 865 858 826 c 0,41,42
 860 768 860 768 877.5 692.5 c 128,-1,43
 895 617 895 617 921.5 538.5 c 128,-1,44
 948 460 948 460 981.5 384 c 128,-1,45
 1015 308 1015 308 1050.5 248.5 c 128,-1,46
 1086 189 1086 189 1118.5 153 c 128,-1,47
 1151 117 1151 117 1178 117 c 0,48,49
 1194 117 1194 117 1224 180.5 c 128,-1,50
 1254 244 1254 244 1286 366 c 128,-1,51
 1318 488 1318 488 1347 664 c 128,-1,52
 1376 840 1376 840 1390 1065 c 1,53,54
 1410 1075 1410 1075 1424 1079 c 1,55,56
 1438 1079 1438 1079 1450.5 1070 c 128,-1,57
 1463 1061 1463 1061 1475 1033 c 1,0,1
EndSplineSet
EndChar
StartChar: x
Encoding: 120 120 91
Width: 1036
VWidth: 3622
Flags: W
HStem: 1045 20G<160 185.5 819 838.5>
VStem: 103 868<28 51 44 51 44 44>
Fore
877 25 m 1,0,1
 777 152 777 152 687.5 262.5 c 128,-1,2
 598 373 598 373 518 485 c 1,3,4
 423 363 423 363 331 248.5 c 128,-1,5
 239 134 239 134 177 28 c 0,6,7
 161 7 161 7 142 7 c 256,8,9
 122 7 122 7 112.5 17.5 c 128,-1,10
 103 28 103 28 103 44 c 0,11,12
 103 51 103 51 115 75 c 128,-1,13
 127 99 127 99 148.5 134.5 c 128,-1,14
 170 170 170 170 200 215 c 128,-1,15
 230 260 230 260 265 310 c 0,16,17
 294 350 294 350 324 389 c 128,-1,18
 354 428 354 428 380.5 462.5 c 128,-1,19
 407 497 407 497 428 525.5 c 128,-1,20
 449 554 449 554 460 570 c 1,21,22
 391 665 391 665 312 775.5 c 128,-1,23
 233 886 233 886 149 992 c 0,24,25
 138 1006 138 1006 134.5 1017 c 128,-1,26
 131 1028 131 1028 129 1037 c 1,27,28
 129 1051 129 1051 140.5 1058 c 128,-1,29
 152 1065 152 1065 168 1065 c 0,30,31
 203 1065 203 1065 251 1017 c 128,-1,32
 299 969 299 969 348.5 903 c 128,-1,33
 398 837 398 837 444 766 c 128,-1,34
 490 695 490 695 522 649 c 1,35,-1
 798 1044 l 1,36,37
 808 1067 808 1067 830 1067 c 0,38,39
 847 1067 847 1067 860.5 1052.5 c 128,-1,40
 874 1038 874 1038 874 1019 c 0,41,42
 874 1005 874 1005 859.5 977.5 c 128,-1,43
 845 950 845 950 824 917 c 128,-1,44
 803 884 803 884 777.5 849 c 128,-1,45
 752 814 752 814 731 782 c 0,46,47
 692 725 692 725 654 674 c 128,-1,48
 616 623 616 623 580 573 c 1,49,50
 670 446 670 446 762 323 c 128,-1,51
 854 200 854 200 946 83 c 2,52,-1
 971 51 l 1,53,54
 968 23 968 23 955.5 9 c 128,-1,55
 943 -5 943 -5 927 -5 c 0,56,57
 899 -5 899 -5 877 28 c 1,58,-1
 877 25 l 1,0,1
EndSplineSet
EndChar
StartChar: y
Encoding: 121 121 92
Width: 1057
VWidth: 3622
Flags: W
HStem: 1034 20G<107 135.5 883 918>
VStem: 83 80<756.46 1003.57>
Fore
341 -485 m 0,0,1
 398 -347 398 -347 435 -252 c 128,-1,2
 472 -157 472 -157 494 -93.5 c 128,-1,3
 516 -30 516 -30 525 7 c 128,-1,4
 534 44 534 44 534 69 c 0,5,6
 534 78 534 78 519 91 c 128,-1,7
 504 104 504 104 481 123.5 c 128,-1,8
 458 143 458 143 431.5 168 c 128,-1,9
 405 193 405 193 384 225 c 0,10,11
 352 272 352 272 315.5 339.5 c 128,-1,12
 279 407 279 407 240.5 502.5 c 128,-1,13
 202 598 202 598 162 724.5 c 128,-1,14
 122 851 122 851 83 1017 c 1,15,16
 92 1054 92 1054 122 1054 c 0,17,18
 149 1054 149 1054 163 1022 c 1,19,20
 225 780 225 780 282.5 621.5 c 128,-1,21
 340 463 340 463 392 367.5 c 128,-1,22
 444 272 444 272 487.5 227 c 128,-1,23
 531 182 531 182 564 166 c 1,24,25
 582 168 582 168 606.5 212 c 128,-1,26
 631 256 631 256 666.5 355.5 c 128,-1,27
 702 455 702 455 747 618.5 c 128,-1,28
 792 782 792 782 851 1022 c 1,29,30
 867 1060 867 1060 899 1060 c 0,31,32
 937 1060 937 1060 937 1026 c 1,33,-1
 897 819 l 2,34,35
 881 738 881 738 851.5 630 c 128,-1,36
 822 522 822 522 771 369 c 128,-1,37
 720 216 720 216 638.5 6.5 c 128,-1,38
 557 -203 557 -203 439 -488 c 1,39,40
 410 -534 410 -534 377 -534 c 0,41,42
 357 -534 357 -534 346.5 -524.5 c 128,-1,43
 336 -515 336 -515 336 -504 c 0,44,45
 336 -495 336 -495 341 -485 c 0,0,1
EndSplineSet
EndChar
StartChar: z
Encoding: 122 122 93
Width: 1144
VWidth: 3622
Flags: W
HStem: 7 64<176.001 232.575 220.419 244.73 244.73 287.785 287.785 355.365 355.365 461.031 461.031 505.392 505.392 562.696 534.044 678.119 668.696 687.542 687.542 870.935> 960.5 56.5<224.151 287.5 402.5 479.85 479.85 499.033 489.441 676.449 632.45 720.449 720.449 748 825 957.825> 969 78<187.339 210 287.5 399.979>
VStem: 101 939<51 999 128.5 240.979> 101 90<46 92.5264>
Fore
196 69 m 0,0,1
 210 69 210 69 245.5 71 c 128,-1,2
 281 73 281 73 330.5 74.5 c 128,-1,3
 380 76 380 76 441 78 c 128,-1,4
 502 80 502 80 570 80 c 0,5,6
 667 80 667 80 767.5 74.5 c 128,-1,7
 868 69 868 69 960 55 c 1,8,9
 978 46 978 46 978 23 c 256,10,11
 978 0 978 0 959 0 c 2,12,-1
 953 0 l 2,13,14
 842 11 842 11 761.5 14.5 c 128,-1,15
 681 18 681 18 614 18 c 0,16,17
 561 18 561 18 511.5 16 c 128,-1,18
 462 14 462 14 410.5 12.5 c 128,-1,19
 359 11 359 11 300 9 c 128,-1,20
 241 7 241 7 166 7 c 0,21,22
 161 7 161 7 149.5 9.5 c 128,-1,23
 138 12 138 12 127.5 18.5 c 128,-1,24
 117 25 117 25 109 33 c 128,-1,25
 101 41 101 41 101 51 c 0,26,27
 101 65 101 65 117 80 c 0,28,29
 394 398 394 398 610 615.5 c 128,-1,30
 826 833 826 833 960 975 c 1,31,32
 911 966 911 966 825 960.5 c 128,-1,33
 739 955 739 955 640 955 c 0,34,35
 400 955 400 955 287.5 969 c 128,-1,36
 175 983 175 983 175 1024 c 0,37,38
 175 1047 175 1047 210 1047 c 2,39,-1
 221 1047 l 1,40,41
 322 1031 322 1031 402.5 1024 c 128,-1,42
 483 1017 483 1017 557 1017 c 0,43,44
 649 1017 649 1017 748 1028.5 c 128,-1,45
 847 1040 847 1040 983 1040 c 0,46,47
 996 1040 996 1040 1018 1028.5 c 128,-1,48
 1040 1017 1040 1017 1040 999 c 0,49,50
 1040 987 1040 987 1029 975 c 0,51,52
 807 729 807 729 648.5 561.5 c 128,-1,53
 490 394 490 394 388.5 289 c 128,-1,54
 287 184 287 184 239 133.5 c 128,-1,55
 191 83 191 83 191 73 c 0,56,57
 191 69 191 69 196 69 c 0,0,1
EndSplineSet
EndChar
StartChar: braceleft
Encoding: 123 123 94
Width: 753
VWidth: 3622
Flags: W
HStem: -363 71<476.05 621.791 601.672 642.253> 1518.5 66.5<455.559 607.469 605.969 608.969 608.969 627.515 627.515 664.716>
VStem: 249 66<194.762 349.542 349.542 392.559 392.559 423.859 861.795 952.696 952.696 988.911 988.911 1082.1 1082.1 1240.67>
Fore
637 1580 m 2,0,1
 656 1580 656 1580 665 1573.5 c 128,-1,2
 674 1567 674 1567 674 1548 c 256,3,4
 674 1528 674 1528 665 1523 c 128,-1,5
 656 1518 656 1518 637 1518 c 0,6,7
 628 1518 628 1518 618 1518.5 c 128,-1,8
 608 1519 608 1519 600 1519 c 0,9,10
 522 1519 522 1519 467 1491 c 128,-1,11
 412 1463 412 1463 378.5 1411.5 c 128,-1,12
 345 1360 345 1360 330 1287.5 c 128,-1,13
 315 1215 315 1215 315 1127 c 2,14,-1
 315 1047 l 2,15,16
 315 994 315 994 310.5 930.5 c 128,-1,17
 306 867 306 867 294.5 806 c 128,-1,18
 283 745 283 745 262 693.5 c 128,-1,19
 241 642 241 642 207 616 c 1,20,21
 256 591 256 591 276.5 550 c 128,-1,22
 297 509 297 509 304 448 c 128,-1,23
 311 387 311 387 314 302.5 c 128,-1,24
 317 218 317 218 329 104 c 0,25,26
 338 42 338 42 354.5 -27 c 128,-1,27
 371 -96 371 -96 401.5 -155 c 128,-1,28
 432 -214 432 -214 478 -253 c 128,-1,29
 524 -292 524 -292 591 -292 c 0,30,31
 596 -292 596 -292 601.5 -291 c 128,-1,32
 607 -290 607 -290 612 -290 c 0,33,34
 639 -290 639 -290 651 -300.5 c 128,-1,35
 663 -311 663 -311 663 -325 c 256,36,37
 663 -340 663 -340 649 -351.5 c 128,-1,38
 635 -363 635 -363 608 -363 c 0,39,40
 522 -363 522 -363 461 -327.5 c 128,-1,41
 400 -292 400 -292 360 -234.5 c 128,-1,42
 320 -177 320 -177 298 -104.5 c 128,-1,43
 276 -32 276 -32 265.5 44 c 128,-1,44
 255 120 255 120 252 192.5 c 128,-1,45
 249 265 249 265 249 322 c 0,46,47
 249 343 249 343 245.5 377.5 c 128,-1,48
 242 412 242 412 233.5 446.5 c 128,-1,49
 225 481 225 481 206 510 c 128,-1,50
 187 539 187 539 159 550 c 0,51,52
 133 564 133 564 119.5 582.5 c 128,-1,53
 106 601 106 601 106 621 c 0,54,55
 106 639 106 639 116.5 654 c 128,-1,56
 127 669 127 669 152 677 c 1,57,-1
 152 681 l 1,58,59
 187 681 187 681 206.5 732.5 c 128,-1,60
 226 784 226 784 236 858 c 128,-1,61
 246 932 246 932 247.5 1012.5 c 128,-1,62
 249 1093 249 1093 249 1151 c 2,63,-1
 249 1210 l 2,64,65
 249 1291 249 1291 272 1359 c 128,-1,66
 295 1427 295 1427 337.5 1477.5 c 128,-1,67
 380 1528 380 1528 440.5 1556.5 c 128,-1,68
 501 1585 501 1585 575 1585 c 0,69,70
 605 1585 605 1585 637 1580 c 2,0,1
EndSplineSet
EndChar
StartChar: bar
Encoding: 124 124 95
Width: 504
VWidth: 3622
Flags: W
VStem: 209 73<-36.4214 49.4808 49.4808 218.754> 210.5 79.5<5.64502 157.723 157.723 363.305 363.305 728.031 728.031 1042.93 1042.93 1488.91 1488.91 1538.02 1538.02 1622.48 1622.48 1759.52 1759.52 1873.2 1873.2 1892.12 1882.66 2042.4 2027.52 2057.28 2057.28 2140.43 2140.43 2172.07>
Fore
214 2170 m 1,0,1
 214 2199 214 2199 249 2199 c 0,2,3
 267 2199 267 2199 283 2192 c 1,4,5
 292 2161 292 2161 294.5 2098.5 c 128,-1,6
 297 2036 297 2036 297 1956 c 0,7,8
 297 1896 297 1896 296 1828 c 128,-1,9
 295 1760 295 1760 293.5 1691 c 128,-1,10
 292 1622 292 1622 291 1554 c 128,-1,11
 290 1486 290 1486 290 1424 c 2,12,-1
 290 1054 l 2,13,14
 290 945 290 945 290 837 c 128,-1,15
 290 729 290 729 288 619 c 2,16,-1
 283 221 l 2,17,18
 281 149 281 149 283 95 c 128,-1,19
 285 41 285 41 282 4.5 c 128,-1,20
 279 -32 279 -32 269.5 -50.5 c 128,-1,21
 260 -69 260 -69 239 -69 c 0,22,23
 209 -65 209 -65 209 -41 c 0,24,25
 209 412 209 412 210.5 750 c 128,-1,26
 212 1088 212 1088 215 1333 c 128,-1,27
 218 1578 218 1578 219.5 1740.5 c 128,-1,28
 221 1903 221 1903 221 2004 c 0,29,30
 221 2066 221 2066 219.5 2110 c 128,-1,31
 218 2154 218 2154 214 2170 c 1,0,1
EndSplineSet
EndChar
StartChar: braceright
Encoding: 125 125 96
Width: 753
VWidth: 3622
Flags: W
HStem: -363 73<130.254 173.328 151.962 302.018> 1518 67<118.138 143.242 143.242 156.242 156.242 164.242 164.242 307.306>
VStem: 460 65<111.43 228.131 228.131 259.004 259.004 316.543 316.543 349.542 349.542 422.781 893.045 1030.79 1030.79 1082.1 1082.1 1242.1>
Fore
200 1585 m 0,0,1
 274 1585 274 1585 334 1556.5 c 128,-1,2
 394 1528 394 1528 436.5 1477.5 c 128,-1,3
 479 1427 479 1427 502 1359 c 128,-1,4
 525 1291 525 1291 525 1210 c 2,5,-1
 525 1151 l 2,6,7
 525 1093 525 1093 527 1012.5 c 128,-1,8
 529 932 529 932 538 858 c 128,-1,9
 547 784 547 784 567 732.5 c 128,-1,10
 587 681 587 681 623 681 c 1,11,12
 669 662 669 662 669 621 c 0,13,14
 669 601 669 601 655.5 582.5 c 128,-1,15
 642 564 642 564 616 550 c 1,16,17
 585 539 585 539 567.5 510 c 128,-1,18
 550 481 550 481 541 446.5 c 128,-1,19
 532 412 532 412 528.5 377.5 c 128,-1,20
 525 343 525 343 525 322 c 0,21,22
 525 267 525 267 523.5 195.5 c 128,-1,23
 522 124 522 124 510.5 48 c 128,-1,24
 499 -28 499 -28 477 -102.5 c 128,-1,25
 455 -177 455 -177 413 -234.5 c 128,-1,26
 371 -292 371 -292 308.5 -327.5 c 128,-1,27
 246 -363 246 -363 156 -363 c 0,28,29
 134 -361 134 -361 122.5 -350.5 c 128,-1,30
 111 -340 111 -340 111 -325 c 256,31,32
 111 -311 111 -311 123.5 -300.5 c 128,-1,33
 136 -290 136 -290 163 -290 c 0,34,35
 168 -290 168 -290 173.5 -291 c 128,-1,36
 179 -292 179 -292 182 -292 c 0,37,38
 251 -292 251 -292 299 -253 c 128,-1,39
 347 -214 347 -214 377 -155 c 128,-1,40
 407 -96 407 -96 423.5 -26 c 128,-1,41
 440 44 440 44 447.5 104 c 128,-1,42
 455 164 455 164 455.5 206 c 128,-1,43
 456 248 456 248 456 249 c 0,44,45
 460 325 460 325 463.5 384.5 c 128,-1,46
 467 444 467 444 477.5 488 c 128,-1,47
 488 532 488 532 508.5 563 c 128,-1,48
 529 594 529 594 570 616 c 1,49,50
 529 646 529 646 507 705 c 128,-1,51
 485 764 485 764 474 833 c 128,-1,52
 463 902 463 902 461.5 971 c 128,-1,53
 460 1040 460 1040 460 1090 c 2,54,-1
 460 1128 l 2,55,56
 460 1217 460 1217 445 1288.5 c 128,-1,57
 430 1360 430 1360 396.5 1411.5 c 128,-1,58
 363 1463 363 1463 309 1491 c 128,-1,59
 255 1519 255 1519 175 1519 c 0,60,61
 164 1519 164 1519 153.5 1518.5 c 128,-1,62
 143 1518 143 1518 133 1518 c 0,63,64
 101 1518 101 1518 101 1548 c 0,65,66
 101 1564 101 1564 112.5 1572 c 128,-1,67
 124 1580 124 1580 140 1582.5 c 128,-1,68
 156 1585 156 1585 172.5 1585 c 128,-1,69
 189 1585 189 1585 200 1585 c 0,0,1
EndSplineSet
EndChar
StartChar: asciitilde
Encoding: 126 126 97
Width: 981
VWidth: 3622
Flags: W
HStem: 819 71<597.054 682.765> 893 66<254.046 347.484 341.875 353.092 353.092 386 390 447.485>
VStem: 140 663<849 909 849.604 933.538>
Fore
145 865 m 0,0,1
 202 959 202 959 320 959 c 0,2,3
 356 959 356 959 386 952 c 128,-1,4
 416 945 416 945 448.5 935 c 128,-1,5
 481 925 481 925 520 913.5 c 128,-1,6
 559 902 559 902 610 893 c 0,7,8
 619 891 619 891 626 890.5 c 128,-1,9
 633 890 633 890 642 890 c 0,10,11
 663 890 663 890 681 898 c 128,-1,12
 699 906 699 906 715 915.5 c 128,-1,13
 731 925 731 925 743 933 c 128,-1,14
 755 941 755 941 766 941 c 0,15,16
 780 941 780 941 791.5 929.5 c 128,-1,17
 803 918 803 918 803 909 c 256,18,19
 803 900 803 900 794 891 c 0,20,21
 757 851 757 851 715.5 835 c 128,-1,22
 674 819 674 819 631 819 c 0,23,24
 591 819 591 819 550 830.5 c 128,-1,25
 509 842 509 842 469.5 856 c 128,-1,26
 430 870 430 870 390 881.5 c 128,-1,27
 350 893 350 893 310 893 c 0,28,29
 290 893 290 893 271.5 881.5 c 128,-1,30
 253 870 253 870 236 855 c 128,-1,31
 219 840 219 840 202.5 828.5 c 128,-1,32
 186 817 186 817 173 817 c 0,33,34
 159 817 159 817 149.5 828.5 c 128,-1,35
 140 840 140 840 140 849 c 0,36,37
 140 856 140 856 145 865 c 0,0,1
EndSplineSet
EndChar
StartChar: Euro
Encoding: 8364 8364 98
Width: 1749
VWidth: 3622
Flags: W
HStem: -4 84<911.945 1372.17> 587 83<54.0352 187.094 363 824.5 824.5 1286 1286 1328.53> 1068 94<54.0352 253 377 1321.96> 1680 96<820.808 1351.46>
VStem: 239 84.5<679.368 773.423 773.423 781.273 777.348 975.947>
Fore
90 573 m 2,0,1
 58 573 58 573 43 587 c 128,-1,2
 28 601 28 601 28 617 c 128,-1,3
 28 633 28 633 43 648 c 128,-1,4
 58 663 58 663 90 663 c 2,5,-1
 239 674 l 1,6,7
 232 771 232 771 232 873 c 128,-1,8
 232 975 232 975 253 1068 c 1,9,-1
 90 1072 l 2,10,11
 58 1072 58 1072 43 1087 c 128,-1,12
 28 1102 28 1102 28 1119.5 c 128,-1,13
 28 1137 28 1137 43 1151.5 c 128,-1,14
 58 1166 58 1166 90 1166 c 2,15,-1
 287 1162 l 1,16,17
 318 1311 318 1311 394.5 1425 c 128,-1,18
 471 1539 471 1539 576 1617 c 128,-1,19
 681 1695 681 1695 813.5 1735.5 c 128,-1,20
 946 1776 946 1776 1093 1776 c 0,21,22
 1220 1776 1220 1776 1363.5 1741.5 c 128,-1,23
 1507 1707 1507 1707 1645 1634 c 0,24,25
 1677 1615 1677 1615 1682 1595.5 c 128,-1,26
 1687 1576 1687 1576 1680 1557.5 c 128,-1,27
 1673 1539 1673 1539 1653.5 1532 c 128,-1,28
 1634 1525 1634 1525 1611 1535 c 0,29,30
 1479 1604 1479 1604 1348 1642 c 128,-1,31
 1217 1680 1217 1680 1090 1680 c 0,32,33
 840 1680 840 1680 646.5 1546.5 c 128,-1,34
 453 1413 453 1413 377 1162 c 1,35,-1
 1286 1155 l 2,36,37
 1318 1155 1318 1155 1333 1141 c 128,-1,38
 1348 1127 1348 1127 1348 1108.5 c 128,-1,39
 1348 1090 1348 1090 1333 1075.5 c 128,-1,40
 1318 1061 1318 1061 1286 1061 c 2,41,-1
 345 1068 l 1,42,43
 322 960 322 960 322 822 c 0,44,45
 322 782 322 782 323.5 740.5 c 128,-1,46
 325 699 325 699 333 670 c 1,47,-1
 1286 677 l 2,48,49
 1314 674 1314 674 1329 660 c 128,-1,50
 1344 646 1344 646 1344 629 c 128,-1,51
 1344 612 1344 612 1329 599.5 c 128,-1,52
 1314 587 1314 587 1286 587 c 2,53,-1
 363 577 l 1,54,55
 409 446 409 446 496.5 351 c 128,-1,56
 584 256 584 256 692.5 197 c 128,-1,57
 801 138 801 138 929.5 109 c 128,-1,58
 1058 80 1058 80 1189 80 c 0,59,60
 1304 80 1304 80 1416 102 c 128,-1,61
 1528 124 1528 124 1611 173 c 0,62,63
 1634 184 1634 184 1652 178.5 c 128,-1,64
 1670 173 1670 173 1678.5 161 c 128,-1,65
 1687 149 1687 149 1685.5 133 c 128,-1,66
 1684 117 1684 117 1663 108 c 1,67,-1
 1666 108 l 1,68,69
 1562 55 1562 55 1431 25.5 c 128,-1,70
 1300 -4 1300 -4 1162 -4 c 0,71,72
 1026 -4 1026 -4 886 27 c 128,-1,73
 746 58 746 58 627 127 c 128,-1,74
 508 196 508 196 415 306.5 c 128,-1,75
 322 417 322 417 276 573 c 1,76,-1
 90 573 l 2,0,1
EndSplineSet
EndChar
StartChar: quotesinglbase
Encoding: 8218 8218 99
Width: 456
VWidth: 3622
Flags: W
HStem: -347.5 568.5<107 228 228 228>
VStem: 90 59<45.1963 150.962>
Fore
156 -341 m 1,0,1
 127 -366 127 -366 107 -347.5 c 128,-1,2
 87 -329 87 -329 97 -311 c 0,3,4
 111 -294 111 -294 142 -259.5 c 128,-1,5
 173 -225 173 -225 206 -185 c 128,-1,6
 239 -145 239 -145 268 -103.5 c 128,-1,7
 297 -62 297 -62 308 -28 c 1,8,9
 276 -48 276 -48 238 -49.5 c 128,-1,10
 200 -51 200 -51 167 -36 c 128,-1,11
 134 -21 134 -21 112 10 c 128,-1,12
 90 41 90 41 90 87 c 0,13,14
 94 134 94 134 130 176 c 128,-1,15
 166 218 166 218 228 221 c 0,16,17
 294 228 294 228 333.5 185 c 128,-1,18
 373 142 373 142 380 90 c 0,19,20
 387 25 387 25 358 -46 c 128,-1,21
 329 -117 329 -117 289 -176 c 128,-1,22
 249 -235 249 -235 209.5 -278.5 c 128,-1,23
 170 -322 170 -322 156 -341 c 1,0,1
149 90 m 0,24,25
 149 51 149 51 171 25.5 c 128,-1,26
 193 0 193 0 232 4 c 1,27,28
 269 0 269 0 288.5 27.5 c 128,-1,29
 308 55 308 55 315 83 c 0,30,31
 322 108 322 108 302.5 133.5 c 128,-1,32
 283 159 283 159 235 163 c 0,33,34
 203 166 203 166 176 146.5 c 128,-1,35
 149 127 149 127 149 90 c 0,24,25
EndSplineSet
EndChar
StartChar: florin
Encoding: 402 402 100
Width: 1383
VWidth: 3622
Flags: W
HStem: -177 78<127.675 174.577 174.577 202.542 202.542 361.859> 934 65<295.677 605 699 1045.44> 1604 73<1083 1270.16>
VStem: 605 90<422.837 934 999 1261.17>
Fore
1213 1604 m 0,0,1
 1086 1638 1086 1638 996 1601.5 c 128,-1,2
 906 1565 906 1565 844 1479.5 c 128,-1,3
 782 1394 782 1394 745.5 1269 c 128,-1,4
 709 1144 709 1144 699 999 c 1,5,-1
 1006 999 l 2,6,7
 1044 999 1044 999 1045.5 966.5 c 128,-1,8
 1047 934 1047 934 1006 934 c 2,9,-1
 695 934 l 1,10,11
 688 573 688 573 644.5 355.5 c 128,-1,12
 601 138 601 138 536 22 c 128,-1,13
 471 -94 471 -94 391 -133.5 c 128,-1,14
 311 -173 311 -173 228 -177 c 0,15,16
 177 -180 177 -180 121 -171.5 c 128,-1,17
 65 -163 65 -163 48 -142 c 0,18,19
 21 -111 21 -111 51 -90 c 1,20,21
 62 -80 62 -80 80 -73 c 1,22,23
 131 -97 131 -97 163.5 -99 c 128,-1,24
 196 -101 196 -101 242 -97 c 0,25,26
 417 -90 417 -90 511 171 c 128,-1,27
 605 432 605 432 605 934 c 1,28,-1
 329 934 l 2,29,30
 301 930 301 930 295.5 963 c 128,-1,31
 290 996 290 996 329 999 c 2,32,-1
 616 999 l 1,33,34
 623 1151 623 1151 659 1292.5 c 128,-1,35
 695 1434 695 1434 767.5 1532.5 c 128,-1,36
 840 1631 840 1631 956 1674.5 c 128,-1,37
 1072 1718 1072 1718 1242 1677 c 1,38,39
 1272 1663 1272 1663 1263 1628.5 c 128,-1,40
 1254 1594 1254 1594 1213 1604 c 0,0,1
EndSplineSet
EndChar
StartChar: quotedblbase
Encoding: 8222 8222 101
Width: 971
VWidth: 3622
Flags: W
HStem: -347.5 568.5<107 228 228 228>
VStem: 90 59<45.1963 150.962> 564 59<45.1963 150.962>
Fore
156 -341 m 1,0,1
 127 -366 127 -366 107 -347.5 c 128,-1,2
 87 -329 87 -329 97 -311 c 0,3,4
 111 -294 111 -294 142 -259.5 c 128,-1,5
 173 -225 173 -225 206 -185 c 128,-1,6
 239 -145 239 -145 268 -103.5 c 128,-1,7
 297 -62 297 -62 308 -28 c 1,8,9
 276 -48 276 -48 238 -49.5 c 128,-1,10
 200 -51 200 -51 167 -36 c 128,-1,11
 134 -21 134 -21 112 10 c 128,-1,12
 90 41 90 41 90 87 c 0,13,14
 94 134 94 134 130 176 c 128,-1,15
 166 218 166 218 228 221 c 0,16,17
 294 228 294 228 333.5 185 c 128,-1,18
 373 142 373 142 380 90 c 0,19,20
 387 25 387 25 358 -46 c 128,-1,21
 329 -117 329 -117 289 -176 c 128,-1,22
 249 -235 249 -235 209.5 -278.5 c 128,-1,23
 170 -322 170 -322 156 -341 c 1,0,1
149 90 m 0,24,25
 149 51 149 51 171 25.5 c 128,-1,26
 193 0 193 0 232 4 c 1,27,28
 269 0 269 0 288.5 27.5 c 128,-1,29
 308 55 308 55 315 83 c 0,30,31
 322 108 322 108 302.5 133.5 c 128,-1,32
 283 159 283 159 235 163 c 0,33,34
 203 166 203 166 176 146.5 c 128,-1,35
 149 127 149 127 149 90 c 0,24,25
630 -341 m 1,36,37
 601 -366 601 -366 581 -347.5 c 128,-1,38
 561 -329 561 -329 573 -311 c 0,39,40
 587 -294 587 -294 618 -259.5 c 128,-1,41
 649 -225 649 -225 681 -185 c 128,-1,42
 713 -145 713 -145 742 -103.5 c 128,-1,43
 771 -62 771 -62 782 -28 c 1,44,45
 750 -48 750 -48 712 -49.5 c 128,-1,46
 674 -51 674 -51 641 -36 c 128,-1,47
 608 -21 608 -21 586 10 c 128,-1,48
 564 41 564 41 564 87 c 0,49,50
 570 134 570 134 605 176 c 128,-1,51
 640 218 640 218 702 221 c 0,52,53
 768 228 768 228 807.5 185 c 128,-1,54
 847 142 847 142 854 90 c 0,55,56
 861 25 861 25 833 -46 c 128,-1,57
 805 -117 805 -117 765 -176 c 128,-1,58
 725 -235 725 -235 685.5 -278.5 c 128,-1,59
 646 -322 646 -322 630 -341 c 1,36,37
623 90 m 0,60,61
 623 51 623 51 645 25.5 c 128,-1,62
 667 0 667 0 706 4 c 1,63,64
 743 0 743 0 762.5 27.5 c 128,-1,65
 782 55 782 55 789 83 c 0,66,67
 798 108 798 108 777.5 133.5 c 128,-1,68
 757 159 757 159 709 163 c 0,69,70
 677 166 677 166 650 146.5 c 128,-1,71
 623 127 623 127 623 90 c 0,60,61
EndSplineSet
EndChar
StartChar: ellipsis
Encoding: 8230 8230 102
Width: 2608
VWidth: 3622
Flags: W
HStem: -4 177<383.331 478.202 1231.36 1354.12 2085.36 2209.09>
VStem: 356 180<24.3615 145.67> 1203 180<24.3615 145.67> 2057 182<24.3615 145.67>
Fore
356 87 m 0,0,1
 356 120 356 120 382.5 146.5 c 128,-1,2
 409 173 409 173 446 173 c 0,3,4
 478 173 478 173 507 146.5 c 128,-1,5
 536 120 536 120 536 87 c 0,6,7
 536 51 536 51 507 23.5 c 128,-1,8
 478 -4 478 -4 446 -4 c 0,9,10
 409 -4 409 -4 382.5 23.5 c 128,-1,11
 356 51 356 51 356 87 c 0,0,1
1203 87 m 0,12,13
 1203 120 1203 120 1230.5 146.5 c 128,-1,14
 1258 173 1258 173 1293 173 c 0,15,16
 1327 173 1327 173 1355 146.5 c 128,-1,17
 1383 120 1383 120 1383 87 c 0,18,19
 1383 51 1383 51 1355 23.5 c 128,-1,20
 1327 -4 1327 -4 1293 -4 c 0,21,22
 1258 -4 1258 -4 1230.5 23.5 c 128,-1,23
 1203 51 1203 51 1203 87 c 0,12,13
2057 87 m 0,24,25
 2057 120 2057 120 2084.5 146.5 c 128,-1,26
 2112 173 2112 173 2147 173 c 0,27,28
 2181 173 2181 173 2210 146.5 c 128,-1,29
 2239 120 2239 120 2239 87 c 0,30,31
 2239 51 2239 51 2210 23.5 c 128,-1,32
 2181 -4 2181 -4 2147 -4 c 0,33,34
 2112 -4 2112 -4 2084.5 23.5 c 128,-1,35
 2057 51 2057 51 2057 87 c 0,24,25
EndSplineSet
EndChar
StartChar: dagger
Encoding: 8224 8224 103
Width: 1383
VWidth: 3622
Flags: W
HStem: 1075 91<169.469 233.6 233.6 279.608 279.608 333.604 333.604 438.758 438.758 570.792 570.792 623 1052.71 1169.75> 1086 82.5<725 877.727 877.727 914.304 914.304 993.819 993.819 1051 1051 1084.45>
VStem: 626 99<719.977 1079 1171 1723.31>
Fore
193 1155 m 0,0,1
 283 1159 283 1159 366 1162 c 0,2,3
 439 1166 439 1166 511.5 1166 c 128,-1,4
 584 1166 584 1166 626 1166 c 1,5,-1
 626 1700 l 1,6,7
 623 1721 623 1721 638 1733.5 c 128,-1,8
 653 1746 653 1746 672.5 1746 c 128,-1,9
 692 1746 692 1746 708.5 1733.5 c 128,-1,10
 725 1721 725 1721 725 1695 c 2,11,-1
 725 1171 l 1,12,13
 764 1171 764 1171 840 1171 c 128,-1,14
 916 1171 916 1171 988.5 1168.5 c 128,-1,15
 1061 1166 1061 1166 1117.5 1157 c 128,-1,16
 1174 1148 1174 1148 1178 1130 c 0,17,18
 1182 1116 1182 1116 1182 1102 c 1,19,20
 1178 1090 1178 1090 1170 1079 c 128,-1,21
 1162 1068 1162 1068 1141 1072 c 0,22,23
 1106 1075 1106 1075 1051 1077 c 128,-1,24
 996 1079 996 1079 936.5 1082.5 c 128,-1,25
 877 1086 877 1086 819 1086 c 128,-1,26
 761 1086 761 1086 722 1086 c 1,27,-1
 739 -65 l 1,28,29
 729 -111 729 -111 687.5 -106 c 128,-1,30
 646 -101 646 -101 646 -73 c 2,31,-1
 623 1079 l 1,32,33
 580 1075 580 1075 518 1075 c 128,-1,34
 456 1075 456 1075 392.5 1075 c 128,-1,35
 329 1075 329 1075 275 1071.5 c 128,-1,36
 221 1068 221 1068 193 1065 c 0,37,38
 173 1065 173 1065 164.5 1077.5 c 128,-1,39
 156 1090 156 1090 154 1106.5 c 128,-1,40
 152 1123 152 1123 161 1137 c 128,-1,41
 170 1151 170 1151 193 1155 c 0,0,1
EndSplineSet
EndChar
StartChar: daggerdbl
Encoding: 8225 8225 104
Width: 1383
VWidth: 3622
Flags: W
HStem: 439 93<1050.42 1070.49 1070.49 1154.07> 453 76<226.211 305.938 305.938 327.062 327.062 456.877 456.877 508.387 508.387 580.215 580.215 640 746.877 818.973 818.973 930.85 930.85 1004.46> 1086 92<184.191 278.292 1066.71 1089.66 1089.66 1132 1155 1184.78> 1098 91<291.721 452.758 452.758 585.035 585.035 637 739 891.727 891.727 928.304 928.304 1007.82 1007.82 1108.2>
VStem: 640 99<124.575 449 539 1102 1192 1744.55> 660 94<-84.8379 201 201 202.5 202.5 449>
Fore
649 453 m 1,0,1
 501 460 501 460 373 453 c 0,2,3
 304 449 304 449 239 446 c 0,4,5
 221 446 221 446 212 456.5 c 128,-1,6
 203 467 203 467 205 484 c 128,-1,7
 207 501 207 501 219.5 513 c 128,-1,8
 232 525 232 525 260 525 c 0,9,10
 329 525 329 525 394 529 c 0,11,12
 453 529 453 529 520 530.5 c 128,-1,13
 587 532 587 532 640 525 c 1,14,-1
 637 1102 l 1,15,16
 594 1098 594 1098 532.5 1098 c 128,-1,17
 471 1098 471 1098 408 1098 c 128,-1,18
 345 1098 345 1098 290 1094 c 128,-1,19
 235 1090 235 1090 207 1086 c 0,20,21
 187 1086 187 1086 178.5 1099.5 c 128,-1,22
 170 1113 170 1113 168 1128.5 c 128,-1,23
 166 1144 166 1144 175 1159 c 128,-1,24
 184 1174 184 1174 207 1178 c 0,25,26
 297 1182 297 1182 380 1185 c 0,27,28
 453 1189 453 1189 525.5 1189 c 128,-1,29
 598 1189 598 1189 640 1189 c 1,30,-1
 640 1721 l 1,31,32
 637 1742 637 1742 652 1754.5 c 128,-1,33
 667 1767 667 1767 686.5 1767 c 128,-1,34
 706 1767 706 1767 722.5 1754.5 c 128,-1,35
 739 1742 739 1742 739 1718 c 2,36,-1
 739 1192 l 1,37,38
 778 1192 778 1192 854 1192 c 128,-1,39
 930 1192 930 1192 1002.5 1190.5 c 128,-1,40
 1075 1189 1075 1189 1132 1180 c 128,-1,41
 1189 1171 1189 1171 1192 1151 c 0,42,43
 1196 1137 1196 1137 1196 1123 c 1,44,45
 1192 1113 1192 1113 1185 1101.5 c 128,-1,46
 1178 1090 1178 1090 1155 1093 c 0,47,48
 1120 1098 1120 1098 1065 1100 c 128,-1,49
 1010 1102 1010 1102 950.5 1105.5 c 128,-1,50
 891 1109 891 1109 833 1109 c 128,-1,51
 775 1109 775 1109 736 1109 c 1,52,-1
 743 539 l 1,53,54
 805 539 805 539 869.5 537.5 c 128,-1,55
 934 536 934 536 992 532 c 0,56,57
 1058 529 1058 529 1127 522 c 0,58,59
 1151 522 1151 522 1162.5 507.5 c 128,-1,60
 1174 493 1174 493 1172.5 476.5 c 128,-1,61
 1171 460 1171 460 1156 447.5 c 128,-1,62
 1141 435 1141 435 1113 439 c 0,63,64
 1065 446 1065 446 1006 449 c 0,65,66
 957 453 957 453 891.5 454.5 c 128,-1,67
 826 456 826 456 746 449 c 1,68,-1
 754 -44 l 1,69,70
 743 -90 743 -90 701.5 -85 c 128,-1,71
 660 -80 660 -80 660 -51 c 2,72,-1
 649 453 l 1,0,1
EndSplineSet
EndChar
StartChar: circumflex
Encoding: 710 710 105
Width: 1162
VWidth: 3622
Flags: W
HStem: 1901.5 65.5<523.5 547.185 547.185 548.289 548.289 579.031 579.031 589.096 589.096 594>
VStem: 249 632<1709 1740 1723.19 1724.29>
Fore
308 1709 m 0,0,1
 279 1679 279 1679 252 1694 c 128,-1,2
 225 1709 225 1709 249 1740 c 1,3,4
 325 1813 325 1813 375 1858 c 128,-1,5
 425 1903 425 1903 459 1930.5 c 128,-1,6
 493 1958 493 1958 518 1967 c 128,-1,7
 543 1976 543 1976 564 1979 c 0,8,9
 591 1983 591 1983 618.5 1970.5 c 128,-1,10
 646 1958 646 1958 679.5 1925.5 c 128,-1,11
 713 1893 713 1893 762.5 1839 c 128,-1,12
 812 1785 812 1785 881 1709 c 0,13,14
 895 1689 895 1689 864 1678.5 c 128,-1,15
 833 1668 833 1668 808 1696 c 0,16,17
 736 1769 736 1769 696 1813 c 128,-1,18
 656 1857 656 1857 632 1878.5 c 128,-1,19
 608 1900 608 1900 594 1905 c 128,-1,20
 580 1910 580 1910 564 1910 c 0,21,22
 543 1910 543 1910 523.5 1901.5 c 128,-1,23
 504 1893 504 1893 476.5 1869 c 128,-1,24
 449 1845 449 1845 409.5 1807 c 128,-1,25
 370 1769 370 1769 308 1709 c 0,0,1
EndSplineSet
EndChar
StartChar: perthousand
Encoding: 8240 8240 106
Width: 2228
VWidth: 3622
Flags: W
HStem: 104 76<1081.28 1318.84 1712.05 1948.78> 543 80<1077.73 1317.5 1708.53 1947.68> 946 76<392.412 632.328> 1383 80<389.726 629.497>
VStem: 249 80<1087.45 1324.23> 692 65<1084.18 1290.89> 937 80<246.477 484.235> 1380 65<243.564 450.893> 1569 80<244.2 484.235> 2011 66<243.564 450.172>
Fore
577 28 m 1,0,1
 543 -11 543 -11 508.5 -3.5 c 128,-1,2
 474 4 474 4 493 51 c 2,3,-1
 1109 1555 l 2,4,5
 1120 1576 1120 1576 1137.5 1581.5 c 128,-1,6
 1155 1587 1155 1587 1170 1579.5 c 128,-1,7
 1185 1572 1185 1572 1190.5 1553.5 c 128,-1,8
 1196 1535 1196 1535 1182 1514 c 1,9,-1
 577 28 l 1,0,1
757 1199 m 0,10,11
 757 1109 757 1109 697 1027.5 c 128,-1,12
 637 946 637 946 515 946 c 0,13,14
 387 946 387 946 318 1029.5 c 128,-1,15
 249 1113 249 1113 249 1206 c 256,16,17
 249 1300 249 1300 316.5 1381.5 c 128,-1,18
 384 1463 384 1463 515 1463 c 0,19,20
 580 1463 580 1463 625 1438 c 128,-1,21
 670 1413 670 1413 699.5 1375 c 128,-1,22
 729 1337 729 1337 743 1289.5 c 128,-1,23
 757 1242 757 1242 757 1199 c 0,10,11
692 1196 m 0,24,25
 692 1261 692 1261 648.5 1322 c 128,-1,26
 605 1383 605 1383 518 1383 c 0,27,28
 435 1383 435 1383 382 1332.5 c 128,-1,29
 329 1282 329 1282 329 1210 c 0,30,31
 329 1134 329 1134 380.5 1078 c 128,-1,32
 432 1022 432 1022 518 1022 c 0,33,34
 591 1022 591 1022 638 1072.5 c 128,-1,35
 685 1123 685 1123 692 1196 c 0,24,25
1445 359 m 0,36,37
 1445 269 1445 269 1386 186.5 c 128,-1,38
 1327 104 1327 104 1203 104 c 0,39,40
 1075 104 1075 104 1006 188 c 128,-1,41
 937 272 937 272 937 366 c 256,42,43
 937 460 937 460 1004.5 541.5 c 128,-1,44
 1072 623 1072 623 1203 623 c 0,45,46
 1268 623 1268 623 1313 598 c 128,-1,47
 1358 573 1358 573 1387.5 535 c 128,-1,48
 1417 497 1417 497 1431 449.5 c 128,-1,49
 1445 402 1445 402 1445 359 c 0,36,37
1380 356 m 0,50,51
 1380 421 1380 421 1336.5 482 c 128,-1,52
 1293 543 1293 543 1206 543 c 0,53,54
 1123 543 1123 543 1070 492.5 c 128,-1,55
 1017 442 1017 442 1017 370 c 0,56,57
 1017 294 1017 294 1068.5 237 c 128,-1,58
 1120 180 1120 180 1206 180 c 0,59,60
 1279 180 1279 180 1326 231.5 c 128,-1,61
 1373 283 1373 283 1380 356 c 0,50,51
2077 359 m 0,62,63
 2077 269 2077 269 2016.5 186.5 c 128,-1,64
 1956 104 1956 104 1832 104 c 0,65,66
 1707 104 1707 104 1638 188 c 128,-1,67
 1569 272 1569 272 1569 366 c 256,68,69
 1569 460 1569 460 1636 541.5 c 128,-1,70
 1703 623 1703 623 1832 623 c 0,71,72
 1898 623 1898 623 1943 598 c 128,-1,73
 1988 573 1988 573 2017.5 535 c 128,-1,74
 2047 497 2047 497 2062 449.5 c 128,-1,75
 2077 402 2077 402 2077 359 c 0,62,63
2011 356 m 0,76,77
 2011 421 2011 421 1967 482 c 128,-1,78
 1923 543 1923 543 1836 543 c 0,79,80
 1753 543 1753 543 1701 492.5 c 128,-1,81
 1649 442 1649 442 1649 370 c 0,82,83
 1649 294 1649 294 1699 237 c 128,-1,84
 1749 180 1749 180 1836 180 c 0,85,86
 1909 180 1909 180 1956.5 231.5 c 128,-1,87
 2004 283 2004 283 2011 356 c 0,76,77
EndSplineSet
EndChar
StartChar: guilsinglleft
Encoding: 8249 8249 108
Width: 677
VWidth: 3622
Flags: W
HStem: 235 80<415.686 603.292> 1059 20G<537.5 618>
VStem: 131 87<592.9 684.5>
Fore
570 315 m 0,0,1
 598 308 598 308 607 293.5 c 128,-1,2
 616 279 616 279 614 266 c 128,-1,3
 612 253 612 253 599.5 244 c 128,-1,4
 587 235 587 235 573 235 c 1,5,6
 481 256 481 256 401.5 311 c 128,-1,7
 322 366 322 366 262.5 431.5 c 128,-1,8
 203 497 203 497 167 558 c 128,-1,9
 131 619 131 619 131 656 c 0,10,11
 131 688 131 688 165.5 748 c 128,-1,12
 200 808 200 808 261 872.5 c 128,-1,13
 322 937 322 937 405 994 c 128,-1,14
 488 1051 488 1051 587 1079 c 1,15,16
 649 1075 649 1075 644.5 1042.5 c 128,-1,17
 640 1010 640 1010 598 1003 c 1,18,19
 515 975 515 975 444 924.5 c 128,-1,20
 373 874 373 874 322.5 819 c 128,-1,21
 272 764 272 764 245 717 c 128,-1,22
 218 670 218 670 218 656 c 0,23,24
 218 633 218 633 243.5 586 c 128,-1,25
 269 539 269 539 316 487 c 128,-1,26
 363 435 363 435 425.5 385.5 c 128,-1,27
 488 336 488 336 570 315 c 0,0,1
EndSplineSet
EndChar
StartChar: OE
Encoding: 338 338 109
Width: 2509
VWidth: 3622
Flags: W
HStem: 7 90<644.844 1002.85 1002.85 1121.67 1121.67 1187 1187 1200.78> 36.5 73<1783.14 1883.87 1883.87 2046.88 2046.88 2112.58 2112.58 2378.08> 50.5 88<641 799.004 1533.36 1738.28 2224.05 2380> 886 87<1553.51 1851.37 1851.37 1961.55 1961.55 2049.46 2049.46 2146.97 2146.97 2180.29 2180.29 2209 2220 2243.25> 1657.5 88.5<2112.79 2392.49> 1666.5 79.5<1419.14 1452 1546 1595.95 1595.95 1689.78 1689.78 1882.15 1882.15 1918.15 1918.15 2186.36 2186.36 2228.07> 1687 92<684.229 1052.35>
VStem: 117 86<553.709 1172.62> 1434 98<156 364.732> 1459 92<675.268 884 978 1104.64 1104.64 1277.28 1277.28 1429.99 1589.46 1659>
Fore
1532 134 m 1,0,1
 1652 127 1652 127 1752 119 c 128,-1,2
 1852 111 1852 111 1947.5 109.5 c 128,-1,3
 2043 108 2043 108 2146.5 114 c 128,-1,4
 2250 120 2250 120 2384 138 c 0,5,6
 2413 138 2413 138 2427 124.5 c 128,-1,7
 2441 111 2441 111 2441 97 c 0,8,9
 2441 69 2441 69 2380 55 c 128,-1,10
 2319 41 2319 41 2221 36.5 c 128,-1,11
 2123 32 2123 32 2003.5 36.5 c 128,-1,12
 1884 41 1884 41 1770 46 c 128,-1,13
 1656 51 1656 51 1559.5 54.5 c 128,-1,14
 1463 58 1463 58 1417 55 c 0,15,16
 1376 48 1376 48 1336.5 40 c 128,-1,17
 1297 32 1297 32 1239.5 26.5 c 128,-1,18
 1182 21 1182 21 1096 16 c 128,-1,19
 1010 11 1010 11 888 7 c 0,20,21
 750 4 750 4 614 50.5 c 128,-1,22
 478 97 478 97 365.5 199 c 128,-1,23
 253 301 253 301 185 463.5 c 128,-1,24
 117 626 117 626 117 854 c 256,25,26
 117 1083 117 1083 186.5 1255 c 128,-1,27
 256 1427 256 1427 372 1545 c 128,-1,28
 488 1663 488 1663 641 1721 c 128,-1,29
 794 1779 794 1779 957 1779 c 0,30,31
 1106 1779 1106 1779 1228.5 1746.5 c 128,-1,32
 1351 1714 1351 1714 1456 1587 c 1,33,-1
 1452 1673 l 1,34,35
 1427 1673 1427 1673 1413 1684 c 128,-1,36
 1399 1695 1399 1695 1396.5 1708 c 128,-1,37
 1394 1721 1394 1721 1409 1733.5 c 128,-1,38
 1424 1746 1424 1746 1452 1746 c 0,39,40
 1580 1753 1580 1753 1733.5 1754.5 c 128,-1,41
 1887 1756 1887 1756 2030.5 1754.5 c 128,-1,42
 2174 1753 2174 1753 2284.5 1746 c 128,-1,43
 2395 1739 2395 1739 2434 1728 c 0,44,45
 2464 1721 2464 1721 2458 1688.5 c 128,-1,46
 2452 1656 2452 1656 2416 1649 c 1,47,48
 2365 1652 2365 1652 2266 1657.5 c 128,-1,49
 2167 1663 2167 1663 2045 1666.5 c 128,-1,50
 1923 1670 1923 1670 1791 1670 c 128,-1,51
 1659 1670 1659 1670 1546 1659 c 1,52,53
 1551 1572 1551 1572 1551 1454.5 c 128,-1,54
 1551 1337 1551 1337 1551 1231 c 0,55,56
 1551 1109 1551 1109 1546 978 c 1,57,58
 1611 975 1611 975 1697 975 c 128,-1,59
 1783 975 1783 975 1873 975 c 128,-1,60
 1963 975 1963 975 2050 973 c 128,-1,61
 2137 971 2137 971 2209 964 c 0,62,63
 2239 960 2239 960 2244.5 922 c 128,-1,64
 2250 884 2250 884 2220 884 c 1,65,66
 2213 877 2213 877 2138.5 880.5 c 128,-1,67
 2064 884 2064 884 1959.5 886 c 128,-1,68
 1855 888 1855 888 1743 889.5 c 128,-1,69
 1631 891 1631 891 1551 884 c 1,70,-1
 1532 134 l 1,0,1
1459 884 m 2,71,72
 1459 971 1459 971 1459 1054 c 128,-1,73
 1459 1137 1459 1137 1459 1211.5 c 128,-1,74
 1459 1286 1459 1286 1457.5 1342.5 c 128,-1,75
 1456 1399 1456 1399 1452 1431 c 1,76,77
 1410 1514 1410 1514 1353.5 1562.5 c 128,-1,78
 1297 1611 1297 1611 1231.5 1638.5 c 128,-1,79
 1166 1666 1166 1666 1096 1675 c 128,-1,80
 1026 1684 1026 1684 957 1687 c 0,81,82
 808 1691 808 1691 672 1639 c 128,-1,83
 536 1587 536 1587 432.5 1483.5 c 128,-1,84
 329 1380 329 1380 266 1224 c 128,-1,85
 203 1068 203 1068 203 861 c 0,86,87
 203 656 203 656 262.5 511 c 128,-1,88
 322 366 322 366 420 273 c 128,-1,89
 518 180 518 180 641 138.5 c 128,-1,90
 764 97 764 97 888 97 c 0,91,92
 985 97 985 97 1056 97 c 128,-1,93
 1127 97 1127 97 1187 102.5 c 128,-1,94
 1247 108 1247 108 1304.5 119.5 c 128,-1,95
 1362 131 1362 131 1434 156 c 1,96,-1
 1459 884 l 2,71,72
EndSplineSet
EndChar
StartChar: quoteleft
Encoding: 8216 8216 110
Width: 626
VWidth: 3622
Flags: W
HStem: 1017 467.5<315 356.5 356.5 356.5>
VStem: 163 65<1121.97 1185.89> 394 59<1087.83 1194.76>
Fore
308 1479 m 1,0,1
 336 1503 336 1503 356.5 1484.5 c 128,-1,2
 377 1466 377 1466 366 1449 c 1,3,4
 333 1413 333 1413 296.5 1371.5 c 128,-1,5
 260 1330 260 1330 235 1268 c 1,6,7
 269 1286 269 1286 307 1287.5 c 128,-1,8
 345 1289 345 1289 377 1275 c 128,-1,9
 409 1261 409 1261 431 1230 c 128,-1,10
 453 1199 453 1199 453 1151 c 0,11,12
 449 1106 449 1106 413 1064 c 128,-1,13
 377 1022 377 1022 315 1017 c 0,14,15
 249 1010 249 1010 209.5 1048 c 128,-1,16
 170 1086 170 1086 163 1148 c 0,17,18
 156 1206 156 1206 171.5 1258.5 c 128,-1,19
 187 1311 187 1311 213 1355 c 128,-1,20
 239 1399 239 1399 266.5 1429 c 128,-1,21
 294 1459 294 1459 308 1479 c 1,0,1
394 1148 m 0,22,23
 394 1189 394 1189 373 1213.5 c 128,-1,24
 352 1238 352 1238 311 1235 c 1,25,26
 276 1238 276 1238 252 1211.5 c 128,-1,27
 228 1185 228 1185 228 1155 c 0,28,29
 228 1130 228 1130 244 1104.5 c 128,-1,30
 260 1079 260 1079 308 1075 c 0,31,32
 341 1072 341 1072 367.5 1092.5 c 128,-1,33
 394 1113 394 1113 394 1148 c 0,22,23
EndSplineSet
EndChar
StartChar: quoteright
Encoding: 8217 8217 111
Width: 626
VWidth: 3622
Flags: W
HStem: 1017 467.5<240.5 283 240.5 240.5>
VStem: 145 58<1087.83 1206.77> 370 65<1122.76 1185.89>
Fore
290 1479 m 1,0,1
 304 1459 304 1459 331.5 1429 c 128,-1,2
 359 1399 359 1399 384 1355 c 128,-1,3
 409 1311 409 1311 425.5 1258.5 c 128,-1,4
 442 1206 442 1206 435 1148 c 0,5,6
 428 1086 428 1086 388 1048 c 128,-1,7
 348 1010 348 1010 283 1017 c 0,8,9
 221 1022 221 1022 185 1064 c 128,-1,10
 149 1106 149 1106 145 1151 c 0,11,12
 145 1199 145 1199 166 1230 c 128,-1,13
 187 1261 187 1261 220 1275 c 128,-1,14
 253 1289 253 1289 291 1287.5 c 128,-1,15
 329 1286 329 1286 363 1268 c 1,16,17
 336 1330 336 1330 300.5 1371.5 c 128,-1,18
 265 1413 265 1413 232 1449 c 1,19,20
 221 1466 221 1466 240.5 1484.5 c 128,-1,21
 260 1503 260 1503 290 1479 c 1,0,1
203 1148 m 0,22,23
 203 1113 203 1113 229.5 1092.5 c 128,-1,24
 256 1072 256 1072 290 1075 c 0,25,26
 336 1079 336 1079 353 1104.5 c 128,-1,27
 370 1130 370 1130 370 1155 c 0,28,29
 370 1185 370 1185 346 1211.5 c 128,-1,30
 322 1238 322 1238 287 1235 c 1,31,32
 246 1238 246 1238 224.5 1213.5 c 128,-1,33
 203 1189 203 1189 203 1148 c 0,22,23
EndSplineSet
EndChar
StartChar: quotedblleft
Encoding: 8220 8220 112
Width: 937
VWidth: 3622
Flags: W
HStem: 1006 59<244.508 352.08>
VStem: 163 65<1111.64 1175.03> 394 59<1076.73 1184.34> 508 65<1121.97 1186.77> 739 59<1087.83 1206.18>
Fore
653 1479 m 1,0,1
 681 1503 681 1503 701.5 1484.5 c 128,-1,2
 722 1466 722 1466 709 1449 c 0,3,4
 677 1413 677 1413 641 1371.5 c 128,-1,5
 605 1330 605 1330 580 1268 c 1,6,7
 612 1286 612 1286 650 1287.5 c 128,-1,8
 688 1289 688 1289 721 1275 c 128,-1,9
 754 1261 754 1261 776 1230 c 128,-1,10
 798 1199 798 1199 798 1151 c 0,11,12
 794 1106 794 1106 758 1064 c 128,-1,13
 722 1022 722 1022 660 1017 c 0,14,15
 594 1010 594 1010 554.5 1048 c 128,-1,16
 515 1086 515 1086 508 1148 c 0,17,18
 501 1206 501 1206 516.5 1258.5 c 128,-1,19
 532 1311 532 1311 558 1355 c 128,-1,20
 584 1399 584 1399 610.5 1429 c 128,-1,21
 637 1459 637 1459 653 1479 c 1,0,1
739 1148 m 0,22,23
 739 1189 739 1189 717 1213.5 c 128,-1,24
 695 1238 695 1238 656 1235 c 1,25,26
 619 1238 619 1238 596 1211.5 c 128,-1,27
 573 1185 573 1185 573 1155 c 0,28,29
 573 1130 573 1130 589 1104.5 c 128,-1,30
 605 1079 605 1079 653 1075 c 0,31,32
 685 1072 685 1072 712 1092.5 c 128,-1,33
 739 1113 739 1113 739 1148 c 0,22,23
308 1466 m 1,34,35
 336 1493 336 1493 356.5 1474.5 c 128,-1,36
 377 1456 377 1456 366 1438 c 1,37,38
 333 1403 333 1403 296.5 1360.5 c 128,-1,39
 260 1318 260 1318 235 1258 c 1,40,41
 269 1275 269 1275 307 1277 c 128,-1,42
 345 1279 345 1279 377 1265 c 128,-1,43
 409 1251 409 1251 431 1220 c 128,-1,44
 453 1189 453 1189 453 1141 c 0,45,46
 449 1093 449 1093 413 1051.5 c 128,-1,47
 377 1010 377 1010 315 1006 c 0,48,49
 249 999 249 999 209.5 1037 c 128,-1,50
 170 1075 170 1075 163 1137 c 0,51,52
 156 1196 156 1196 171.5 1248 c 128,-1,53
 187 1300 187 1300 213 1343.5 c 128,-1,54
 239 1387 239 1387 266.5 1418 c 128,-1,55
 294 1449 294 1449 308 1466 c 1,34,35
394 1137 m 0,56,57
 394 1178 394 1178 373 1203 c 128,-1,58
 352 1228 352 1228 311 1224 c 1,59,60
 276 1228 276 1228 252 1201 c 128,-1,61
 228 1174 228 1174 228 1144 c 0,62,63
 228 1120 228 1120 244 1094 c 128,-1,64
 260 1068 260 1068 308 1065 c 0,65,66
 341 1061 341 1061 367.5 1081.5 c 128,-1,67
 394 1102 394 1102 394 1137 c 0,56,57
EndSplineSet
EndChar
StartChar: quotedblright
Encoding: 8221 8221 113
Width: 937
VWidth: 3622
Flags: W
HStem: 1427 59<245 352.462 589.583 626 633 693.455>
VStem: 145 58<1296.14 1415.66> 370 65<1317.11 1380.24> 488 59<1319.16 1426.27> 713 65<1326.23 1391.03>
Fore
290 1024 m 1,0,1
 260 999 260 999 240.5 1018 c 128,-1,2
 221 1037 221 1037 232 1054 c 1,3,4
 265 1090 265 1090 300.5 1131.5 c 128,-1,5
 336 1173 336 1173 363 1235 c 1,6,7
 329 1217 329 1217 291 1215 c 128,-1,8
 253 1213 253 1213 220 1227.5 c 128,-1,9
 187 1242 187 1242 166 1273 c 128,-1,10
 145 1304 145 1304 145 1351 c 0,11,12
 149 1397 149 1397 185 1438.5 c 128,-1,13
 221 1480 221 1480 283 1486 c 0,14,15
 348 1493 348 1493 388 1455 c 128,-1,16
 428 1417 428 1417 435 1355 c 0,17,18
 442 1297 442 1297 425.5 1244.5 c 128,-1,19
 409 1192 409 1192 384 1148 c 128,-1,20
 359 1104 359 1104 331.5 1074 c 128,-1,21
 304 1044 304 1044 290 1024 c 1,0,1
203 1355 m 0,22,23
 203 1314 203 1314 224.5 1289.5 c 128,-1,24
 246 1265 246 1265 287 1268 c 1,25,26
 322 1265 322 1265 346 1291.5 c 128,-1,27
 370 1318 370 1318 370 1348 c 0,28,29
 370 1373 370 1373 353 1398.5 c 128,-1,30
 336 1424 336 1424 290 1427 c 0,31,32
 256 1431 256 1431 229.5 1410.5 c 128,-1,33
 203 1390 203 1390 203 1355 c 0,22,23
633 1037 m 0,34,35
 605 1010 605 1010 584.5 1028.5 c 128,-1,36
 564 1047 564 1047 577 1065 c 0,37,38
 608 1100 608 1100 644.5 1142.5 c 128,-1,39
 681 1185 681 1185 706 1245 c 1,40,41
 674 1228 674 1228 636 1226 c 128,-1,42
 598 1224 598 1224 565 1238 c 128,-1,43
 532 1252 532 1252 510 1283 c 128,-1,44
 488 1314 488 1314 488 1362 c 0,45,46
 493 1410 493 1410 528.5 1451.5 c 128,-1,47
 564 1493 564 1493 626 1496 c 0,48,49
 692 1503 692 1503 731.5 1465 c 128,-1,50
 771 1427 771 1427 778 1366 c 0,51,52
 785 1307 785 1307 769.5 1255 c 128,-1,53
 754 1203 754 1203 728 1159.5 c 128,-1,54
 702 1116 702 1116 675.5 1085 c 128,-1,55
 649 1054 649 1054 633 1037 c 0,34,35
547 1366 m 0,56,57
 547 1325 547 1325 569 1300 c 128,-1,58
 591 1275 591 1275 630 1279 c 1,59,60
 667 1275 667 1275 690 1301.5 c 128,-1,61
 713 1328 713 1328 713 1358 c 0,62,63
 713 1383 713 1383 697 1408.5 c 128,-1,64
 681 1434 681 1434 633 1438 c 0,65,66
 601 1442 601 1442 574 1421.5 c 128,-1,67
 547 1401 547 1401 547 1366 c 0,56,57
EndSplineSet
EndChar
StartChar: bullet
Encoding: 8226 8226 114
Width: 1174
VWidth: 3622
Flags: W
HStem: 154 797.5<460 467 686 691.5 460 691.5 460 460> 154 54.5<599.798 737.683> 417 54<504.645 599.103>
VStem: 129 875.5<415 714 641 646.5> 129 56.5<320.251 487.749> 412 55<480.754 583.073> 612 58<504.688 584.061> 845.5 67.5<307.893 391.5>
Fore
508 304 m 1,0,1
 442 221 442 221 375 207 c 128,-1,2
 308 193 308 193 254 217.5 c 128,-1,3
 200 242 200 242 165.5 299 c 128,-1,4
 131 356 131 356 129 415 c 128,-1,5
 127 474 127 474 167 523.5 c 128,-1,6
 207 573 207 573 301 591 c 1,7,-1
 301 594 l 1,8,9
 232 674 232 674 225 741 c 128,-1,10
 218 808 218 808 250.5 857 c 128,-1,11
 283 906 283 906 342.5 931.5 c 128,-1,12
 402 957 402 957 460 951.5 c 128,-1,13
 518 946 518 946 565 903.5 c 128,-1,14
 612 861 612 861 619 778 c 1,15,16
 677 870 677 870 742.5 895 c 128,-1,17
 808 920 808 920 864 900.5 c 128,-1,18
 920 881 920 881 959.5 828 c 128,-1,19
 999 775 999 775 1004.5 714 c 128,-1,20
 1010 653 1010 653 973.5 592.5 c 128,-1,21
 937 532 937 532 844 497 c 1,22,23
 906 435 906 435 913 373 c 128,-1,24
 920 311 920 311 889 262.5 c 128,-1,25
 858 214 858 214 804 185 c 128,-1,26
 750 156 750 156 691.5 154 c 128,-1,27
 633 152 633 152 581 186.5 c 128,-1,28
 529 221 529 221 508 304 c 1,0,1
580 713 m 0,29,30
 577 840 577 840 506 876.5 c 128,-1,31
 435 913 435 913 369.5 885.5 c 128,-1,32
 304 858 304 858 280 783.5 c 128,-1,33
 256 709 256 709 345 616 c 1,34,35
 363 608 363 608 359.5 577.5 c 128,-1,36
 356 547 356 547 333 543 c 0,37,38
 253 529 253 529 218.5 489 c 128,-1,39
 184 449 184 449 185.5 404 c 128,-1,40
 187 359 187 359 216.5 319 c 128,-1,41
 246 279 246 279 289.5 262.5 c 128,-1,42
 333 246 333 246 384 266.5 c 128,-1,43
 435 287 435 287 478 363 c 1,44,45
 485 387 485 387 512 383.5 c 128,-1,46
 539 380 539 380 539 363 c 1,47,48
 557 283 557 283 598.5 246.5 c 128,-1,49
 640 210 640 210 686 208.5 c 128,-1,50
 732 207 732 207 773.5 231.5 c 128,-1,51
 815 256 815 256 834.5 298.5 c 128,-1,52
 854 341 854 341 845.5 391.5 c 128,-1,53
 837 442 837 442 778 488 c 1,54,55
 782 488 782 488 776.5 506.5 c 128,-1,56
 771 525 771 525 798 529 c 1,57,58
 884 561 884 561 917 610.5 c 128,-1,59
 950 660 950 660 942 708.5 c 128,-1,60
 934 757 934 757 899.5 797 c 128,-1,61
 865 837 865 837 818 845.5 c 128,-1,62
 771 854 771 854 722.5 827.5 c 128,-1,63
 674 801 674 801 646 718 c 0,64,65
 633 685 633 685 606.5 690 c 128,-1,66
 580 695 580 695 580 713 c 0,29,30
412 525 m 0,67,68
 412 587 412 587 445 627 c 128,-1,69
 478 667 478 667 539 660 c 1,70,71
 594 667 594 667 632 627 c 128,-1,72
 670 587 670 587 670 539 c 0,73,74
 670 501 670 501 644.5 463 c 128,-1,75
 619 425 619 425 547 417 c 0,76,77
 497 409 497 409 454.5 440 c 128,-1,78
 412 471 412 471 412 525 c 0,67,68
467 532 m 0,79,80
 467 504 467 504 492.5 485.5 c 128,-1,81
 518 467 518 467 547 471 c 0,82,83
 587 474 587 474 599.5 498 c 128,-1,84
 612 522 612 522 612 539 c 0,85,86
 612 564 612 564 591 586 c 128,-1,87
 570 608 570 608 539 605 c 1,88,89
 511 608 511 608 489 586 c 128,-1,90
 467 564 467 564 467 532 c 0,79,80
EndSplineSet
EndChar
StartChar: endash
Encoding: 8211 8211 115
Width: 1561
VWidth: 3622
Flags: W
HStem: 736 74<209.517 551.481 551.481 587.15 587.15 1014.38> 750 72<156.695 396.833 1150.78 1503 1503 1524.49> 751.5 73<30.2241 355.842 901.94 1324.18 1324.18 1497.93>
Fore
58 830 m 0,0,1
 221 812 221 812 402.5 810 c 128,-1,2
 584 808 584 808 772 813.5 c 128,-1,3
 960 819 960 819 1145 824.5 c 128,-1,4
 1330 830 1330 830 1503 822 c 0,5,6
 1532 822 1532 822 1543.5 808 c 128,-1,7
 1555 794 1555 794 1550.5 781 c 128,-1,8
 1546 768 1546 768 1532 757 c 128,-1,9
 1518 746 1518 746 1503 750 c 1,10,11
 1341 757 1341 757 1141 751.5 c 128,-1,12
 941 746 941 746 742 741 c 128,-1,13
 543 736 543 736 361.5 736 c 128,-1,14
 180 736 180 736 55 754 c 0,15,16
 32 757 32 757 23 771 c 128,-1,17
 14 785 14 785 16 798.5 c 128,-1,18
 18 812 18 812 29.5 822.5 c 128,-1,19
 41 833 41 833 58 830 c 0,0,1
EndSplineSet
EndChar
StartChar: emdash
Encoding: 8212 8212 116
Width: 3125
VWidth: 3622
Flags: W
HStem: 746 78<301.761 1036.27 2921.88 3049> 750 87<35.5938 133.839 133.839 144.001 144.001 610.402 622.618 638.401 650.617 1043.5 1066.5 1754.79 1754.79 1760.58 1760.58 2210.16 2210.16 2215.77 2212.96 2614.18 2609.4 2618.95 2618.95 2992.95>
Fore
58 837 m 0,0,1
 145 830 145 830 297 828 c 128,-1,2
 449 826 449 826 644.5 824 c 128,-1,3
 840 822 840 822 1066.5 824 c 128,-1,4
 1293 826 1293 826 1528 828 c 128,-1,5
 1763 830 1763 830 1993 831.5 c 128,-1,6
 2223 833 2223 833 2426.5 833 c 128,-1,7
 2630 833 2630 833 2791 829.5 c 128,-1,8
 2952 826 2952 826 3049 819 c 1,9,10
 3083 798 3083 798 3069 771 c 0,11,12
 3062 757 3062 757 3049 746 c 1,13,14
 2959 754 2959 754 2800 755.5 c 128,-1,15
 2641 757 2641 757 2436.5 757 c 128,-1,16
 2232 757 2232 757 1994 755.5 c 128,-1,17
 1756 754 1756 754 1515.5 752 c 128,-1,18
 1275 750 1275 750 1043.5 748 c 128,-1,19
 812 746 812 746 616.5 746 c 128,-1,20
 421 746 421 746 274 750 c 128,-1,21
 127 754 127 754 55 761 c 0,22,23
 32 764 32 764 23 776.5 c 128,-1,24
 14 789 14 789 16 804 c 128,-1,25
 18 819 18 819 29.5 828 c 128,-1,26
 41 837 41 837 58 837 c 0,0,1
EndSplineSet
EndChar
StartChar: tilde
Encoding: 732 732 117
Width: 781
VWidth: 3622
Flags: W
HStem: 1530 72.5<489.592 578.546 578.546 592.927 592.927 652> 1602.5 65.5<158.035 277.693>
VStem: 21 718<1576 1601 1614.05 1628.43>
Fore
21 1576 m 0,0,1
 48 1618 48 1618 91 1640.5 c 128,-1,2
 134 1663 134 1663 186.5 1668 c 128,-1,3
 239 1673 239 1673 295.5 1664.5 c 128,-1,4
 352 1656 352 1656 402 1634 c 0,5,6
 425 1624 425 1624 463 1614 c 128,-1,7
 501 1604 501 1604 540.5 1602.5 c 128,-1,8
 580 1601 580 1601 616.5 1606 c 128,-1,9
 653 1611 653 1611 674 1634 c 1,10,11
 709 1663 709 1663 735 1643.5 c 128,-1,12
 761 1624 761 1624 739 1601 c 0,13,14
 699 1558 699 1558 652 1543 c 128,-1,15
 605 1528 605 1528 554.5 1530 c 128,-1,16
 504 1532 504 1532 453 1545 c 128,-1,17
 402 1558 402 1558 359 1572 c 0,18,19
 329 1583 329 1583 292.5 1592 c 128,-1,20
 256 1601 256 1601 220 1602.5 c 128,-1,21
 184 1604 184 1604 152 1593.5 c 128,-1,22
 120 1583 120 1583 94 1551 c 0,23,24
 58 1514 58 1514 32.5 1534.5 c 128,-1,25
 7 1555 7 1555 21 1576 c 0,0,1
EndSplineSet
EndChar
StartChar: trademark
Encoding: 8482 8482 118
Width: 1862
VWidth: 3622
Flags: W
HStem: 1394 70.5<91.1719 238.388 242.61 302.799 302.799 377 449 515.819 515.819 567.525 570.465 640.642 640.642 715.419 918.622 975.169> 1396.5 73.5<451.275 515.819 515.819 647.965>
VStem: 352 78<589.607 646.596 646.596 674.677 674.677 748.45 748.45 855.241 855.241 896.331 896.331 976.5 978 1130.43> 368 72.5<1024.69 1220.97 1220.97 1225 1225 1366.77> 801 80<584 738.731 738.731 1070.22> 1512.5 79.5<561 663.435 663.435 667.75 667.75 827.335 827.335 899 899 948.487>
Fore
449 1394 m 1,0,1
 446 1362 446 1362 444 1295 c 128,-1,2
 442 1228 442 1228 440.5 1146.5 c 128,-1,3
 439 1065 439 1065 437 978 c 128,-1,4
 435 891 435 891 433.5 815 c 128,-1,5
 432 739 432 739 430 682.5 c 128,-1,6
 428 626 428 626 428 612 c 0,7,8
 428 594 428 594 415 583.5 c 128,-1,9
 402 573 402 573 387 573 c 0,10,11
 348 573 348 573 348 612 c 0,12,13
 348 633 348 633 352 740 c 128,-1,14
 356 847 356 847 359.5 976.5 c 128,-1,15
 363 1106 363 1106 368 1225 c 128,-1,16
 373 1344 373 1344 377 1394 c 1,17,18
 308 1394 308 1394 240.5 1387 c 128,-1,19
 173 1380 173 1380 94 1380 c 0,20,21
 69 1380 69 1380 60 1409 c 128,-1,22
 51 1438 51 1438 90 1449 c 0,23,24
 127 1459 127 1459 228 1464.5 c 128,-1,25
 329 1470 329 1470 446 1470 c 0,26,27
 518 1470 518 1470 585.5 1468 c 128,-1,28
 653 1466 653 1466 695 1463 c 0,29,30
 718 1459 718 1459 715.5 1424.5 c 128,-1,31
 713 1390 713 1390 699 1390 c 2,32,-1
 649 1390 l 2,33,34
 616 1394 616 1394 569 1396.5 c 128,-1,35
 522 1399 522 1399 449 1394 c 1,0,1
1601 598 m 0,36,37
 1604 570 1604 570 1593.5 560 c 128,-1,38
 1583 550 1583 550 1565 550 c 0,39,40
 1546 550 1546 550 1521 561 c 1,41,42
 1518 640 1518 640 1512.5 774.5 c 128,-1,43
 1507 909 1507 909 1501.5 1041.5 c 128,-1,44
 1496 1174 1496 1174 1491 1275 c 128,-1,45
 1486 1376 1486 1376 1482 1394 c 1,46,47
 1449 1387 1449 1387 1407.5 1331 c 128,-1,48
 1366 1275 1366 1275 1327.5 1199 c 128,-1,49
 1289 1123 1289 1123 1262 1041.5 c 128,-1,50
 1235 960 1235 960 1231 906 c 0,51,52
 1231 854 1231 854 1202.5 856 c 128,-1,53
 1174 858 1174 858 1162 899 c 0,54,55
 1151 957 1151 957 1124.5 1042 c 128,-1,56
 1098 1127 1098 1127 1065.5 1206.5 c 128,-1,57
 1033 1286 1033 1286 998.5 1340 c 128,-1,58
 964 1394 964 1394 934 1394 c 0,59,60
 923 1394 923 1394 914.5 1327.5 c 128,-1,61
 906 1261 906 1261 897 1150.5 c 128,-1,62
 888 1040 888 1040 884.5 893 c 128,-1,63
 881 746 881 746 881 584 c 1,64,65
 858 557 858 557 840 557 c 0,66,67
 826 557 826 557 812 564 c 1,68,69
 805 570 805 570 801 577 c 1,70,71
 805 1026 805 1026 833 1250.5 c 128,-1,72
 861 1475 861 1475 930 1475 c 0,73,74
 957 1475 957 1475 993 1446 c 128,-1,75
 1029 1417 1029 1417 1067.5 1364 c 128,-1,76
 1106 1311 1106 1311 1140 1238.5 c 128,-1,77
 1174 1166 1174 1166 1199 1079 c 1,78,79
 1224 1166 1224 1166 1265.5 1240 c 128,-1,80
 1307 1314 1307 1314 1353 1367 c 128,-1,81
 1399 1420 1399 1420 1437 1449.5 c 128,-1,82
 1475 1479 1475 1479 1496 1475 c 0,83,84
 1542 1466 1542 1466 1557 1312.5 c 128,-1,85
 1572 1159 1572 1159 1587 899 c 0,86,87
 1590 830 1590 830 1592 755.5 c 128,-1,88
 1594 681 1594 681 1601 598 c 0,36,37
EndSplineSet
EndChar
StartChar: guilsinglright
Encoding: 8250 8250 120
Width: 677
VWidth: 3622
Flags: W
HStem: 272 80<96.2662 240.921> 1040 76<68.3265 264.346>
VStem: 488 89<658.617 721.346>
Fore
138 352 m 0,0,1
 218 373 218 373 281.5 422 c 128,-1,2
 345 471 345 471 392 524 c 128,-1,3
 439 577 439 577 463.5 623.5 c 128,-1,4
 488 670 488 670 488 692 c 0,5,6
 488 706 488 706 461.5 753.5 c 128,-1,7
 435 801 435 801 384 855 c 128,-1,8
 333 909 333 909 263 959.5 c 128,-1,9
 193 1010 193 1010 108 1040 c 1,10,11
 65 1047 65 1047 61.5 1080 c 128,-1,12
 58 1113 58 1113 120 1116 c 1,13,14
 218 1086 218 1086 301 1030.5 c 128,-1,15
 384 975 384 975 446 909.5 c 128,-1,16
 508 844 508 844 542.5 784.5 c 128,-1,17
 577 725 577 725 577 692 c 0,18,19
 577 656 577 656 540.5 594 c 128,-1,20
 504 532 504 532 444 467 c 128,-1,21
 384 402 384 402 304.5 348 c 128,-1,22
 225 294 225 294 134 272 c 1,23,24
 120 272 120 272 107 281 c 128,-1,25
 94 290 94 290 92 302.5 c 128,-1,26
 90 315 90 315 99 330 c 128,-1,27
 108 345 108 345 138 352 c 0,0,1
EndSplineSet
EndChar
